STARTFONT 2.1
FONT -Adobe-Courier-Bold-R-Normal--20-140-100-100-M-110-ISO10646-1
SIZE 14 100 100
FONTBOUNDINGBOX 17 26 -4 -7
COMMENT $XFree86$
COMMENT ISO10646-1 extension by Markus Kuhn <mkuhn@acm.org>, 2001-03-20
COMMENT 
COMMENT +
COMMENT  Copyright 1984-1989, 1994 Adobe Systems Incorporated.
COMMENT  Copyright 1988, 1994 Digital Equipment Corporation.
COMMENT
COMMENT  Adobe is a trademark of Adobe Systems Incorporated which may be
COMMENT  registered in certain jurisdictions.
COMMENT  Permission to use these trademarks is hereby granted only in
COMMENT  association with the images described in this file.
COMMENT
COMMENT  Permission to use, copy, modify, distribute and sell this software
COMMENT  and its documentation for any purpose and without fee is hereby
COMMENT  granted, provided that the above copyright notices appear in all
COMMENT  copies and that both those copyright notices and this permission
COMMENT  notice appear in supporting documentation, and that the names of
COMMENT  Adobe Systems and Digital Equipment Corporation not be used in
COMMENT  advertising or publicity pertaining to distribution of the software
COMMENT  without specific, written prior permission.  Adobe Systems and
COMMENT  Digital Equipment Corporation make no representations about the
COMMENT  suitability of this software for any purpose.  It is provided "as
COMMENT  is" without express or implied warranty.
COMMENT -
STARTPROPERTIES 26
FOUNDRY "Adobe"
FAMILY_NAME "Courier"
WEIGHT_NAME "Bold"
SLANT "R"
SETWIDTH_NAME "Normal"
ADD_STYLE_NAME ""
PIXEL_SIZE 20
POINT_SIZE 140
RESOLUTION_X 100
RESOLUTION_Y 100
SPACING "M"
AVERAGE_WIDTH 110
CHARSET_REGISTRY "ISO10646"
CHARSET_ENCODING "1"
CAP_HEIGHT 11
X_HEIGHT 9
FONT_ASCENT 13
FONT_DESCENT 5
FACE_NAME "Courier Bold"
COPYRIGHT "Copyright (c) 1984, 1987 Adobe Systems Incorporated. All Rights Reserved. Copyright (c) 1988, 1991 Digital Equipment Corporation. All Rights Reserved."
NOTICE "No mark"
_DEC_DEVICE_FONTNAMES "PS=Courier-Bold"

STARTCHAR char0
ENCODING 0
SWIDTH 600 0
DWIDTH 11 0
BBX 9 11 0 0
BITMAP
AA80
0000
8080
0000
8080
0000
8080
0000
8080
0000
AA80
ENDCHAR
STARTCHAR space
ENCODING 32
SWIDTH 600 0
DWIDTH 11 0
BBX 1 1 0 0
BITMAP
00
ENDCHAR
STARTCHAR exclam
ENCODING 33
SWIDTH 600 0
DWIDTH 11 0
BBX 3 12 4 0
BITMAP
E0
E0
E0
E0
E0
E0
C0
C0
C0
00
C0
C0
ENDCHAR
STARTCHAR quotedbl
ENCODING 34
SWIDTH 600 0
DWIDTH 11 0
BBX 6 6 2 6
BITMAP
CC
CC
CC
CC
88
88
ENDCHAR
STARTCHAR numbersign
ENCODING 35
SWIDTH 600 0
DWIDTH 11 0
BBX 8 14 1 -1
BITMAP
36
36
36
36
FF
FF
6C
6C
FF
FF
6C
6C
6C
6C
ENDCHAR
STARTCHAR dollar
ENCODING 36
SWIDTH 600 0
DWIDTH 11 0
BBX 8 15 1 -2
BITMAP
18
18
3F
7F
C3
C0
F0
7E
0F
03
C7
FE
FC
18
18
ENDCHAR
STARTCHAR percent
ENCODING 37
SWIDTH 600 0
DWIDTH 11 0
BBX 8 12 1 0
BITMAP
70
D8
88
D8
73
0E
78
CE
1B
11
1B
0E
ENDCHAR
STARTCHAR ampersand
ENCODING 38
SWIDTH 600 0
DWIDTH 11 0
BBX 8 10 1 0
BITMAP
3C
7E
66
60
30
7B
FF
CE
FF
7B
ENDCHAR
STARTCHAR quotesingle
ENCODING 39
SWIDTH 600 0
DWIDTH 11 0
BBX 2 6 4 6
BITMAP
C0
C0
C0
C0
80
80
ENDCHAR
STARTCHAR parenleft
ENCODING 40
SWIDTH 600 0
DWIDTH 11 0
BBX 4 15 4 -3
BITMAP
30
30
60
60
C0
C0
C0
C0
C0
C0
C0
60
60
30
30
ENDCHAR
STARTCHAR parenright
ENCODING 41
SWIDTH 600 0
DWIDTH 11 0
BBX 4 15 2 -3
BITMAP
C0
C0
60
60
30
30
30
30
30
30
30
60
60
C0
C0
ENDCHAR
STARTCHAR asterisk
ENCODING 42
SWIDTH 600 0
DWIDTH 11 0
BBX 8 8 1 4
BITMAP
18
18
FF
FF
18
7E
E7
42
ENDCHAR
STARTCHAR plus
ENCODING 43
SWIDTH 600 0
DWIDTH 11 0
BBX 10 10 0 0
BITMAP
0C00
0C00
0C00
0C00
FFC0
FFC0
0C00
0C00
0C00
0C00
ENDCHAR
STARTCHAR comma
ENCODING 44
SWIDTH 600 0
DWIDTH 11 0
BBX 4 5 2 -3
BITMAP
30
30
60
40
80
ENDCHAR
STARTCHAR hyphen
ENCODING 45
SWIDTH 600 0
DWIDTH 11 0
BBX 8 2 1 4
BITMAP
FF
FF
ENDCHAR
STARTCHAR period
ENCODING 46
SWIDTH 600 0
DWIDTH 11 0
BBX 2 2 4 0
BITMAP
C0
C0
ENDCHAR
STARTCHAR slash
ENCODING 47
SWIDTH 600 0
DWIDTH 11 0
BBX 9 16 0 -3
BITMAP
0180
0180
0300
0300
0600
0600
0C00
0C00
1800
1800
3000
3000
6000
6000
C000
C000
ENDCHAR
STARTCHAR zero
ENCODING 48
SWIDTH 600 0
DWIDTH 11 0
BBX 8 12 1 0
BITMAP
3C
7E
66
C3
C3
C3
C3
C3
C3
66
7E
3C
ENDCHAR
STARTCHAR one
ENCODING 49
SWIDTH 600 0
DWIDTH 11 0
BBX 8 12 1 0
BITMAP
18
F8
F8
18
18
18
18
18
18
18
FF
FF
ENDCHAR
STARTCHAR two
ENCODING 50
SWIDTH 600 0
DWIDTH 11 0
BBX 8 12 1 0
BITMAP
3C
7E
C7
C3
03
07
0E
1C
38
70
FF
FF
ENDCHAR
STARTCHAR three
ENCODING 51
SWIDTH 600 0
DWIDTH 11 0
BBX 8 12 1 0
BITMAP
3C
7E
66
06
0E
3C
3E
07
03
C7
FE
7C
ENDCHAR
STARTCHAR four
ENCODING 52
SWIDTH 600 0
DWIDTH 11 0
BBX 8 12 1 0
BITMAP
0E
1E
3E
36
66
66
C6
FF
FF
06
1F
1F
ENDCHAR
STARTCHAR five
ENCODING 53
SWIDTH 600 0
DWIDTH 11 0
BBX 8 12 1 0
BITMAP
7F
7F
60
60
7E
7F
67
03
03
C7
FE
7C
ENDCHAR
STARTCHAR six
ENCODING 54
SWIDTH 600 0
DWIDTH 11 0
BBX 8 12 1 0
BITMAP
0F
3F
70
60
DC
FE
E7
C3
C3
E7
7E
3C
ENDCHAR
STARTCHAR seven
ENCODING 55
SWIDTH 600 0
DWIDTH 11 0
BBX 8 12 1 0
BITMAP
FF
FF
C3
06
06
06
0C
0C
0C
18
18
18
ENDCHAR
STARTCHAR eight
ENCODING 56
SWIDTH 600 0
DWIDTH 11 0
BBX 8 12 1 0
BITMAP
3C
7E
E7
C3
66
3C
7E
E7
C3
E7
7E
3C
ENDCHAR
STARTCHAR nine
ENCODING 57
SWIDTH 600 0
DWIDTH 11 0
BBX 8 12 1 0
BITMAP
3C
7E
C3
C3
C3
C7
7F
3B
03
06
FE
F8
ENDCHAR
STARTCHAR colon
ENCODING 58
SWIDTH 600 0
DWIDTH 11 0
BBX 2 8 4 0
BITMAP
C0
C0
00
00
00
00
C0
C0
ENDCHAR
STARTCHAR semicolon
ENCODING 59
SWIDTH 600 0
DWIDTH 11 0
BBX 4 11 2 -3
BITMAP
30
30
00
00
00
00
30
30
60
40
80
ENDCHAR
STARTCHAR less
ENCODING 60
SWIDTH 600 0
DWIDTH 11 0
BBX 9 9 1 1
BITMAP
0180
0780
1E00
7800
E000
7800
1E00
0780
0180
ENDCHAR
STARTCHAR equal
ENCODING 61
SWIDTH 600 0
DWIDTH 11 0
BBX 10 6 0 2
BITMAP
FFC0
FFC0
0000
0000
FFC0
FFC0
ENDCHAR
STARTCHAR greater
ENCODING 62
SWIDTH 600 0
DWIDTH 11 0
BBX 9 9 1 1
BITMAP
C000
F000
3C00
0F00
0380
0F00
3C00
F000
C000
ENDCHAR
STARTCHAR question
ENCODING 63
SWIDTH 600 0
DWIDTH 11 0
BBX 7 11 2 0
BITMAP
7C
FE
C6
06
0E
3C
30
30
00
30
30
ENDCHAR
STARTCHAR at
ENCODING 64
SWIDTH 600 0
DWIDTH 11 0
BBX 9 13 1 -1
BITMAP
3C00
6600
C300
CF00
DB00
DB00
DB00
DB00
CF80
C000
C000
6300
3E00
ENDCHAR
STARTCHAR A
ENCODING 65
SWIDTH 600 0
DWIDTH 11 0
BBX 12 11 -1 0
BITMAP
3E00
3F00
0F00
1980
1980
1980
3FC0
3FC0
30C0
F9F0
F9F0
ENDCHAR
STARTCHAR B
ENCODING 66
SWIDTH 600 0
DWIDTH 11 0
BBX 10 11 0 0
BITMAP
FE00
FF00
3180
3180
3F00
3F80
30C0
30C0
30C0
FF80
FF00
ENDCHAR
STARTCHAR C
ENCODING 67
SWIDTH 600 0
DWIDTH 11 0
BBX 10 11 0 0
BITMAP
1EC0
7FC0
71C0
E0C0
C000
C000
C000
E000
70C0
7FC0
1F00
ENDCHAR
STARTCHAR D
ENCODING 68
SWIDTH 600 0
DWIDTH 11 0
BBX 10 11 0 0
BITMAP
FE00
FF80
6380
61C0
60C0
60C0
60C0
61C0
6380
FF80
FE00
ENDCHAR
STARTCHAR E
ENCODING 69
SWIDTH 600 0
DWIDTH 11 0
BBX 10 11 0 0
BITMAP
FFC0
FFC0
30C0
36C0
3E00
3E00
3600
30C0
30C0
FFC0
FFC0
ENDCHAR
STARTCHAR F
ENCODING 70
SWIDTH 600 0
DWIDTH 11 0
BBX 10 11 0 0
BITMAP
FFC0
FFC0
30C0
36C0
3E00
3E00
3600
3000
3000
FE00
FE00
ENDCHAR
STARTCHAR G
ENCODING 71
SWIDTH 600 0
DWIDTH 11 0
BBX 11 11 0 0
BITMAP
1EC0
7FC0
71C0
E0C0
C000
C000
C7E0
E7E0
70C0
7FC0
1F80
ENDCHAR
STARTCHAR H
ENCODING 72
SWIDTH 600 0
DWIDTH 11 0
BBX 10 11 0 0
BITMAP
F3C0
F3C0
6180
6180
7F80
7F80
6180
6180
6180
F3C0
F3C0
ENDCHAR
STARTCHAR I
ENCODING 73
SWIDTH 600 0
DWIDTH 11 0
BBX 8 11 1 0
BITMAP
FF
FF
18
18
18
18
18
18
18
FF
FF
ENDCHAR
STARTCHAR J
ENCODING 74
SWIDTH 600 0
DWIDTH 11 0
BBX 10 11 0 0
BITMAP
1FC0
1FC0
0300
0300
0300
0300
C300
C300
C300
FE00
3C00
ENDCHAR
STARTCHAR K
ENCODING 75
SWIDTH 600 0
DWIDTH 11 0
BBX 11 11 0 0
BITMAP
F7C0
F7C0
6300
6600
6C00
7C00
7E00
6700
6380
F9E0
F9E0
ENDCHAR
STARTCHAR L
ENCODING 76
SWIDTH 600 0
DWIDTH 11 0
BBX 10 11 0 0
BITMAP
FC00
FC00
3000
3000
3000
3000
30C0
30C0
30C0
FFC0
FFC0
ENDCHAR
STARTCHAR M
ENCODING 77
SWIDTH 600 0
DWIDTH 11 0
BBX 10 11 0 0
BITMAP
E1C0
E1C0
7380
7380
7F80
6D80
6D80
6D80
6180
F3C0
F3C0
ENDCHAR
STARTCHAR N
ENCODING 78
SWIDTH 600 0
DWIDTH 11 0
BBX 10 11 0 0
BITMAP
E7C0
F7C0
7180
7980
6980
6D80
6580
6780
6380
FB80
F980
ENDCHAR
STARTCHAR O
ENCODING 79
SWIDTH 600 0
DWIDTH 11 0
BBX 10 11 0 0
BITMAP
1E00
7F80
7380
E1C0
C0C0
C0C0
C0C0
E1C0
7380
7F80
1E00
ENDCHAR
STARTCHAR P
ENCODING 80
SWIDTH 600 0
DWIDTH 11 0
BBX 10 11 0 0
BITMAP
FF00
FF80
61C0
60C0
61C0
7F80
7F00
6000
6000
FC00
FC00
ENDCHAR
STARTCHAR Q
ENCODING 81
SWIDTH 600 0
DWIDTH 11 0
BBX 10 13 0 -2
BITMAP
1E00
7F80
7380
E1C0
C0C0
C0C0
C0C0
E1C0
7380
7F80
1E40
3FC0
3380
ENDCHAR
STARTCHAR R
ENCODING 82
SWIDTH 600 0
DWIDTH 11 0
BBX 11 11 0 0
BITMAP
FF00
FF80
61C0
60C0
61C0
7F80
7F00
6380
61C0
FCE0
FCE0
ENDCHAR
STARTCHAR S
ENCODING 83
SWIDTH 600 0
DWIDTH 11 0
BBX 9 11 1 0
BITMAP
3D80
FF80
C380
C180
F800
7F00
0F80
C180
E180
FF00
DE00
ENDCHAR
STARTCHAR T
ENCODING 84
SWIDTH 600 0
DWIDTH 11 0
BBX 10 11 0 0
BITMAP
FFC0
FFC0
CCC0
CCC0
CCC0
0C00
0C00
0C00
0C00
7F80
7F80
ENDCHAR
STARTCHAR U
ENCODING 85
SWIDTH 600 0
DWIDTH 11 0
BBX 10 11 0 0
BITMAP
F7C0
F7C0
6180
6180
6180
6180
6180
6180
7380
3F00
1E00
ENDCHAR
STARTCHAR V
ENCODING 86
SWIDTH 600 0
DWIDTH 11 0
BBX 12 11 -1 0
BITMAP
F9F0
F9F0
6060
6060
30C0
30C0
1980
1980
0F00
0F00
0600
ENDCHAR
STARTCHAR W
ENCODING 87
SWIDTH 600 0
DWIDTH 11 0
BBX 12 11 -1 0
BITMAP
F9F0
F9F0
6060
6660
6660
6F60
6F60
39C0
39C0
30C0
30C0
ENDCHAR
STARTCHAR X
ENCODING 88
SWIDTH 600 0
DWIDTH 11 0
BBX 10 11 0 0
BITMAP
F3C0
F3C0
6180
3300
1E00
0C00
1E00
3300
6180
F3C0
F3C0
ENDCHAR
STARTCHAR Y
ENCODING 89
SWIDTH 600 0
DWIDTH 11 0
BBX 10 11 0 0
BITMAP
F3C0
F3C0
6180
3300
3F00
1E00
0C00
0C00
0C00
3F00
3F00
ENDCHAR
STARTCHAR Z
ENCODING 90
SWIDTH 600 0
DWIDTH 11 0
BBX 8 11 1 0
BITMAP
FF
FF
C7
CE
0C
18
30
73
E3
FF
FF
ENDCHAR
STARTCHAR bracketleft
ENCODING 91
SWIDTH 600 0
DWIDTH 11 0
BBX 4 15 4 -3
BITMAP
F0
F0
C0
C0
C0
C0
C0
C0
C0
C0
C0
C0
C0
F0
F0
ENDCHAR
STARTCHAR backslash
ENCODING 92
SWIDTH 600 0
DWIDTH 11 0
BBX 9 16 1 -3
BITMAP
C000
C000
6000
6000
3000
3000
1800
1800
0C00
0C00
0600
0600
0300
0300
0180
0180
ENDCHAR
STARTCHAR bracketright
ENCODING 93
SWIDTH 600 0
DWIDTH 11 0
BBX 4 15 2 -3
BITMAP
F0
F0
30
30
30
30
30
30
30
30
30
30
30
F0
F0
ENDCHAR
STARTCHAR asciicircum
ENCODING 94
SWIDTH 600 0
DWIDTH 11 0
BBX 8 7 1 5
BITMAP
18
3C
3C
66
66
C3
C3
ENDCHAR
STARTCHAR underscore
ENCODING 95
SWIDTH 600 0
DWIDTH 11 0
BBX 11 2 0 -4
BITMAP
FFE0
FFE0
ENDCHAR
STARTCHAR grave
ENCODING 96
SWIDTH 600 0
DWIDTH 11 0
BBX 4 3 3 9
BITMAP
C0
60
30
ENDCHAR
STARTCHAR a
ENCODING 97
SWIDTH 600 0
DWIDTH 11 0
BBX 10 9 0 0
BITMAP
3F00
7F80
6180
0180
7F80
FF80
C180
FFC0
7DC0
ENDCHAR
STARTCHAR b
ENCODING 98
SWIDTH 600 0
DWIDTH 11 0
BBX 10 12 0 0
BITMAP
E000
E000
6000
6F00
7F80
71C0
60C0
60C0
60C0
71C0
FF80
EF00
ENDCHAR
STARTCHAR c
ENCODING 99
SWIDTH 600 0
DWIDTH 11 0
BBX 10 9 0 0
BITMAP
3D80
7F80
E380
C180
C000
C000
E1C0
7FC0
3F00
ENDCHAR
STARTCHAR d
ENCODING 100
SWIDTH 600 0
DWIDTH 11 0
BBX 10 12 0 0
BITMAP
0380
0380
0180
3D80
7F80
E380
C180
C180
C180
E380
7FC0
3DC0
ENDCHAR
STARTCHAR e
ENCODING 101
SWIDTH 600 0
DWIDTH 11 0
BBX 10 9 0 0
BITMAP
1E00
7F80
E1C0
C0C0
FFC0
FFC0
E000
7FC0
1FC0
ENDCHAR
STARTCHAR f
ENCODING 102
SWIDTH 600 0
DWIDTH 11 0
BBX 9 12 1 0
BITMAP
1F80
3F80
3000
FF00
FF00
3000
3000
3000
3000
3000
FF00
FF00
ENDCHAR
STARTCHAR g
ENCODING 103
SWIDTH 600 0
DWIDTH 11 0
BBX 10 13 0 -4
BITMAP
3DC0
7FC0
E380
C180
C180
C180
E380
7F80
3D80
0180
0380
3F00
3E00
ENDCHAR
STARTCHAR h
ENCODING 104
SWIDTH 600 0
DWIDTH 11 0
BBX 10 12 0 0
BITMAP
E000
E000
6000
6F00
7F80
7180
6180
6180
6180
6180
F3C0
F3C0
ENDCHAR
STARTCHAR i
ENCODING 105
SWIDTH 600 0
DWIDTH 11 0
BBX 8 12 1 0
BITMAP
18
18
00
F8
F8
18
18
18
18
18
FF
FF
ENDCHAR
STARTCHAR j
ENCODING 106
SWIDTH 600 0
DWIDTH 11 0
BBX 7 16 1 -4
BITMAP
0C
0C
00
FE
FE
06
06
06
06
06
06
06
06
0E
FC
F8
ENDCHAR
STARTCHAR k
ENCODING 107
SWIDTH 600 0
DWIDTH 11 0
BBX 10 12 0 0
BITMAP
E000
E000
6000
6780
6780
6E00
7C00
7C00
6E00
6700
E3C0
E3C0
ENDCHAR
STARTCHAR l
ENCODING 108
SWIDTH 600 0
DWIDTH 11 0
BBX 8 12 1 0
BITMAP
F8
F8
18
18
18
18
18
18
18
18
FF
FF
ENDCHAR
STARTCHAR m
ENCODING 109
SWIDTH 600 0
DWIDTH 11 0
BBX 12 9 -1 0
BITMAP
EDC0
FFE0
7760
6660
6660
6660
6660
F770
F770
ENDCHAR
STARTCHAR n
ENCODING 110
SWIDTH 600 0
DWIDTH 11 0
BBX 10 9 0 0
BITMAP
EF00
FF80
7180
6180
6180
6180
6180
F3C0
F3C0
ENDCHAR
STARTCHAR o
ENCODING 111
SWIDTH 600 0
DWIDTH 11 0
BBX 10 9 0 0
BITMAP
1E00
7F80
E1C0
C0C0
C0C0
C0C0
E1C0
7F80
1E00
ENDCHAR
STARTCHAR p
ENCODING 112
SWIDTH 600 0
DWIDTH 11 0
BBX 10 13 0 -4
BITMAP
EF00
FF80
71C0
60C0
60C0
60C0
71C0
7F80
6F00
6000
6000
F800
F800
ENDCHAR
STARTCHAR q
ENCODING 113
SWIDTH 600 0
DWIDTH 11 0
BBX 10 13 0 -4
BITMAP
3DC0
7FC0
E380
C180
C180
C180
E380
7F80
3D80
0180
0180
07C0
07C0
ENDCHAR
STARTCHAR r
ENCODING 114
SWIDTH 600 0
DWIDTH 11 0
BBX 10 9 0 0
BITMAP
F380
FFC0
3CC0
3800
3000
3000
3000
FF00
FF00
ENDCHAR
STARTCHAR s
ENCODING 115
SWIDTH 600 0
DWIDTH 11 0
BBX 8 9 1 0
BITMAP
7F
FF
C3
F0
7E
1F
C3
FF
FE
ENDCHAR
STARTCHAR t
ENCODING 116
SWIDTH 600 0
DWIDTH 11 0
BBX 10 12 0 0
BITMAP
3000
3000
3000
FF00
FF00
3000
3000
3000
3000
30C0
3FC0
1F00
ENDCHAR
STARTCHAR u
ENCODING 117
SWIDTH 600 0
DWIDTH 11 0
BBX 10 9 0 0
BITMAP
E780
E780
6180
6180
6180
6180
6380
7FC0
3DC0
ENDCHAR
STARTCHAR v
ENCODING 118
SWIDTH 600 0
DWIDTH 11 0
BBX 10 9 0 0
BITMAP
F3C0
F3C0
6180
6180
3300
3300
1E00
1E00
0C00
ENDCHAR
STARTCHAR w
ENCODING 119
SWIDTH 600 0
DWIDTH 11 0
BBX 11 9 0 0
BITMAP
F1E0
F1E0
64C0
6EC0
6EC0
7BC0
3B80
3180
3180
ENDCHAR
STARTCHAR x
ENCODING 120
SWIDTH 600 0
DWIDTH 11 0
BBX 11 9 0 0
BITMAP
FBE0
FBE0
3180
1B00
0E00
1B00
3180
FBE0
FBE0
ENDCHAR
STARTCHAR y
ENCODING 121
SWIDTH 600 0
DWIDTH 11 0
BBX 10 13 0 -4
BITMAP
F3C0
F3C0
6180
6180
3300
3300
1E00
1E00
0C00
1800
3800
FC00
FC00
ENDCHAR
STARTCHAR z
ENCODING 122
SWIDTH 600 0
DWIDTH 11 0
BBX 8 9 1 0
BITMAP
FF
FF
C6
0C
18
30
63
FF
FF
ENDCHAR
STARTCHAR braceleft
ENCODING 123
SWIDTH 600 0
DWIDTH 11 0
BBX 4 15 3 -3
BITMAP
30
60
60
60
60
60
C0
60
60
60
60
60
60
60
30
ENDCHAR
STARTCHAR bar
ENCODING 124
SWIDTH 600 0
DWIDTH 11 0
BBX 2 14 4 -3
BITMAP
C0
C0
C0
C0
C0
C0
C0
C0
C0
C0
C0
C0
C0
C0
ENDCHAR
STARTCHAR braceright
ENCODING 125
SWIDTH 600 0
DWIDTH 11 0
BBX 4 15 3 -3
BITMAP
C0
60
60
60
60
60
30
60
60
60
60
60
60
60
C0
ENDCHAR
STARTCHAR asciitilde
ENCODING 126
SWIDTH 600 0
DWIDTH 11 0
BBX 8 3 1 4
BITMAP
73
FF
DE
ENDCHAR
STARTCHAR space
ENCODING 160
SWIDTH 600 0
DWIDTH 11 0
BBX 1 1 0 0
BITMAP
00
ENDCHAR
STARTCHAR exclamdown
ENCODING 161
SWIDTH 600 0
DWIDTH 11 0
BBX 3 12 4 -4
BITMAP
C0
C0
00
C0
C0
E0
E0
E0
E0
E0
E0
E0
ENDCHAR
STARTCHAR cent
ENCODING 162
SWIDTH 600 0
DWIDTH 11 0
BBX 8 13 1 0
BITMAP
18
18
18
3F
7F
E3
C0
C0
E3
7F
3E
18
18
ENDCHAR
STARTCHAR sterling
ENCODING 163
SWIDTH 600 0
DWIDTH 11 0
BBX 10 11 0 0
BITMAP
3E00
7F00
6300
6000
3000
FC00
FC00
3000
60C0
FFC0
FF80
ENDCHAR
STARTCHAR currency
ENCODING 164
SWIDTH 600 0
DWIDTH 11 0
BBX 8 9 1 1
BITMAP
C3
FF
7E
C3
C3
C3
7E
FF
C3
ENDCHAR
STARTCHAR yen
ENCODING 165
SWIDTH 600 0
DWIDTH 11 0
BBX 10 11 0 0
BITMAP
F3C0
F3C0
6180
3300
1E00
3F00
0C00
3F00
0C00
3F00
3F00
ENDCHAR
STARTCHAR brokenbar
ENCODING 166
SWIDTH 600 0
DWIDTH 11 0
BBX 2 16 4 -3
BITMAP
C0
C0
C0
C0
C0
C0
C0
00
00
C0
C0
C0
C0
C0
C0
C0
ENDCHAR
STARTCHAR section
ENCODING 167
SWIDTH 600 0
DWIDTH 11 0
BBX 8 14 1 -2
BITMAP
3F
73
63
60
F8
DE
C7
E3
7B
1F
06
C6
CE
FC
ENDCHAR
STARTCHAR dieresis
ENCODING 168
SWIDTH 600 0
DWIDTH 11 0
BBX 6 2 2 9
BITMAP
CC
CC
ENDCHAR
STARTCHAR copyright
ENCODING 169
SWIDTH 600 0
DWIDTH 11 0
BBX 11 12 0 0
BITMAP
0E00
3F80
71C0
6EC0
DB60
D860
D860
DB60
6EC0
71C0
3F80
0E00
ENDCHAR
STARTCHAR ordfeminine
ENCODING 170
SWIDTH 600 0
DWIDTH 11 0
BBX 6 8 2 3
BITMAP
70
18
78
D8
D8
6C
00
FC
ENDCHAR
STARTCHAR guillemotleft
ENCODING 171
SWIDTH 600 0
DWIDTH 11 0
BBX 9 7 0 1
BITMAP
1980
3300
6600
CC00
6600
3300
1980
ENDCHAR
STARTCHAR logicalnot
ENCODING 172
SWIDTH 600 0
DWIDTH 11 0
BBX 9 4 1 4
BITMAP
FF80
FF80
0180
0180
ENDCHAR
STARTCHAR hyphen
ENCODING 173
SWIDTH 600 0
DWIDTH 11 0
BBX 8 2 1 4
BITMAP
FF
FF
ENDCHAR
STARTCHAR registered
ENCODING 174
SWIDTH 600 0
DWIDTH 11 0
BBX 11 12 0 0
BITMAP
0E00
3F80
71C0
7EC0
DB60
DB60
DE60
DF60
7BE0
70C0
3F80
0E00
ENDCHAR
STARTCHAR macron
ENCODING 175
SWIDTH 600 0
DWIDTH 11 0
BBX 5 2 2 9
BITMAP
F8
F8
ENDCHAR
STARTCHAR degree
ENCODING 176
SWIDTH 600 0
DWIDTH 11 0
BBX 5 5 2 6
BITMAP
70
88
88
88
70
ENDCHAR
STARTCHAR plusminus
ENCODING 177
SWIDTH 600 0
DWIDTH 11 0
BBX 10 10 0 0
BITMAP
0C00
0C00
0C00
FFC0
FFC0
0C00
0C00
0000
FFC0
FFC0
ENDCHAR
STARTCHAR twosuperior
ENCODING 178
SWIDTH 600 0
DWIDTH 11 0
BBX 6 7 2 5
BITMAP
78
CC
0C
18
30
64
FC
ENDCHAR
STARTCHAR threesuperior
ENCODING 179
SWIDTH 600 0
DWIDTH 11 0
BBX 6 7 2 5
BITMAP
78
CC
0C
38
0C
CC
78
ENDCHAR
STARTCHAR acute
ENCODING 180
SWIDTH 600 0
DWIDTH 11 0
BBX 4 3 4 9
BITMAP
30
60
C0
ENDCHAR
STARTCHAR mu
ENCODING 181
SWIDTH 600 0
DWIDTH 11 0
BBX 10 13 0 -4
BITMAP
E780
E780
6180
6180
6180
6180
6380
7FC0
7DC0
6000
6000
6000
6000
ENDCHAR
STARTCHAR paragraph
ENCODING 182
SWIDTH 600 0
DWIDTH 11 0
BBX 8 14 1 -2
BITMAP
3F
6A
CA
CA
CA
6A
3A
0A
0A
0A
0A
0A
0A
3B
ENDCHAR
STARTCHAR periodcentered
ENCODING 183
SWIDTH 600 0
DWIDTH 11 0
BBX 2 3 4 3
BITMAP
C0
C0
C0
ENDCHAR
STARTCHAR cedilla
ENCODING 184
SWIDTH 600 0
DWIDTH 11 0
BBX 4 5 3 -4
BITMAP
40
60
30
F0
E0
ENDCHAR
STARTCHAR onesuperior
ENCODING 185
SWIDTH 600 0
DWIDTH 11 0
BBX 6 7 2 5
BITMAP
30
F0
30
30
30
30
FC
ENDCHAR
STARTCHAR ordmasculine
ENCODING 186
SWIDTH 600 0
DWIDTH 11 0
BBX 6 8 2 3
BITMAP
78
CC
84
84
CC
78
00
FC
ENDCHAR
STARTCHAR guillemotright
ENCODING 187
SWIDTH 600 0
DWIDTH 11 0
BBX 9 7 1 1
BITMAP
CC00
6600
3300
1980
3300
6600
CC00
ENDCHAR
STARTCHAR onequarter
ENCODING 188
SWIDTH 600 0
DWIDTH 11 0
BBX 11 12 0 0
BITMAP
3000
F020
3060
30C0
3180
3340
FEC0
0DC0
1AC0
34C0
67E0
40C0
ENDCHAR
STARTCHAR onehalf
ENCODING 189
SWIDTH 600 0
DWIDTH 11 0
BBX 11 12 0 0
BITMAP
3000
F020
3060
30C0
3180
33C0
FF60
0C60
18C0
3180
6320
47E0
ENDCHAR
STARTCHAR threequarters
ENCODING 190
SWIDTH 600 0
DWIDTH 11 0
BBX 11 12 0 0
BITMAP
7800
CC20
0C60
38C0
0D80
CF40
7EC0
0DC0
1AC0
34C0
67E0
40C0
ENDCHAR
STARTCHAR questiondown
ENCODING 191
SWIDTH 600 0
DWIDTH 11 0
BBX 7 12 2 -4
BITMAP
18
18
00
18
18
18
78
E0
C0
C6
FE
7C
ENDCHAR
STARTCHAR Agrave
ENCODING 192
SWIDTH 600 0
DWIDTH 11 0
BBX 12 15 -1 0
BITMAP
1800
0C00
0600
0000
3E00
3F00
0F00
0F00
1980
1980
3FC0
3FC0
30C0
F9F0
F9F0
ENDCHAR
STARTCHAR Aacute
ENCODING 193
SWIDTH 600 0
DWIDTH 11 0
BBX 12 15 -1 0
BITMAP
0300
0600
0C00
0000
3E00
3F00
0F00
0F00
1980
1980
3FC0
3FC0
30C0
F9F0
F9F0
ENDCHAR
STARTCHAR Acircumflex
ENCODING 194
SWIDTH 600 0
DWIDTH 11 0
BBX 12 15 -1 0
BITMAP
0600
0F00
1980
0000
3E00
3F00
0F00
0F00
1980
1980
3FC0
3FC0
30C0
F9F0
F9F0
ENDCHAR
STARTCHAR Atilde
ENCODING 195
SWIDTH 600 0
DWIDTH 11 0
BBX 12 14 -1 0
BITMAP
1D80
3700
0000
3E00
3F00
0F00
0F00
1980
1980
3FC0
3FC0
30C0
F9F0
F9F0
ENDCHAR
STARTCHAR Adieresis
ENCODING 196
SWIDTH 600 0
DWIDTH 11 0
BBX 12 14 -1 0
BITMAP
1980
1980
0000
3E00
3F00
0F00
0F00
1980
1980
3FC0
3FC0
30C0
F9F0
F9F0
ENDCHAR
STARTCHAR Aring
ENCODING 197
SWIDTH 600 0
DWIDTH 11 0
BBX 12 15 -1 0
BITMAP
0600
0900
0900
0600
3E00
3F00
0F00
0F00
1980
1980
3FC0
3FC0
30C0
F9F0
F9F0
ENDCHAR
STARTCHAR AE
ENCODING 198
SWIDTH 600 0
DWIDTH 11 0
BBX 11 11 0 0
BITMAP
3FE0
3FE0
1E60
3600
37C0
27C0
7E00
7E00
6660
EFE0
EFE0
ENDCHAR
STARTCHAR Ccedilla
ENCODING 199
SWIDTH 600 0
DWIDTH 11 0
BBX 10 16 0 -5
BITMAP
1EC0
7FC0
61C0
C0C0
C000
C000
C000
C000
60C0
7FC0
3F00
0800
0C00
0200
1E00
1C00
ENDCHAR
STARTCHAR Egrave
ENCODING 200
SWIDTH 600 0
DWIDTH 11 0
BBX 10 15 0 0
BITMAP
1800
0C00
0600
0000
FFC0
FFC0
30C0
36C0
3E00
3E00
3600
30C0
30C0
FFC0
FFC0
ENDCHAR
STARTCHAR Eacute
ENCODING 201
SWIDTH 600 0
DWIDTH 11 0
BBX 10 15 0 0
BITMAP
0300
0600
0C00
0000
FFC0
FFC0
30C0
36C0
3E00
3E00
3600
30C0
30C0
FFC0
FFC0
ENDCHAR
STARTCHAR Ecircumflex
ENCODING 202
SWIDTH 600 0
DWIDTH 11 0
BBX 10 15 0 0
BITMAP
0C00
1E00
3300
0000
FFC0
FFC0
30C0
36C0
3E00
3E00
3600
30C0
30C0
FFC0
FFC0
ENDCHAR
STARTCHAR Edieresis
ENCODING 203
SWIDTH 600 0
DWIDTH 11 0
BBX 10 14 0 0
BITMAP
3300
3300
0000
FFC0
FFC0
30C0
36C0
3E00
3E00
3600
30C0
30C0
FFC0
FFC0
ENDCHAR
STARTCHAR Igrave
ENCODING 204
SWIDTH 600 0
DWIDTH 11 0
BBX 8 15 1 0
BITMAP
60
30
18
00
FF
FF
18
18
18
18
18
18
18
FF
FF
ENDCHAR
STARTCHAR Iacute
ENCODING 205
SWIDTH 600 0
DWIDTH 11 0
BBX 8 15 1 0
BITMAP
06
0C
18
00
FF
FF
18
18
18
18
18
18
18
FF
FF
ENDCHAR
STARTCHAR Icircumflex
ENCODING 206
SWIDTH 600 0
DWIDTH 11 0
BBX 8 15 1 0
BITMAP
18
3C
66
00
FF
FF
18
18
18
18
18
18
18
FF
FF
ENDCHAR
STARTCHAR Idieresis
ENCODING 207
SWIDTH 600 0
DWIDTH 11 0
BBX 8 14 1 0
BITMAP
66
66
00
FF
FF
18
18
18
18
18
18
18
FF
FF
ENDCHAR
STARTCHAR Eth
ENCODING 208
SWIDTH 600 0
DWIDTH 11 0
BBX 10 11 0 0
BITMAP
FE00
FF80
6180
60C0
F8C0
F8C0
60C0
60C0
6180
FF80
FE00
ENDCHAR
STARTCHAR Ntilde
ENCODING 209
SWIDTH 600 0
DWIDTH 11 0
BBX 10 14 0 0
BITMAP
3B00
6E00
0000
E7C0
F7C0
7180
7980
6980
6D80
6580
6780
6380
FB80
F980
ENDCHAR
STARTCHAR Ograve
ENCODING 210
SWIDTH 600 0
DWIDTH 11 0
BBX 10 15 0 0
BITMAP
1800
0C00
0600
0000
1E00
7F80
6180
C0C0
C0C0
C0C0
C0C0
C0C0
6180
7F80
1E00
ENDCHAR
STARTCHAR Oacute
ENCODING 211
SWIDTH 600 0
DWIDTH 11 0
BBX 10 15 0 0
BITMAP
0300
0600
0C00
0000
1E00
7F80
6180
C0C0
C0C0
C0C0
C0C0
C0C0
6180
7F80
1E00
ENDCHAR
STARTCHAR Ocircumflex
ENCODING 212
SWIDTH 600 0
DWIDTH 11 0
BBX 10 15 0 0
BITMAP
0C00
1E00
3300
0000
1E00
7F80
6180
C0C0
C0C0
C0C0
C0C0
C0C0
6180
7F80
1E00
ENDCHAR
STARTCHAR Otilde
ENCODING 213
SWIDTH 600 0
DWIDTH 11 0
BBX 10 14 0 0
BITMAP
3B00
6E00
0000
1E00
7F80
6180
C0C0
C0C0
C0C0
C0C0
C0C0
6180
7F80
1E00
ENDCHAR
STARTCHAR Odieresis
ENCODING 214
SWIDTH 600 0
DWIDTH 11 0
BBX 10 14 0 0
BITMAP
3300
3300
0000
1E00
7F80
6180
C0C0
C0C0
C0C0
C0C0
C0C0
6180
7F80
1E00
ENDCHAR
STARTCHAR multiply
ENCODING 215
SWIDTH 600 0
DWIDTH 11 0
BBX 10 10 0 0
BITMAP
4080
E1C0
7380
3700
1E00
1E00
3B00
7380
E1C0
4080
ENDCHAR
STARTCHAR Oslash
ENCODING 216
SWIDTH 600 0
DWIDTH 11 0
BBX 12 13 -1 -1
BITMAP
0030
0F60
3FC0
31C0
6360
6660
6660
6C60
7860
30C0
3FC0
6F00
C000
ENDCHAR
STARTCHAR Ugrave
ENCODING 217
SWIDTH 600 0
DWIDTH 11 0
BBX 10 15 0 0
BITMAP
3000
1800
0C00
0000
FBC0
FBC0
6180
6180
6180
6180
6180
6180
7380
3F00
1E00
ENDCHAR
STARTCHAR Uacute
ENCODING 218
SWIDTH 600 0
DWIDTH 11 0
BBX 10 15 0 0
BITMAP
0300
0600
0C00
0000
FBC0
FBC0
6180
6180
6180
6180
6180
6180
7380
3F00
1E00
ENDCHAR
STARTCHAR Ucircumflex
ENCODING 219
SWIDTH 600 0
DWIDTH 11 0
BBX 10 15 0 0
BITMAP
0C00
1E00
3300
0000
FBC0
FBC0
6180
6180
6180
6180
6180
6180
7380
3F00
1E00
ENDCHAR
STARTCHAR Udieresis
ENCODING 220
SWIDTH 600 0
DWIDTH 11 0
BBX 10 14 0 0
BITMAP
3300
3300
0000
FBC0
FBC0
6180
6180
6180
6180
6180
6180
7380
3F00
1E00
ENDCHAR
STARTCHAR Yacute
ENCODING 221
SWIDTH 600 0
DWIDTH 11 0
BBX 10 15 0 0
BITMAP
0300
0600
0C00
0000
F3C0
F3C0
6180
3300
3F00
1E00
0C00
0C00
0C00
3F00
3F00
ENDCHAR
STARTCHAR Thorn
ENCODING 222
SWIDTH 600 0
DWIDTH 11 0
BBX 10 11 0 0
BITMAP
F000
E000
7F00
7F80
61C0
60C0
61C0
7F80
7F00
E000
F000
ENDCHAR
STARTCHAR germandbls
ENCODING 223
SWIDTH 600 0
DWIDTH 11 0
BBX 9 12 1 0
BITMAP
3C00
7E00
6300
6300
6700
6E00
6700
6180
6180
6980
EF80
E700
ENDCHAR
STARTCHAR agrave
ENCODING 224
SWIDTH 600 0
DWIDTH 11 0
BBX 10 13 0 0
BITMAP
1800
0C00
0600
0000
3F00
7F80
6180
0180
7F80
FF80
C180
FFC0
7DC0
ENDCHAR
STARTCHAR aacute
ENCODING 225
SWIDTH 600 0
DWIDTH 11 0
BBX 10 13 0 0
BITMAP
0300
0600
0C00
0000
3F00
7F80
6180
0180
7F80
FF80
C180
FFC0
7DC0
ENDCHAR
STARTCHAR acircumflex
ENCODING 226
SWIDTH 600 0
DWIDTH 11 0
BBX 10 13 0 0
BITMAP
0C00
1E00
3300
0000
3F00
7F80
6180
0180
7F80
FF80
C180
FFC0
7DC0
ENDCHAR
STARTCHAR atilde
ENCODING 227
SWIDTH 600 0
DWIDTH 11 0
BBX 10 12 0 0
BITMAP
3B00
6E00
0000
3F00
7F80
6180
0180
7F80
FF80
C180
FFC0
7DC0
ENDCHAR
STARTCHAR adieresis
ENCODING 228
SWIDTH 600 0
DWIDTH 11 0
BBX 10 12 0 0
BITMAP
3300
3300
0000
3F00
7F80
6180
0180
7F80
FF80
C180
FFC0
7DC0
ENDCHAR
STARTCHAR aring
ENCODING 229
SWIDTH 600 0
DWIDTH 11 0
BBX 10 14 0 0
BITMAP
0C00
1200
1200
0C00
0000
3F00
7F80
6180
0180
7F80
FF80
C180
FFC0
7DC0
ENDCHAR
STARTCHAR ae
ENCODING 230
SWIDTH 600 0
DWIDTH 11 0
BBX 10 9 0 0
BITMAP
7B80
FFC0
CCC0
0CC0
7FC0
FFC0
CC00
FFC0
7B80
ENDCHAR
STARTCHAR ccedilla
ENCODING 231
SWIDTH 600 0
DWIDTH 11 0
BBX 10 14 0 -5
BITMAP
3D80
7F80
E380
C180
C000
C000
E1C0
7FC0
3F00
0800
0C00
0600
1E00
1C00
ENDCHAR
STARTCHAR egrave
ENCODING 232
SWIDTH 600 0
DWIDTH 11 0
BBX 10 13 0 0
BITMAP
1800
0C00
0600
0000
1E00
7F80
E1C0
C0C0
FFC0
FFC0
E000
7FC0
1FC0
ENDCHAR
STARTCHAR eacute
ENCODING 233
SWIDTH 600 0
DWIDTH 11 0
BBX 10 13 0 0
BITMAP
0300
0600
0C00
0000
1E00
7F80
E1C0
C0C0
FFC0
FFC0
E000
7FC0
1FC0
ENDCHAR
STARTCHAR ecircumflex
ENCODING 234
SWIDTH 600 0
DWIDTH 11 0
BBX 10 13 0 0
BITMAP
0C00
1E00
3300
0000
1E00
7F80
E1C0
C0C0
FFC0
FFC0
E000
7FC0
1FC0
ENDCHAR
STARTCHAR edieresis
ENCODING 235
SWIDTH 600 0
DWIDTH 11 0
BBX 10 12 0 0
BITMAP
3300
3300
0000
1E00
7F80
E1C0
C0C0
FFC0
FFC0
E000
7FC0
1FC0
ENDCHAR
STARTCHAR igrave
ENCODING 236
SWIDTH 600 0
DWIDTH 11 0
BBX 8 13 1 0
BITMAP
30
18
0C
00
F8
F8
18
18
18
18
18
FF
FF
ENDCHAR
STARTCHAR iacute
ENCODING 237
SWIDTH 600 0
DWIDTH 11 0
BBX 8 13 1 0
BITMAP
0C
18
30
00
F8
F8
18
18
18
18
18
FF
FF
ENDCHAR
STARTCHAR icircumflex
ENCODING 238
SWIDTH 600 0
DWIDTH 11 0
BBX 8 13 1 0
BITMAP
18
3C
66
00
F8
F8
18
18
18
18
18
FF
FF
ENDCHAR
STARTCHAR idieresis
ENCODING 239
SWIDTH 600 0
DWIDTH 11 0
BBX 8 12 1 0
BITMAP
CC
CC
00
F8
F8
18
18
18
18
18
FF
FF
ENDCHAR
STARTCHAR eth
ENCODING 240
SWIDTH 600 0
DWIDTH 11 0
BBX 10 13 0 0
BITMAP
E180
FB80
3E00
7700
C380
3F80
61C0
C0C0
C0C0
C0C0
E1C0
7F80
1E00
ENDCHAR
STARTCHAR ntilde
ENCODING 241
SWIDTH 600 0
DWIDTH 11 0
BBX 10 12 0 0
BITMAP
3B00
6E00
0000
EF00
FF80
7180
6180
6180
6180
6180
F3C0
F3C0
ENDCHAR
STARTCHAR ograve
ENCODING 242
SWIDTH 600 0
DWIDTH 11 0
BBX 10 13 0 0
BITMAP
1800
0C00
0600
0000
1E00
7F80
E1C0
C0C0
C0C0
C0C0
E1C0
7F80
1E00
ENDCHAR
STARTCHAR oacute
ENCODING 243
SWIDTH 600 0
DWIDTH 11 0
BBX 10 13 0 0
BITMAP
0300
0600
0C00
0000
1E00
7F80
E1C0
C0C0
C0C0
C0C0
E1C0
7F80
1E00
ENDCHAR
STARTCHAR ocircumflex
ENCODING 244
SWIDTH 600 0
DWIDTH 11 0
BBX 10 13 0 0
BITMAP
0C00
1E00
3300
0000
1E00
7F80
E1C0
C0C0
C0C0
C0C0
E1C0
7F80
1E00
ENDCHAR
STARTCHAR otilde
ENCODING 245
SWIDTH 600 0
DWIDTH 11 0
BBX 10 12 0 0
BITMAP
3B00
6E00
0000
1E00
7F80
E1C0
C0C0
C0C0
C0C0
E1C0
7F80
1E00
ENDCHAR
STARTCHAR odieresis
ENCODING 246
SWIDTH 600 0
DWIDTH 11 0
BBX 10 12 0 0
BITMAP
3300
3300
0000
1E00
7F80
E1C0
C0C0
C0C0
C0C0
E1C0
7F80
1E00
ENDCHAR
STARTCHAR divide
ENCODING 247
SWIDTH 600 0
DWIDTH 11 0
BBX 10 10 0 0
BITMAP
0C00
0C00
0000
0000
FFC0
FFC0
0000
0000
0C00
0C00
ENDCHAR
STARTCHAR oslash
ENCODING 248
SWIDTH 600 0
DWIDTH 11 0
BBX 12 11 -1 -1
BITMAP
0030
0F60
3FC0
71E0
6360
6660
6C60
78E0
3FC0
6F00
C000
ENDCHAR
STARTCHAR ugrave
ENCODING 249
SWIDTH 600 0
DWIDTH 11 0
BBX 10 13 0 0
BITMAP
1800
0C00
0600
0000
E780
E780
6180
6180
6180
6180
6380
7FC0
3DC0
ENDCHAR
STARTCHAR uacute
ENCODING 250
SWIDTH 600 0
DWIDTH 11 0
BBX 10 13 0 0
BITMAP
0600
0C00
1800
0000
E780
E780
6180
6180
6180
6180
6380
7FC0
3DC0
ENDCHAR
STARTCHAR ucircumflex
ENCODING 251
SWIDTH 600 0
DWIDTH 11 0
BBX 10 13 0 0
BITMAP
0C00
1E00
3300
0000
E780
E780
6180
6180
6180
6180
6380
7FC0
3DC0
ENDCHAR
STARTCHAR udieresis
ENCODING 252
SWIDTH 600 0
DWIDTH 11 0
BBX 10 12 0 0
BITMAP
3300
3300
0000
E780
E780
6180
6180
6180
6180
6380
7FC0
3DC0
ENDCHAR
STARTCHAR yacute
ENCODING 253
SWIDTH 600 0
DWIDTH 11 0
BBX 10 17 0 -4
BITMAP
0300
0600
0C00
0000
F3C0
F3C0
6180
6180
3300
3300
1E00
1E00
0C00
1800
3800
FC00
FC00
ENDCHAR
STARTCHAR thorn
ENCODING 254
SWIDTH 600 0
DWIDTH 11 0
BBX 10 16 0 -4
BITMAP
E000
E000
6000
6F00
7F80
71C0
60C0
60C0
60C0
71C0
7F80
6F00
6000
6000
F800
F800
ENDCHAR
STARTCHAR ydieresis
ENCODING 255
SWIDTH 600 0
DWIDTH 11 0
BBX 10 16 0 -4
BITMAP
3300
3300
0000
F3C0
F3C0
6180
6180
3300
3300
1E00
1E00
0C00
1800
3800
FC00
FC00
ENDCHAR
STARTCHAR Amacron
ENCODING 256
SWIDTH 600 0
DWIDTH 11 0
BBX 12 14 -1 0
BITMAP
1F00
1F00
0000
3E00
3F00
0F00
1980
1980
1980
3FC0
3FC0
30C0
F9F0
F9F0
ENDCHAR
STARTCHAR amacron
ENCODING 257
SWIDTH 600 0
DWIDTH 11 0
BBX 10 12 0 0
BITMAP
1F00
1F00
0000
3F00
7F80
6180
0180
7F80
FF80
C180
FFC0
7DC0
ENDCHAR
STARTCHAR Abreve
ENCODING 258
SWIDTH 600 0
DWIDTH 11 0
BBX 12 14 -1 0
BITMAP
3300
1E00
0000
3E00
3F00
0F00
1980
1980
1980
3FC0
3FC0
30C0
F9F0
F9F0
ENDCHAR
STARTCHAR abreve
ENCODING 259
SWIDTH 600 0
DWIDTH 11 0
BBX 10 12 0 0
BITMAP
3300
1E00
0000
3F00
7F80
6180
0180
7F80
FF80
C180
FFC0
7DC0
ENDCHAR
STARTCHAR Aogonek
ENCODING 260
SWIDTH 600 0
DWIDTH 11 0
BBX 12 15 -1 -4
BITMAP
3E00
3F00
0F00
1980
1980
1980
3FC0
3FC0
30C0
F9F0
F9F0
0600
0C00
0C00
0700
ENDCHAR
STARTCHAR aogonek
ENCODING 261
SWIDTH 600 0
DWIDTH 11 0
BBX 10 13 0 -4
BITMAP
3F00
7F80
6180
0180
7F80
FF80
C180
FFC0
7DC0
0C00
1800
1800
0E00
ENDCHAR
STARTCHAR Cacute
ENCODING 262
SWIDTH 600 0
DWIDTH 11 0
BBX 10 15 0 0
BITMAP
0300
0600
0C00
0000
1EC0
7FC0
71C0
E0C0
C000
C000
C000
E000
70C0
7FC0
1F00
ENDCHAR
STARTCHAR cacute
ENCODING 263
SWIDTH 600 0
DWIDTH 11 0
BBX 10 13 0 0
BITMAP
0300
0600
0C00
0000
3D80
7F80
E380
C180
C000
C000
E1C0
7FC0
3F00
ENDCHAR
STARTCHAR Ccircumflex
ENCODING 264
SWIDTH 600 0
DWIDTH 11 0
BBX 10 15 0 0
BITMAP
0C00
1E00
3300
0000
1EC0
7FC0
71C0
E0C0
C000
C000
C000
E000
70C0
7FC0
1F00
ENDCHAR
STARTCHAR ccircumflex
ENCODING 265
SWIDTH 600 0
DWIDTH 11 0
BBX 10 13 0 0
BITMAP
0C00
1E00
3300
0000
3D80
7F80
E380
C180
C000
C000
E1C0
7FC0
3F00
ENDCHAR
STARTCHAR Cdotaccent
ENCODING 266
SWIDTH 600 0
DWIDTH 11 0
BBX 10 14 0 0
BITMAP
0C00
0C00
0000
1EC0
7FC0
71C0
E0C0
C000
C000
C000
E000
70C0
7FC0
1F00
ENDCHAR
STARTCHAR cdotaccent
ENCODING 267
SWIDTH 600 0
DWIDTH 11 0
BBX 10 12 0 0
BITMAP
0C00
0C00
0000
3D80
7F80
E380
C180
C000
C000
E1C0
7FC0
3F00
ENDCHAR
STARTCHAR Ccaron
ENCODING 268
SWIDTH 600 0
DWIDTH 11 0
BBX 10 15 0 0
BITMAP
3300
1E00
0C00
0000
1EC0
7FC0
71C0
E0C0
C000
C000
C000
E000
70C0
7FC0
1F00
ENDCHAR
STARTCHAR ccaron
ENCODING 269
SWIDTH 600 0
DWIDTH 11 0
BBX 10 13 0 0
BITMAP
3300
1E00
0C00
0000
3D80
7F80
E380
C180
C000
C000
E1C0
7FC0
3F00
ENDCHAR
STARTCHAR Dcaron
ENCODING 270
SWIDTH 600 0
DWIDTH 11 0
BBX 10 15 0 0
BITMAP
3300
1E00
0C00
0000
FE00
FF80
6380
61C0
60C0
60C0
60C0
61C0
6380
FF80
FE00
ENDCHAR
STARTCHAR dcaron
ENCODING 271
SWIDTH 600 0
DWIDTH 11 0
BBX 10 16 0 0
BITMAP
1980
0F00
0600
0000
0380
0380
0180
3D80
7F80
E380
C180
C180
C180
E380
7FC0
3DC0
ENDCHAR
STARTCHAR Dcroat
ENCODING 272
SWIDTH 600 0
DWIDTH 11 0
BBX 10 11 0 0
BITMAP
FE00
FF80
6180
60C0
F8C0
F8C0
60C0
60C0
6180
FF80
FE00
ENDCHAR
STARTCHAR dcroat
ENCODING 273
SWIDTH 600 0
DWIDTH 11 0
BBX 11 12 0 0
BITMAP
0380
1FE0
1FE0
3D80
7F80
E380
C180
C180
C180
E380
7FC0
3DC0
ENDCHAR
STARTCHAR Emacron
ENCODING 274
SWIDTH 600 0
DWIDTH 11 0
BBX 10 14 0 0
BITMAP
1F00
1F00
0000
FFC0
FFC0
30C0
36C0
3E00
3E00
3600
30C0
30C0
FFC0
FFC0
ENDCHAR
STARTCHAR emacron
ENCODING 275
SWIDTH 600 0
DWIDTH 11 0
BBX 10 12 0 0
BITMAP
1F00
1F00
0000
1E00
7F80
E1C0
C0C0
FFC0
FFC0
E000
7FC0
1FC0
ENDCHAR
STARTCHAR Ebreve
ENCODING 276
SWIDTH 600 0
DWIDTH 11 0
BBX 10 14 0 0
BITMAP
3300
1E00
0000
FFC0
FFC0
30C0
36C0
3E00
3E00
3600
30C0
30C0
FFC0
FFC0
ENDCHAR
STARTCHAR ebreve
ENCODING 277
SWIDTH 600 0
DWIDTH 11 0
BBX 10 12 0 0
BITMAP
3300
1E00
0000
1E00
7F80
E1C0
C0C0
FFC0
FFC0
E000
7FC0
1FC0
ENDCHAR
STARTCHAR Edotaccent
ENCODING 278
SWIDTH 600 0
DWIDTH 11 0
BBX 10 14 0 0
BITMAP
0C00
0C00
0000
FFC0
FFC0
30C0
36C0
3E00
3E00
3600
30C0
30C0
FFC0
FFC0
ENDCHAR
STARTCHAR edotaccent
ENCODING 279
SWIDTH 600 0
DWIDTH 11 0
BBX 10 12 0 0
BITMAP
0C00
0C00
0000
1E00
7F80
E1C0
C0C0
FFC0
FFC0
E000
7FC0
1FC0
ENDCHAR
STARTCHAR Eogonek
ENCODING 280
SWIDTH 600 0
DWIDTH 11 0
BBX 10 15 0 -4
BITMAP
FFC0
FFC0
30C0
36C0
3E00
3E00
3600
30C0
30C0
FFC0
FFC0
0C00
1800
1800
0E00
ENDCHAR
STARTCHAR eogonek
ENCODING 281
SWIDTH 600 0
DWIDTH 11 0
BBX 10 13 0 -4
BITMAP
1E00
7F80
E1C0
C0C0
FFC0
FFC0
E000
7FC0
1FC0
0C00
1800
1800
0E00
ENDCHAR
STARTCHAR Ecaron
ENCODING 282
SWIDTH 600 0
DWIDTH 11 0
BBX 10 15 0 0
BITMAP
3300
1E00
0C00
0000
FFC0
FFC0
30C0
36C0
3E00
3E00
3600
30C0
30C0
FFC0
FFC0
ENDCHAR
STARTCHAR ecaron
ENCODING 283
SWIDTH 600 0
DWIDTH 11 0
BBX 10 13 0 0
BITMAP
3300
1E00
0C00
0000
1E00
7F80
E1C0
C0C0
FFC0
FFC0
E000
7FC0
1FC0
ENDCHAR
STARTCHAR Gcircumflex
ENCODING 284
SWIDTH 600 0
DWIDTH 11 0
BBX 11 15 0 0
BITMAP
0600
0F00
1980
0000
1EC0
7FC0
71C0
E0C0
C000
C000
C7E0
E7E0
70C0
7FC0
1F80
ENDCHAR
STARTCHAR gcircumflex
ENCODING 285
SWIDTH 600 0
DWIDTH 11 0
BBX 10 17 0 -4
BITMAP
0C00
1E00
3300
0000
3DC0
7FC0
E380
C180
C180
C180
E380
7F80
3D80
0180
0380
3F00
3E00
ENDCHAR
STARTCHAR Gbreve
ENCODING 286
SWIDTH 600 0
DWIDTH 11 0
BBX 11 14 0 0
BITMAP
1980
0F00
0000
1EC0
7FC0
71C0
E0C0
C000
C000
C7E0
E7E0
70C0
7FC0
1F80
ENDCHAR
STARTCHAR gbreve
ENCODING 287
SWIDTH 600 0
DWIDTH 11 0
BBX 10 16 0 -4
BITMAP
3300
1E00
0000
3DC0
7FC0
E380
C180
C180
C180
E380
7F80
3D80
0180
0380
3F00
3E00
ENDCHAR
STARTCHAR Gdotaccent
ENCODING 288
SWIDTH 600 0
DWIDTH 11 0
BBX 11 14 0 0
BITMAP
0600
0600
0000
1EC0
7FC0
71C0
E0C0
C000
C000
C7E0
E7E0
70C0
7FC0
1F80
ENDCHAR
STARTCHAR gdotaccent
ENCODING 289
SWIDTH 600 0
DWIDTH 11 0
BBX 10 16 0 -4
BITMAP
0C00
0C00
0000
3DC0
7FC0
E380
C180
C180
C180
E380
7F80
3D80
0180
0380
3F00
3E00
ENDCHAR
STARTCHAR Gcommaaccent
ENCODING 290
SWIDTH 600 0
DWIDTH 11 0
BBX 11 17 0 -6
BITMAP
1EC0
7FC0
71C0
E0C0
C000
C000
C7E0
E7E0
70C0
7FC0
1F80
0000
0600
0600
0C00
0800
1000
ENDCHAR
STARTCHAR gcommaaccent
ENCODING 291
SWIDTH 600 0
DWIDTH 11 0
BBX 10 19 0 -4
BITMAP
3000
3000
1800
0800
0400
0000
3DC0
7FC0
E380
C180
C180
C180
E380
7F80
3D80
0180
0380
3F00
3E00
ENDCHAR
STARTCHAR Hcircumflex
ENCODING 292
SWIDTH 600 0
DWIDTH 11 0
BBX 10 15 0 0
BITMAP
0C00
1E00
3300
0000
F3C0
F3C0
6180
6180
7F80
7F80
6180
6180
6180
F3C0
F3C0
ENDCHAR
STARTCHAR hcircumflex
ENCODING 293
SWIDTH 600 0
DWIDTH 11 0
BBX 10 16 0 0
BITMAP
1800
3C00
6600
0000
E000
E000
6000
6F00
7F80
7180
6180
6180
6180
6180
F3C0
F3C0
ENDCHAR
STARTCHAR Hbar
ENCODING 294
SWIDTH 600 0
DWIDTH 11 0
BBX 10 11 0 0
BITMAP
F3C0
FFC0
FFC0
6180
7F80
7F80
6180
6180
6180
F3C0
F3C0
ENDCHAR
STARTCHAR hbar
ENCODING 295
SWIDTH 600 0
DWIDTH 11 0
BBX 11 12 -1 0
BITMAP
7000
FF00
FF00
3780
3FC0
38C0
30C0
30C0
30C0
30C0
79E0
79E0
ENDCHAR
STARTCHAR Itilde
ENCODING 296
SWIDTH 600 0
DWIDTH 11 0
BBX 8 14 1 0
BITMAP
3B
6E
00
FF
FF
18
18
18
18
18
18
18
FF
FF
ENDCHAR
STARTCHAR itilde
ENCODING 297
SWIDTH 600 0
DWIDTH 11 0
BBX 8 12 1 0
BITMAP
76
DC
00
F8
F8
18
18
18
18
18
FF
FF
ENDCHAR
STARTCHAR Imacron
ENCODING 298
SWIDTH 600 0
DWIDTH 11 0
BBX 8 14 1 0
BITMAP
3E
3E
00
FF
FF
18
18
18
18
18
18
18
FF
FF
ENDCHAR
STARTCHAR imacron
ENCODING 299
SWIDTH 600 0
DWIDTH 11 0
BBX 8 12 1 0
BITMAP
7C
7C
00
F8
F8
18
18
18
18
18
FF
FF
ENDCHAR
STARTCHAR Ibreve
ENCODING 300
SWIDTH 600 0
DWIDTH 11 0
BBX 8 14 1 0
BITMAP
66
3C
00
FF
FF
18
18
18
18
18
18
18
FF
FF
ENDCHAR
STARTCHAR ibreve
ENCODING 301
SWIDTH 600 0
DWIDTH 11 0
BBX 8 12 1 0
BITMAP
CC
78
00
F8
F8
18
18
18
18
18
FF
FF
ENDCHAR
STARTCHAR Iogonek
ENCODING 302
SWIDTH 600 0
DWIDTH 11 0
BBX 8 15 1 -4
BITMAP
FF
FF
18
18
18
18
18
18
18
FF
FF
18
30
30
1C
ENDCHAR
STARTCHAR iogonek
ENCODING 303
SWIDTH 600 0
DWIDTH 11 0
BBX 8 16 1 -4
BITMAP
18
18
00
F8
F8
18
18
18
18
18
FF
FF
18
30
30
1C
ENDCHAR
STARTCHAR Idotaccent
ENCODING 304
SWIDTH 600 0
DWIDTH 11 0
BBX 8 14 1 0
BITMAP
18
18
00
FF
FF
18
18
18
18
18
18
18
FF
FF
ENDCHAR
STARTCHAR dotlessi
ENCODING 305
SWIDTH 600 0
DWIDTH 11 0
BBX 8 9 1 0
BITMAP
F8
F8
18
18
18
18
18
FF
FF
ENDCHAR
STARTCHAR IJ
ENCODING 306
SWIDTH 600 0
DWIDTH 11 0
BBX 12 11 1 0
BITMAP
FFF0
FFF0
18C0
18C0
18C0
18C0
38C0
38C0
38C0
FF80
FF00
ENDCHAR
STARTCHAR ij
ENCODING 307
SWIDTH 600 0
DWIDTH 11 0
BBX 10 16 1 -4
BITMAP
1980
1980
0000
FFC0
FFC0
18C0
18C0
18C0
18C0
18C0
FFC0
FFC0
00C0
01C0
1F80
1F00
ENDCHAR
STARTCHAR Jcircumflex
ENCODING 308
SWIDTH 600 0
DWIDTH 11 0
BBX 10 15 0 0
BITMAP
0600
0F00
1980
0000
1FC0
1FC0
0300
0300
0300
0300
C300
C300
C300
FE00
3C00
ENDCHAR
STARTCHAR jcircumflex
ENCODING 309
SWIDTH 600 0
DWIDTH 11 0
BBX 7 17 1 -4
BITMAP
18
3C
66
00
FE
FE
06
06
06
06
06
06
06
06
0E
FC
F8
ENDCHAR
STARTCHAR Kcommaaccent
ENCODING 310
SWIDTH 600 0
DWIDTH 11 0
BBX 11 17 0 -6
BITMAP
F7C0
F7C0
6300
6600
6C00
7C00
7E00
6700
6380
F9E0
F9E0
0000
0600
0600
0C00
0800
1000
ENDCHAR
STARTCHAR kcommaaccent
ENCODING 311
SWIDTH 600 0
DWIDTH 11 0
BBX 10 18 0 -6
BITMAP
E000
E000
6000
6780
6780
6E00
7C00
7C00
6E00
6700
E3C0
E3C0
0000
0C00
0C00
1800
1000
2000
ENDCHAR
STARTCHAR kgreenlandic
ENCODING 312
SWIDTH 600 0
DWIDTH 11 0
BBX 10 9 0 0
BITMAP
6780
6780
6E00
7C00
7C00
6E00
6700
E3C0
E3C0
ENDCHAR
STARTCHAR Lacute
ENCODING 313
SWIDTH 600 0
DWIDTH 11 0
BBX 10 15 0 0
BITMAP
0C00
1800
3000
0000
FC00
FC00
3000
3000
3000
3000
30C0
30C0
30C0
FFC0
FFC0
ENDCHAR
STARTCHAR lacute
ENCODING 314
SWIDTH 600 0
DWIDTH 11 0
BBX 8 16 1 0
BITMAP
0C
18
30
00
F8
F8
18
18
18
18
18
18
18
18
FF
FF
ENDCHAR
STARTCHAR Lcommaaccent
ENCODING 315
SWIDTH 600 0
DWIDTH 11 0
BBX 10 17 0 -6
BITMAP
FC00
FC00
3000
3000
3000
3000
30C0
30C0
30C0
FFC0
FFC0
0000
0C00
0C00
1800
1000
2000
ENDCHAR
STARTCHAR lcommaaccent
ENCODING 316
SWIDTH 600 0
DWIDTH 11 0
BBX 8 18 1 -6
BITMAP
F8
F8
18
18
18
18
18
18
18
18
FF
FF
00
18
18
30
20
40
ENDCHAR
STARTCHAR Lcaron
ENCODING 317
SWIDTH 600 0
DWIDTH 11 0
BBX 10 15 0 0
BITMAP
6600
3C00
1800
0000
FC00
FC00
3000
3000
3000
3000
30C0
30C0
30C0
FFC0
FFC0
ENDCHAR
STARTCHAR lcaron
ENCODING 318
SWIDTH 600 0
DWIDTH 11 0
BBX 8 16 1 0
BITMAP
CC
78
30
00
F8
F8
18
18
18
18
18
18
18
18
FF
FF
ENDCHAR
STARTCHAR Ldot
ENCODING 319
SWIDTH 600 0
DWIDTH 11 0
BBX 10 11 0 0
BITMAP
FC00
FC00
3000
3000
3000
3600
36C0
36C0
30C0
FFC0
FFC0
ENDCHAR
STARTCHAR ldot
ENCODING 320
SWIDTH 600 0
DWIDTH 11 0
BBX 9 12 1 0
BITMAP
F800
F800
1800
1800
1800
1800
1980
1980
1980
1800
FF00
FF00
ENDCHAR
STARTCHAR Lslash
ENCODING 321
SWIDTH 600 0
DWIDTH 11 0
BBX 10 11 0 0
BITMAP
FC00
FC00
3000
3600
3C00
7800
F0C0
30C0
30C0
FFC0
FFC0
ENDCHAR
STARTCHAR lslash
ENCODING 322
SWIDTH 600 0
DWIDTH 11 0
BBX 8 12 1 0
BITMAP
F8
F8
18
18
1E
1C
38
78
18
18
FF
FF
ENDCHAR
STARTCHAR Nacute
ENCODING 323
SWIDTH 600 0
DWIDTH 11 0
BBX 10 15 0 0
BITMAP
0300
0600
0C00
0000
E7C0
F7C0
7180
7980
6980
6D80
6580
6780
6380
FB80
F980
ENDCHAR
STARTCHAR nacute
ENCODING 324
SWIDTH 600 0
DWIDTH 11 0
BBX 10 13 0 0
BITMAP
0600
0C00
1800
0000
EF00
FF80
7180
6180
6180
6180
6180
F3C0
F3C0
ENDCHAR
STARTCHAR Ncommaaccent
ENCODING 325
SWIDTH 600 0
DWIDTH 11 0
BBX 10 17 0 -6
BITMAP
E7C0
F7C0
7180
7980
6980
6D80
6580
6780
6380
FB80
F980
0000
0C00
0C00
1800
1000
2000
ENDCHAR
STARTCHAR ncommaaccent
ENCODING 326
SWIDTH 600 0
DWIDTH 11 0
BBX 10 15 0 -6
BITMAP
EF00
FF80
7180
6180
6180
6180
6180
F3C0
F3C0
0000
0C00
0C00
1800
1000
2000
ENDCHAR
STARTCHAR Ncaron
ENCODING 327
SWIDTH 600 0
DWIDTH 11 0
BBX 10 15 0 0
BITMAP
3300
1E00
0C00
0000
E7C0
F7C0
7180
7980
6980
6D80
6580
6780
6380
FB80
F980
ENDCHAR
STARTCHAR ncaron
ENCODING 328
SWIDTH 600 0
DWIDTH 11 0
BBX 10 13 0 0
BITMAP
3300
1E00
0C00
0000
EF00
FF80
7180
6180
6180
6180
6180
F3C0
F3C0
ENDCHAR
STARTCHAR napostrophe
ENCODING 329
SWIDTH 600 0
DWIDTH 11 0
BBX 13 12 -3 0
BITMAP
3000
3000
6000
5DE0
9FF0
0E30
0C30
0C30
0C30
0C30
1E78
1E78
ENDCHAR
STARTCHAR Eng
ENCODING 330
SWIDTH 600 0
DWIDTH 11 0
BBX 10 15 0 -4
BITMAP
E7C0
F7C0
7180
7980
6980
6D80
6580
6780
6380
FB80
F980
0180
0380
3F00
3E00
ENDCHAR
STARTCHAR eng
ENCODING 331
SWIDTH 600 0
DWIDTH 11 0
BBX 9 13 0 -4
BITMAP
EF00
FF80
7180
6180
6180
6180
6180
F180
F180
0180
0380
3F00
3E00
ENDCHAR
STARTCHAR Omacron
ENCODING 332
SWIDTH 600 0
DWIDTH 11 0
BBX 10 14 0 0
BITMAP
1F00
1F00
0000
1E00
7F80
7380
E1C0
C0C0
C0C0
C0C0
E1C0
7380
7F80
1E00
ENDCHAR
STARTCHAR omacron
ENCODING 333
SWIDTH 600 0
DWIDTH 11 0
BBX 10 12 0 0
BITMAP
1F00
1F00
0000
1E00
7F80
E1C0
C0C0
C0C0
C0C0
E1C0
7F80
1E00
ENDCHAR
STARTCHAR Obreve
ENCODING 334
SWIDTH 600 0
DWIDTH 11 0
BBX 10 14 0 0
BITMAP
3300
1E00
0000
1E00
7F80
7380
E1C0
C0C0
C0C0
C0C0
E1C0
7380
7F80
1E00
ENDCHAR
STARTCHAR obreve
ENCODING 335
SWIDTH 600 0
DWIDTH 11 0
BBX 10 12 0 0
BITMAP
3300
1E00
0000
1E00
7F80
E1C0
C0C0
C0C0
C0C0
E1C0
7F80
1E00
ENDCHAR
STARTCHAR Ohungarumlaut
ENCODING 336
SWIDTH 600 0
DWIDTH 11 0
BBX 10 15 0 0
BITMAP
0D80
1B00
3600
0000
1E00
7F80
7380
E1C0
C0C0
C0C0
C0C0
E1C0
7380
7F80
1E00
ENDCHAR
STARTCHAR ohungarumlaut
ENCODING 337
SWIDTH 600 0
DWIDTH 11 0
BBX 10 13 0 0
BITMAP
0D80
1B00
3600
0000
1E00
7F80
E1C0
C0C0
C0C0
C0C0
E1C0
7F80
1E00
ENDCHAR
STARTCHAR OE
ENCODING 338
SWIDTH 600 0
DWIDTH 11 0
BBX 11 11 0 0
BITMAP
3FE0
7FE0
E660
C600
C7C0
C7C0
C600
C600
E660
7FE0
3FE0
ENDCHAR
STARTCHAR oe
ENCODING 339
SWIDTH 600 0
DWIDTH 11 0
BBX 11 9 0 0
BITMAP
3980
7FC0
E660
C660
C7E0
C7E0
E600
7FE0
39C0
ENDCHAR
STARTCHAR Racute
ENCODING 340
SWIDTH 600 0
DWIDTH 11 0
BBX 11 15 0 0
BITMAP
0300
0600
0C00
0000
FF00
FF80
61C0
60C0
61C0
7F80
7F00
6380
61C0
FCE0
FCE0
ENDCHAR
STARTCHAR racute
ENCODING 341
SWIDTH 600 0
DWIDTH 11 0
BBX 10 13 0 0
BITMAP
0300
0600
0C00
0000
F380
FFC0
3CC0
3800
3000
3000
3000
FF00
FF00
ENDCHAR
STARTCHAR Rcommaaccent
ENCODING 342
SWIDTH 600 0
DWIDTH 11 0
BBX 11 17 0 -6
BITMAP
FF00
FF80
61C0
60C0
61C0
7F80
7F00
6380
61C0
FCE0
FCE0
0000
0600
0600
0C00
0800
1000
ENDCHAR
STARTCHAR rcommaaccent
ENCODING 343
SWIDTH 600 0
DWIDTH 11 0
BBX 10 15 0 -6
BITMAP
F380
FFC0
3CC0
3800
3000
3000
3000
FF00
FF00
0000
0C00
0C00
1800
1000
2000
ENDCHAR
STARTCHAR Rcaron
ENCODING 344
SWIDTH 600 0
DWIDTH 11 0
BBX 11 15 0 0
BITMAP
3300
1E00
0C00
0000
FF00
FF80
61C0
60C0
61C0
7F80
7F00
6380
61C0
FCE0
FCE0
ENDCHAR
STARTCHAR rcaron
ENCODING 345
SWIDTH 600 0
DWIDTH 11 0
BBX 10 13 0 0
BITMAP
3300
1E00
0C00
0000
F380
FFC0
3CC0
3800
3000
3000
3000
FF00
FF00
ENDCHAR
STARTCHAR Sacute
ENCODING 346
SWIDTH 600 0
DWIDTH 11 0
BBX 9 15 1 0
BITMAP
0600
0C00
1800
0000
3D80
FF80
C380
C180
F800
7F00
0F80
C180
E180
FF00
DE00
ENDCHAR
STARTCHAR sacute
ENCODING 347
SWIDTH 600 0
DWIDTH 11 0
BBX 8 13 1 0
BITMAP
06
0C
18
00
7F
FF
C3
F0
7E
1F
C3
FF
FE
ENDCHAR
STARTCHAR Scircumflex
ENCODING 348
SWIDTH 600 0
DWIDTH 11 0
BBX 9 15 1 0
BITMAP
0C00
1E00
3300
0000
3D80
FF80
C380
C180
F800
7F00
0F80
C180
E180
FF00
DE00
ENDCHAR
STARTCHAR scircumflex
ENCODING 349
SWIDTH 600 0
DWIDTH 11 0
BBX 8 13 1 0
BITMAP
18
3C
66
00
7F
FF
C3
F0
7E
1F
C3
FF
FE
ENDCHAR
STARTCHAR Scedilla
ENCODING 350
SWIDTH 600 0
DWIDTH 11 0
BBX 9 15 1 -4
BITMAP
3D80
FF80
C380
C180
F800
7F00
0F80
C180
E180
FF00
DE00
1800
0C00
3C00
3800
ENDCHAR
STARTCHAR scedilla
ENCODING 351
SWIDTH 600 0
DWIDTH 11 0
BBX 8 13 1 -4
BITMAP
7F
FF
C3
F0
7E
1F
C3
FF
FE
18
0C
3C
38
ENDCHAR
STARTCHAR Scaron
ENCODING 352
SWIDTH 600 0
DWIDTH 11 0
BBX 9 14 1 0
BITMAP
6600
3C00
1800
3D80
FF80
C380
C180
F800
7F00
0F80
C180
E180
FF00
DE00
ENDCHAR
STARTCHAR scaron
ENCODING 353
SWIDTH 600 0
DWIDTH 11 0
BBX 8 12 1 0
BITMAP
66
3C
18
7F
FF
C3
F0
7E
1F
C3
FF
FE
ENDCHAR
STARTCHAR Tcommaaccent
ENCODING 354
SWIDTH 600 0
DWIDTH 11 0
BBX 10 15 0 -4
BITMAP
FFC0
FFC0
CCC0
CCC0
CCC0
0C00
0C00
0C00
0C00
7F80
7F80
0C00
0600
1E00
1C00
ENDCHAR
STARTCHAR tcommaaccent
ENCODING 355
SWIDTH 600 0
DWIDTH 11 0
BBX 10 16 0 -4
BITMAP
3000
3000
3000
FF00
FF00
3000
3000
3000
3000
30C0
3FC0
1F00
0C00
0600
1E00
1C00
ENDCHAR
STARTCHAR Tcaron
ENCODING 356
SWIDTH 600 0
DWIDTH 11 0
BBX 10 15 0 0
BITMAP
3300
1E00
0C00
0000
FFC0
FFC0
CCC0
CCC0
CCC0
0C00
0C00
0C00
0C00
7F80
7F80
ENDCHAR
STARTCHAR tcaron
ENCODING 357
SWIDTH 600 0
DWIDTH 11 0
BBX 10 16 0 0
BITMAP
6600
3C00
1800
0000
3000
3000
3000
FF00
FF00
3000
3000
3000
3000
30C0
3FC0
1F00
ENDCHAR
STARTCHAR Tbar
ENCODING 358
SWIDTH 600 0
DWIDTH 11 0
BBX 10 11 0 0
BITMAP
FFC0
FFC0
CCC0
CCC0
FFC0
7F80
0C00
0C00
0C00
7F80
7F80
ENDCHAR
STARTCHAR tbar
ENCODING 359
SWIDTH 600 0
DWIDTH 11 0
BBX 10 12 0 0
BITMAP
3000
3000
3000
FF00
FF00
3000
3000
7F80
7F80
30C0
3FC0
1F00
ENDCHAR
STARTCHAR Utilde
ENCODING 360
SWIDTH 600 0
DWIDTH 11 0
BBX 10 14 0 0
BITMAP
1D80
3700
0000
F7C0
F7C0
6180
6180
6180
6180
6180
6180
7380
3F00
1E00
ENDCHAR
STARTCHAR utilde
ENCODING 361
SWIDTH 600 0
DWIDTH 11 0
BBX 10 12 0 0
BITMAP
1D80
3700
0000
E780
E780
6180
6180
6180
6180
6380
7FC0
3DC0
ENDCHAR
STARTCHAR Umacron
ENCODING 362
SWIDTH 600 0
DWIDTH 11 0
BBX 10 14 0 0
BITMAP
1F00
1F00
0000
F7C0
F7C0
6180
6180
6180
6180
6180
6180
7380
3F00
1E00
ENDCHAR
STARTCHAR umacron
ENCODING 363
SWIDTH 600 0
DWIDTH 11 0
BBX 10 12 0 0
BITMAP
3E00
3E00
0000
E780
E780
6180
6180
6180
6180
6380
7FC0
3DC0
ENDCHAR
STARTCHAR Ubreve
ENCODING 364
SWIDTH 600 0
DWIDTH 11 0
BBX 10 14 0 0
BITMAP
3300
1E00
0000
F7C0
F7C0
6180
6180
6180
6180
6180
6180
7380
3F00
1E00
ENDCHAR
STARTCHAR ubreve
ENCODING 365
SWIDTH 600 0
DWIDTH 11 0
BBX 10 12 0 0
BITMAP
3300
1E00
0000
E780
E780
6180
6180
6180
6180
6380
7FC0
3DC0
ENDCHAR
STARTCHAR Uring
ENCODING 366
SWIDTH 600 0
DWIDTH 11 0
BBX 10 16 0 0
BITMAP
0C00
1200
1200
0C00
0000
F7C0
F7C0
6180
6180
6180
6180
6180
6180
7380
3F00
1E00
ENDCHAR
STARTCHAR uring
ENCODING 367
SWIDTH 600 0
DWIDTH 11 0
BBX 10 14 0 0
BITMAP
0C00
1200
1200
0C00
0000
E780
E780
6180
6180
6180
6180
6380
7FC0
3DC0
ENDCHAR
STARTCHAR Uhungarumlaut
ENCODING 368
SWIDTH 600 0
DWIDTH 11 0
BBX 10 15 0 0
BITMAP
0D80
1B00
3600
0000
F7C0
F7C0
6180
6180
6180
6180
6180
6180
7380
3F00
1E00
ENDCHAR
STARTCHAR uhungarumlaut
ENCODING 369
SWIDTH 600 0
DWIDTH 11 0
BBX 10 13 0 0
BITMAP
0D80
1B00
3600
0000
E780
E780
6180
6180
6180
6180
6380
7FC0
3DC0
ENDCHAR
STARTCHAR Uogonek
ENCODING 370
SWIDTH 600 0
DWIDTH 11 0
BBX 10 15 0 -4
BITMAP
F7C0
F7C0
6180
6180
6180
6180
6180
6180
7380
3F00
1E00
0C00
1800
1800
0E00
ENDCHAR
STARTCHAR uogonek
ENCODING 371
SWIDTH 600 0
DWIDTH 11 0
BBX 10 13 0 -4
BITMAP
E780
E780
6180
6180
6180
6180
6380
7FC0
3DC0
0600
0C00
0C00
0700
ENDCHAR
STARTCHAR Wcircumflex
ENCODING 372
SWIDTH 600 0
DWIDTH 11 0
BBX 12 15 -1 0
BITMAP
0600
0F00
1980
0000
F9F0
F9F0
6060
6660
6660
6F60
6F60
39C0
39C0
30C0
30C0
ENDCHAR
STARTCHAR wcircumflex
ENCODING 373
SWIDTH 600 0
DWIDTH 11 0
BBX 11 13 0 0
BITMAP
0600
0F00
1980
0000
F1E0
F1E0
64C0
6EC0
6EC0
7BC0
3B80
3180
3180
ENDCHAR
STARTCHAR Ycircumflex
ENCODING 374
SWIDTH 600 0
DWIDTH 11 0
BBX 10 15 0 0
BITMAP
0C00
1E00
3300
0000
F3C0
F3C0
6180
3300
3F00
1E00
0C00
0C00
0C00
3F00
3F00
ENDCHAR
STARTCHAR ycircumflex
ENCODING 375
SWIDTH 600 0
DWIDTH 11 0
BBX 10 17 0 -4
BITMAP
0C00
1E00
3300
0000
F3C0
F3C0
6180
6180
3300
3300
1E00
1E00
0C00
1800
3800
FC00
FC00
ENDCHAR
STARTCHAR Ydieresis
ENCODING 376
SWIDTH 600 0
DWIDTH 11 0
BBX 10 14 0 0
BITMAP
3300
3300
0000
F3C0
F3C0
6180
3300
3F00
1E00
0C00
0C00
0C00
3F00
3F00
ENDCHAR
STARTCHAR Zacute
ENCODING 377
SWIDTH 600 0
DWIDTH 11 0
BBX 8 15 1 0
BITMAP
06
0C
18
00
FF
FF
C7
CE
0C
18
30
73
E3
FF
FF
ENDCHAR
STARTCHAR zacute
ENCODING 378
SWIDTH 600 0
DWIDTH 11 0
BBX 8 13 1 0
BITMAP
06
0C
18
00
FF
FF
C6
0C
18
30
63
FF
FF
ENDCHAR
STARTCHAR Zdotaccent
ENCODING 379
SWIDTH 600 0
DWIDTH 11 0
BBX 8 14 1 0
BITMAP
18
18
00
FF
FF
C7
CE
0C
18
30
73
E3
FF
FF
ENDCHAR
STARTCHAR zdotaccent
ENCODING 380
SWIDTH 600 0
DWIDTH 11 0
BBX 8 12 1 0
BITMAP
18
18
00
FF
FF
C6
0C
18
30
63
FF
FF
ENDCHAR
STARTCHAR Zcaron
ENCODING 381
SWIDTH 600 0
DWIDTH 11 0
BBX 8 14 1 0
BITMAP
66
3C
18
FF
FF
C7
CE
0C
18
30
73
E3
FF
FF
ENDCHAR
STARTCHAR zcaron
ENCODING 382
SWIDTH 600 0
DWIDTH 11 0
BBX 8 12 1 0
BITMAP
66
3C
18
FF
FF
C6
0C
18
30
63
FF
FF
ENDCHAR
STARTCHAR uni0186
ENCODING 390
SWIDTH 600 0
DWIDTH 11 0
BBX 10 11 0 0
BITMAP
3E00
FF80
C380
01C0
00C0
00C0
00C0
C1C0
E380
FF80
DE00
ENDCHAR
STARTCHAR uni0189
ENCODING 393
SWIDTH 600 0
DWIDTH 11 0
BBX 10 11 0 0
BITMAP
FE00
FF80
6180
60C0
F8C0
F8C0
60C0
60C0
6180
FF80
FE00
ENDCHAR
STARTCHAR uni018E
ENCODING 398
SWIDTH 600 0
DWIDTH 11 0
BBX 10 11 0 0
BITMAP
FFC0
FFC0
C300
C300
1B00
1F00
1F00
DB00
C300
FFC0
FFC0
ENDCHAR
STARTCHAR florin
ENCODING 402
SWIDTH 600 0
DWIDTH 11 0
BBX 8 14 1 -2
BITMAP
07
0F
18
18
7E
7E
18
18
18
18
18
18
F0
E0
ENDCHAR
STARTCHAR uni0197
ENCODING 407
SWIDTH 600 0
DWIDTH 11 0
BBX 8 11 1 0
BITMAP
FF
FF
18
18
FF
FF
18
18
18
FF
FF
ENDCHAR
STARTCHAR uni019A
ENCODING 410
SWIDTH 600 0
DWIDTH 11 0
BBX 8 12 1 0
BITMAP
F8
F8
18
18
18
FF
FF
18
18
18
FF
FF
ENDCHAR
STARTCHAR uni019D
ENCODING 413
SWIDTH 600 0
DWIDTH 11 0
BBX 14 15 -4 -4
BITMAP
0E7C
0F7C
0718
0798
0698
06D8
0658
0678
0638
0638
0618
0600
0E00
FC00
F800
ENDCHAR
STARTCHAR uni019F
ENCODING 415
SWIDTH 600 0
DWIDTH 11 0
BBX 10 11 0 0
BITMAP
1E00
7F80
7380
E1C0
FFC0
FFC0
C0C0
E1C0
7380
7F80
1E00
ENDCHAR
STARTCHAR Ohorn
ENCODING 416
SWIDTH 600 0
DWIDTH 11 0
BBX 13 11 0 0
BITMAP
1E18
7F98
73B0
E1E0
C0C0
C0C0
C0C0
E1C0
7380
7F80
1E00
ENDCHAR
STARTCHAR ohorn
ENCODING 417
SWIDTH 600 0
DWIDTH 11 0
BBX 13 9 0 0
BITMAP
1E18
7F98
E1F0
C0E0
C0C0
C0C0
E1C0
7F80
1E00
ENDCHAR
STARTCHAR uni01A7
ENCODING 423
SWIDTH 600 0
DWIDTH 11 0
BBX 9 11 1 0
BITMAP
DE00
FF80
E180
C180
0F80
7F00
F800
C180
C380
7F80
3D80
ENDCHAR
STARTCHAR uni01A8
ENCODING 424
SWIDTH 600 0
DWIDTH 11 0
BBX 8 9 1 0
BITMAP
FE
FF
C3
0F
7E
F8
C3
FF
7F
ENDCHAR
STARTCHAR uni01AE
ENCODING 430
SWIDTH 600 0
DWIDTH 11 0
BBX 11 15 0 -4
BITMAP
FFC0
FFC0
CCC0
CCC0
CCC0
0C00
0C00
0C00
0C00
0C00
0C00
0C00
0E00
07E0
03E0
ENDCHAR
STARTCHAR Uhorn
ENCODING 431
SWIDTH 600 0
DWIDTH 11 0
BBX 13 11 0 0
BITMAP
F7D8
F7D8
61B0
61A0
61C0
6180
6180
6180
7380
3F00
1E00
ENDCHAR
STARTCHAR uhorn
ENCODING 432
SWIDTH 600 0
DWIDTH 11 0
BBX 13 9 0 0
BITMAP
E798
E798
61B0
61A0
61C0
6180
6380
7FC0
3DC0
ENDCHAR
STARTCHAR uni01B5
ENCODING 437
SWIDTH 600 0
DWIDTH 11 0
BBX 8 11 1 0
BITMAP
FF
FF
C7
CE
FF
FF
30
73
E3
FF
FF
ENDCHAR
STARTCHAR uni01B6
ENCODING 438
SWIDTH 600 0
DWIDTH 11 0
BBX 8 9 1 0
BITMAP
FF
FF
C6
FF
FF
30
63
FF
FF
ENDCHAR
STARTCHAR uni01BB
ENCODING 443
SWIDTH 600 0
DWIDTH 11 0
BBX 8 12 1 0
BITMAP
3C
7E
C7
C3
03
FF
FF
1C
38
70
FF
FF
ENDCHAR
STARTCHAR uni01BC
ENCODING 444
SWIDTH 600 0
DWIDTH 11 0
BBX 8 12 1 0
BITMAP
7F
7F
60
60
7E
7F
67
03
03
C7
FE
7C
ENDCHAR
STARTCHAR uni01C0
ENCODING 448
SWIDTH 600 0
DWIDTH 11 0
BBX 2 14 4 -3
BITMAP
C0
C0
C0
C0
C0
C0
C0
C0
C0
C0
C0
C0
C0
C0
ENDCHAR
STARTCHAR uni01C2
ENCODING 450
SWIDTH 600 0
DWIDTH 11 0
BBX 10 14 0 -2
BITMAP
0C00
0C00
0C00
0C00
FFC0
FFC0
0C00
0C00
FFC0
FFC0
0C00
0C00
0C00
0C00
ENDCHAR
STARTCHAR uni01C3
ENCODING 451
SWIDTH 600 0
DWIDTH 11 0
BBX 3 12 4 0
BITMAP
E0
E0
E0
E0
E0
E0
C0
C0
C0
00
C0
C0
ENDCHAR
STARTCHAR uni01CD
ENCODING 461
SWIDTH 600 0
DWIDTH 11 0
BBX 12 15 -1 0
BITMAP
3300
1E00
0C00
0000
3E00
3F00
0F00
1980
1980
1980
3FC0
3FC0
30C0
F9F0
F9F0
ENDCHAR
STARTCHAR uni01CE
ENCODING 462
SWIDTH 600 0
DWIDTH 11 0
BBX 10 13 0 0
BITMAP
3300
1E00
0C00
0000
3F00
7F80
6180
0180
7F80
FF80
C180
FFC0
7DC0
ENDCHAR
STARTCHAR uni01CF
ENCODING 463
SWIDTH 600 0
DWIDTH 11 0
BBX 8 15 1 0
BITMAP
66
3C
18
00
FF
FF
18
18
18
18
18
18
18
FF
FF
ENDCHAR
STARTCHAR uni01D0
ENCODING 464
SWIDTH 600 0
DWIDTH 11 0
BBX 8 13 1 0
BITMAP
CC
78
30
00
F8
F8
18
18
18
18
18
FF
FF
ENDCHAR
STARTCHAR uni01D1
ENCODING 465
SWIDTH 600 0
DWIDTH 11 0
BBX 10 15 0 0
BITMAP
3300
1E00
0C00
0000
1E00
7F80
7380
E1C0
C0C0
C0C0
C0C0
E1C0
7380
7F80
1E00
ENDCHAR
STARTCHAR uni01D2
ENCODING 466
SWIDTH 600 0
DWIDTH 11 0
BBX 10 13 0 0
BITMAP
3300
1E00
0C00
0000
1E00
7F80
E1C0
C0C0
C0C0
C0C0
E1C0
7F80
1E00
ENDCHAR
STARTCHAR uni01D3
ENCODING 467
SWIDTH 600 0
DWIDTH 11 0
BBX 10 15 0 0
BITMAP
3300
1E00
0C00
0000
F7C0
F7C0
6180
6180
6180
6180
6180
6180
7380
3F00
1E00
ENDCHAR
STARTCHAR uni01D4
ENCODING 468
SWIDTH 600 0
DWIDTH 11 0
BBX 10 13 0 0
BITMAP
3300
1E00
0C00
0000
E780
E780
6180
6180
6180
6180
6380
7FC0
3DC0
ENDCHAR
STARTCHAR uni01D5
ENCODING 469
SWIDTH 600 0
DWIDTH 11 0
BBX 10 17 0 0
BITMAP
3E00
3E00
0000
3300
3300
0000
FBC0
FBC0
6180
6180
6180
6180
6180
6180
7380
3F00
1E00
ENDCHAR
STARTCHAR uni01D6
ENCODING 470
SWIDTH 600 0
DWIDTH 11 0
BBX 10 15 0 0
BITMAP
3E00
3E00
0000
3300
3300
0000
E780
E780
6180
6180
6180
6180
6380
7FC0
3DC0
ENDCHAR
STARTCHAR uni01D7
ENCODING 471
SWIDTH 600 0
DWIDTH 11 0
BBX 10 18 0 0
BITMAP
0300
0600
0C00
0000
3300
3300
0000
FBC0
FBC0
6180
6180
6180
6180
6180
6180
7380
3F00
1E00
ENDCHAR
STARTCHAR uni01D8
ENCODING 472
SWIDTH 600 0
DWIDTH 11 0
BBX 10 16 0 0
BITMAP
0300
0600
0C00
0000
3300
3300
0000
E780
E780
6180
6180
6180
6180
6380
7FC0
3DC0
ENDCHAR
STARTCHAR uni01D9
ENCODING 473
SWIDTH 600 0
DWIDTH 11 0
BBX 10 18 0 0
BITMAP
3300
1E00
0C00
0000
3300
3300
0000
FBC0
FBC0
6180
6180
6180
6180
6180
6180
7380
3F00
1E00
ENDCHAR
STARTCHAR uni01DA
ENCODING 474
SWIDTH 600 0
DWIDTH 11 0
BBX 10 16 0 0
BITMAP
3300
1E00
0C00
0000
3300
3300
0000
E780
E780
6180
6180
6180
6180
6380
7FC0
3DC0
ENDCHAR
STARTCHAR uni01DB
ENCODING 475
SWIDTH 600 0
DWIDTH 11 0
BBX 10 18 0 0
BITMAP
3000
1800
0C00
0000
3300
3300
0000
FBC0
FBC0
6180
6180
6180
6180
6180
6180
7380
3F00
1E00
ENDCHAR
STARTCHAR uni01DC
ENCODING 476
SWIDTH 600 0
DWIDTH 11 0
BBX 10 16 0 0
BITMAP
3000
1800
0C00
0000
3300
3300
0000
E780
E780
6180
6180
6180
6180
6380
7FC0
3DC0
ENDCHAR
STARTCHAR uni01DD
ENCODING 477
SWIDTH 600 0
DWIDTH 11 0
BBX 10 9 0 0
BITMAP
FE00
FF80
01C0
FFC0
FFC0
C0C0
E1C0
7F80
1E00
ENDCHAR
STARTCHAR uni01DE
ENCODING 478
SWIDTH 600 0
DWIDTH 11 0
BBX 12 17 -1 0
BITMAP
1F00
1F00
0000
1980
1980
0000
3E00
3F00
0F00
0F00
1980
1980
3FC0
3FC0
30C0
F9F0
F9F0
ENDCHAR
STARTCHAR uni01DF
ENCODING 479
SWIDTH 600 0
DWIDTH 11 0
BBX 10 15 0 0
BITMAP
1F00
1F00
0000
3300
3300
0000
3F00
7F80
6180
0180
7F80
FF80
C180
FFC0
7DC0
ENDCHAR
STARTCHAR uni01E0
ENCODING 480
SWIDTH 600 0
DWIDTH 11 0
BBX 12 17 -1 0
BITMAP
1F00
1F00
0000
0C00
0C00
0000
3E00
3F00
0F00
1980
1980
1980
3FC0
3FC0
30C0
F9F0
F9F0
ENDCHAR
STARTCHAR uni01E1
ENCODING 481
SWIDTH 600 0
DWIDTH 11 0
BBX 10 15 0 0
BITMAP
1F00
1F00
0000
0C00
0C00
0000
3F00
7F80
6180
0180
7F80
FF80
C180
FFC0
7DC0
ENDCHAR
STARTCHAR uni01E2
ENCODING 482
SWIDTH 600 0
DWIDTH 11 0
BBX 11 14 0 0
BITMAP
0F80
0F80
0000
3FE0
3FE0
1E60
3600
37C0
27C0
7E00
7E00
6660
EFE0
EFE0
ENDCHAR
STARTCHAR uni01E3
ENCODING 483
SWIDTH 600 0
DWIDTH 11 0
BBX 10 12 0 0
BITMAP
3E00
3E00
0000
7B80
FFC0
CCC0
0CC0
7FC0
FFC0
CC00
FFC0
7B80
ENDCHAR
STARTCHAR uni01E4
ENCODING 484
SWIDTH 600 0
DWIDTH 11 0
BBX 13 11 0 0
BITMAP
1EC0
7FC0
71C0
E0C0
C000
C000
C7F8
E7F8
70C0
7FC0
1F80
ENDCHAR
STARTCHAR uni01E5
ENCODING 485
SWIDTH 600 0
DWIDTH 11 0
BBX 10 13 0 -4
BITMAP
3DC0
7FC0
E380
C180
C180
C180
E380
7F80
FFC0
FFC0
0380
3F00
3E00
ENDCHAR
STARTCHAR Gcaron
ENCODING 486
SWIDTH 600 0
DWIDTH 11 0
BBX 11 15 0 0
BITMAP
1980
0F00
0600
0000
1EC0
7FC0
71C0
E0C0
C000
C000
C7E0
E7E0
70C0
7FC0
1F80
ENDCHAR
STARTCHAR gcaron
ENCODING 487
SWIDTH 600 0
DWIDTH 11 0
BBX 10 17 0 -4
BITMAP
3300
1E00
0C00
0000
3DC0
7FC0
E380
C180
C180
C180
E380
7F80
3D80
0180
0380
3F00
3E00
ENDCHAR
STARTCHAR uni01E8
ENCODING 488
SWIDTH 600 0
DWIDTH 11 0
BBX 11 15 0 0
BITMAP
3300
1E00
0C00
0000
F7C0
F7C0
6300
6600
6C00
7C00
7E00
6700
6380
F9E0
F9E0
ENDCHAR
STARTCHAR uni01E9
ENCODING 489
SWIDTH 600 0
DWIDTH 11 0
BBX 10 16 0 0
BITMAP
6600
3C00
1800
0000
E000
E000
6000
6780
6780
6E00
7C00
7C00
6E00
6700
E3C0
E3C0
ENDCHAR
STARTCHAR uni01EA
ENCODING 490
SWIDTH 600 0
DWIDTH 11 0
BBX 10 15 0 -4
BITMAP
1E00
7F80
7380
E1C0
C0C0
C0C0
C0C0
E1C0
7380
7F80
1E00
0C00
1800
1800
0E00
ENDCHAR
STARTCHAR uni01EB
ENCODING 491
SWIDTH 600 0
DWIDTH 11 0
BBX 10 13 0 -4
BITMAP
1E00
7F80
E1C0
C0C0
C0C0
C0C0
E1C0
7F80
1E00
0C00
1800
1800
0E00
ENDCHAR
STARTCHAR uni01EC
ENCODING 492
SWIDTH 600 0
DWIDTH 11 0
BBX 10 18 0 -4
BITMAP
1F00
1F00
0000
1E00
7F80
7380
E1C0
C0C0
C0C0
C0C0
E1C0
7380
7F80
1E00
0C00
1800
1800
0E00
ENDCHAR
STARTCHAR uni01ED
ENCODING 493
SWIDTH 600 0
DWIDTH 11 0
BBX 10 16 0 -4
BITMAP
1F00
1F00
0000
1E00
7F80
E1C0
C0C0
C0C0
C0C0
E1C0
7F80
1E00
0C00
1800
1800
0E00
ENDCHAR
STARTCHAR uni01F0
ENCODING 496
SWIDTH 600 0
DWIDTH 11 0
BBX 7 17 1 -4
BITMAP
66
3C
18
00
FE
FE
06
06
06
06
06
06
06
06
0E
FC
F8
ENDCHAR
STARTCHAR uni01F4
ENCODING 500
SWIDTH 600 0
DWIDTH 11 0
BBX 11 15 0 0
BITMAP
0300
0600
0C00
0000
1EC0
7FC0
71C0
E0C0
C000
C000
C7E0
E7E0
70C0
7FC0
1F80
ENDCHAR
STARTCHAR uni01F5
ENCODING 501
SWIDTH 600 0
DWIDTH 11 0
BBX 10 17 0 -4
BITMAP
0300
0600
0C00
0000
3DC0
7FC0
E380
C180
C180
C180
E380
7F80
3D80
0180
0380
3F00
3E00
ENDCHAR
STARTCHAR uni01F8
ENCODING 504
SWIDTH 600 0
DWIDTH 11 0
BBX 10 15 0 0
BITMAP
3000
1800
0C00
0000
E7C0
F7C0
7180
7980
6980
6D80
6580
6780
6380
FB80
F980
ENDCHAR
STARTCHAR uni01F9
ENCODING 505
SWIDTH 600 0
DWIDTH 11 0
BBX 10 13 0 0
BITMAP
3000
1800
0C00
0000
EF00
FF80
7180
6180
6180
6180
6180
F3C0
F3C0
ENDCHAR
STARTCHAR Aringacute
ENCODING 506
SWIDTH 600 0
DWIDTH 11 0
BBX 12 19 -1 0
BITMAP
0180
0300
0600
0000
0600
0900
0900
0600
3E00
3F00
0F00
0F00
1980
1980
3FC0
3FC0
30C0
F9F0
F9F0
ENDCHAR
STARTCHAR aringacute
ENCODING 507
SWIDTH 600 0
DWIDTH 11 0
BBX 10 18 0 0
BITMAP
0300
0600
0C00
0000
0C00
1200
1200
0C00
0000
3F00
7F80
6180
0180
7F80
FF80
C180
FFC0
7DC0
ENDCHAR
STARTCHAR AEacute
ENCODING 508
SWIDTH 600 0
DWIDTH 11 0
BBX 11 15 0 0
BITMAP
0180
0300
0600
0000
3FE0
3FE0
1E60
3600
37C0
27C0
7E00
7E00
6660
EFE0
EFE0
ENDCHAR
STARTCHAR aeacute
ENCODING 509
SWIDTH 600 0
DWIDTH 11 0
BBX 10 13 0 0
BITMAP
0300
0600
0C00
0000
7B80
FFC0
CCC0
0CC0
7FC0
FFC0
CC00
FFC0
7B80
ENDCHAR
STARTCHAR Oslashacute
ENCODING 510
SWIDTH 600 0
DWIDTH 11 0
BBX 12 17 -1 -1
BITMAP
0180
0300
0600
0000
0030
0F60
3FC0
31C0
6360
6660
6660
6C60
7860
30C0
3FC0
6F00
C000
ENDCHAR
STARTCHAR oslashacute
ENCODING 511
SWIDTH 600 0
DWIDTH 11 0
BBX 12 15 -1 -1
BITMAP
0180
0300
0600
0000
0030
0F60
3FC0
71E0
6360
6660
6C60
78E0
3FC0
6F00
C000
ENDCHAR
STARTCHAR uni0200
ENCODING 512
SWIDTH 600 0
DWIDTH 11 0
BBX 12 15 -1 0
BITMAP
6C00
3600
1B00
0000
3E00
3F00
0F00
1980
1980
1980
3FC0
3FC0
30C0
F9F0
F9F0
ENDCHAR
STARTCHAR uni0201
ENCODING 513
SWIDTH 600 0
DWIDTH 11 0
BBX 10 13 0 0
BITMAP
6C00
3600
1B00
0000
3F00
7F80
6180
0180
7F80
FF80
C180
FFC0
7DC0
ENDCHAR
STARTCHAR uni0202
ENCODING 514
SWIDTH 600 0
DWIDTH 11 0
BBX 12 14 -1 0
BITMAP
1E00
3300
0000
3E00
3F00
0F00
1980
1980
1980
3FC0
3FC0
30C0
F9F0
F9F0
ENDCHAR
STARTCHAR uni0203
ENCODING 515
SWIDTH 600 0
DWIDTH 11 0
BBX 10 12 0 0
BITMAP
1E00
3300
0000
3F00
7F80
6180
0180
7F80
FF80
C180
FFC0
7DC0
ENDCHAR
STARTCHAR uni0204
ENCODING 516
SWIDTH 600 0
DWIDTH 11 0
BBX 10 15 0 0
BITMAP
6C00
3600
1B00
0000
FFC0
FFC0
30C0
36C0
3E00
3E00
3600
30C0
30C0
FFC0
FFC0
ENDCHAR
STARTCHAR uni0205
ENCODING 517
SWIDTH 600 0
DWIDTH 11 0
BBX 10 13 0 0
BITMAP
6C00
3600
1B00
0000
1E00
7F80
E1C0
C0C0
FFC0
FFC0
E000
7FC0
1FC0
ENDCHAR
STARTCHAR uni0206
ENCODING 518
SWIDTH 600 0
DWIDTH 11 0
BBX 10 14 0 0
BITMAP
1E00
3300
0000
FFC0
FFC0
30C0
36C0
3E00
3E00
3600
30C0
30C0
FFC0
FFC0
ENDCHAR
STARTCHAR uni0207
ENCODING 519
SWIDTH 600 0
DWIDTH 11 0
BBX 10 12 0 0
BITMAP
1E00
3300
0000
1E00
7F80
E1C0
C0C0
FFC0
FFC0
E000
7FC0
1FC0
ENDCHAR
STARTCHAR uni0208
ENCODING 520
SWIDTH 600 0
DWIDTH 11 0
BBX 8 15 1 0
BITMAP
D8
6C
36
00
FF
FF
18
18
18
18
18
18
18
FF
FF
ENDCHAR
STARTCHAR uni0209
ENCODING 521
SWIDTH 600 0
DWIDTH 11 0
BBX 9 13 0 0
BITMAP
D800
6C00
3600
0000
7C00
7C00
0C00
0C00
0C00
0C00
0C00
7F80
7F80
ENDCHAR
STARTCHAR uni020A
ENCODING 522
SWIDTH 600 0
DWIDTH 11 0
BBX 8 14 1 0
BITMAP
3C
66
00
FF
FF
18
18
18
18
18
18
18
FF
FF
ENDCHAR
STARTCHAR uni020B
ENCODING 523
SWIDTH 600 0
DWIDTH 11 0
BBX 8 12 1 0
BITMAP
78
CC
00
F8
F8
18
18
18
18
18
FF
FF
ENDCHAR
STARTCHAR uni020C
ENCODING 524
SWIDTH 600 0
DWIDTH 11 0
BBX 10 15 0 0
BITMAP
6C00
3600
1B00
0000
1E00
7F80
7380
E1C0
C0C0
C0C0
C0C0
E1C0
7380
7F80
1E00
ENDCHAR
STARTCHAR uni020D
ENCODING 525
SWIDTH 600 0
DWIDTH 11 0
BBX 10 13 0 0
BITMAP
6C00
3600
1B00
0000
1E00
7F80
E1C0
C0C0
C0C0
C0C0
E1C0
7F80
1E00
ENDCHAR
STARTCHAR uni020E
ENCODING 526
SWIDTH 600 0
DWIDTH 11 0
BBX 10 14 0 0
BITMAP
1E00
3300
0000
1E00
7F80
7380
E1C0
C0C0
C0C0
C0C0
E1C0
7380
7F80
1E00
ENDCHAR
STARTCHAR uni020F
ENCODING 527
SWIDTH 600 0
DWIDTH 11 0
BBX 10 12 0 0
BITMAP
1E00
3300
0000
1E00
7F80
E1C0
C0C0
C0C0
C0C0
E1C0
7F80
1E00
ENDCHAR
STARTCHAR uni0210
ENCODING 528
SWIDTH 600 0
DWIDTH 11 0
BBX 11 15 0 0
BITMAP
6C00
3600
1B00
0000
FF00
FF80
61C0
60C0
61C0
7F80
7F00
6380
61C0
FCE0
FCE0
ENDCHAR
STARTCHAR uni0211
ENCODING 529
SWIDTH 600 0
DWIDTH 11 0
BBX 10 13 0 0
BITMAP
6C00
3600
1B00
0000
F380
FFC0
3CC0
3800
3000
3000
3000
FF00
FF00
ENDCHAR
STARTCHAR uni0212
ENCODING 530
SWIDTH 600 0
DWIDTH 11 0
BBX 11 14 0 0
BITMAP
1E00
3300
0000
FF00
FF80
61C0
60C0
61C0
7F80
7F00
6380
61C0
FCE0
FCE0
ENDCHAR
STARTCHAR uni0213
ENCODING 531
SWIDTH 600 0
DWIDTH 11 0
BBX 10 12 0 0
BITMAP
1E00
3300
0000
F380
FFC0
3CC0
3800
3000
3000
3000
FF00
FF00
ENDCHAR
STARTCHAR uni0214
ENCODING 532
SWIDTH 600 0
DWIDTH 11 0
BBX 10 15 0 0
BITMAP
6C00
3600
1B00
0000
F7C0
F7C0
6180
6180
6180
6180
6180
6180
7380
3F00
1E00
ENDCHAR
STARTCHAR uni0215
ENCODING 533
SWIDTH 600 0
DWIDTH 11 0
BBX 10 13 0 0
BITMAP
6C00
3600
1B00
0000
E780
E780
6180
6180
6180
6180
6380
7FC0
3DC0
ENDCHAR
STARTCHAR uni0216
ENCODING 534
SWIDTH 600 0
DWIDTH 11 0
BBX 10 14 0 0
BITMAP
1E00
3300
0000
F7C0
F7C0
6180
6180
6180
6180
6180
6180
7380
3F00
1E00
ENDCHAR
STARTCHAR uni0217
ENCODING 535
SWIDTH 600 0
DWIDTH 11 0
BBX 10 12 0 0
BITMAP
1E00
3300
0000
E780
E780
6180
6180
6180
6180
6380
7FC0
3DC0
ENDCHAR
STARTCHAR Scommaaccent
ENCODING 536
SWIDTH 600 0
DWIDTH 11 0
BBX 9 17 1 -6
BITMAP
3D80
FF80
C380
C180
F800
7F00
0F80
C180
E180
FF00
DE00
0000
1800
1800
3000
2000
4000
ENDCHAR
STARTCHAR scommaaccent
ENCODING 537
SWIDTH 600 0
DWIDTH 11 0
BBX 8 15 1 -6
BITMAP
7F
FF
C3
F0
7E
1F
C3
FF
FE
00
18
18
30
20
40
ENDCHAR
STARTCHAR Tcommaaccent
ENCODING 538
SWIDTH 600 0
DWIDTH 11 0
BBX 10 17 0 -6
BITMAP
FFC0
FFC0
CCC0
CCC0
CCC0
0C00
0C00
0C00
0C00
7F80
7F80
0000
0C00
0C00
1800
1000
2000
ENDCHAR
STARTCHAR tcommaaccent
ENCODING 539
SWIDTH 600 0
DWIDTH 11 0
BBX 10 18 0 -6
BITMAP
3000
3000
3000
FF00
FF00
3000
3000
3000
3000
30C0
3FC0
1F00
0000
0600
0600
0C00
0800
1000
ENDCHAR
STARTCHAR uni021E
ENCODING 542
SWIDTH 600 0
DWIDTH 11 0
BBX 10 15 0 0
BITMAP
3300
1E00
0C00
0000
F3C0
F3C0
6180
6180
7F80
7F80
6180
6180
6180
F3C0
F3C0
ENDCHAR
STARTCHAR uni021F
ENCODING 543
SWIDTH 600 0
DWIDTH 11 0
BBX 10 16 0 0
BITMAP
6600
3C00
1800
0000
E000
E000
6000
6F00
7F80
7180
6180
6180
6180
6180
F3C0
F3C0
ENDCHAR
STARTCHAR uni0226
ENCODING 550
SWIDTH 600 0
DWIDTH 11 0
BBX 12 14 -1 0
BITMAP
0C00
0C00
0000
3E00
3F00
0F00
1980
1980
1980
3FC0
3FC0
30C0
F9F0
F9F0
ENDCHAR
STARTCHAR uni0227
ENCODING 551
SWIDTH 600 0
DWIDTH 11 0
BBX 10 12 0 0
BITMAP
0C00
0C00
0000
3F00
7F80
6180
0180
7F80
FF80
C180
FFC0
7DC0
ENDCHAR
STARTCHAR uni0228
ENCODING 552
SWIDTH 600 0
DWIDTH 11 0
BBX 10 15 0 -4
BITMAP
FFC0
FFC0
30C0
36C0
3E00
3E00
3600
30C0
30C0
FFC0
FFC0
0C00
0600
1E00
1C00
ENDCHAR
STARTCHAR uni0229
ENCODING 553
SWIDTH 600 0
DWIDTH 11 0
BBX 10 13 0 -4
BITMAP
1E00
7F80
E1C0
C0C0
FFC0
FFC0
E000
7FC0
1FC0
0C00
0600
1E00
1C00
ENDCHAR
STARTCHAR uni022A
ENCODING 554
SWIDTH 600 0
DWIDTH 11 0
BBX 10 17 0 0
BITMAP
1F00
1F00
0000
3300
3300
0000
1E00
7F80
6180
C0C0
C0C0
C0C0
C0C0
C0C0
6180
7F80
1E00
ENDCHAR
STARTCHAR uni022B
ENCODING 555
SWIDTH 600 0
DWIDTH 11 0
BBX 10 15 0 0
BITMAP
1F00
1F00
0000
3300
3300
0000
1E00
7F80
E1C0
C0C0
C0C0
C0C0
E1C0
7F80
1E00
ENDCHAR
STARTCHAR uni022C
ENCODING 556
SWIDTH 600 0
DWIDTH 11 0
BBX 10 17 0 0
BITMAP
3E00
3E00
0000
3B00
6E00
0000
1E00
7F80
6180
C0C0
C0C0
C0C0
C0C0
C0C0
6180
7F80
1E00
ENDCHAR
STARTCHAR uni022D
ENCODING 557
SWIDTH 600 0
DWIDTH 11 0
BBX 10 15 0 0
BITMAP
3E00
3E00
0000
3B00
6E00
0000
1E00
7F80
E1C0
C0C0
C0C0
C0C0
E1C0
7F80
1E00
ENDCHAR
STARTCHAR uni022E
ENCODING 558
SWIDTH 600 0
DWIDTH 11 0
BBX 10 14 0 0
BITMAP
0C00
0C00
0000
1E00
7F80
7380
E1C0
C0C0
C0C0
C0C0
E1C0
7380
7F80
1E00
ENDCHAR
STARTCHAR uni022F
ENCODING 559
SWIDTH 600 0
DWIDTH 11 0
BBX 10 12 0 0
BITMAP
0C00
0C00
0000
1E00
7F80
E1C0
C0C0
C0C0
C0C0
E1C0
7F80
1E00
ENDCHAR
STARTCHAR uni0230
ENCODING 560
SWIDTH 600 0
DWIDTH 11 0
BBX 10 17 0 0
BITMAP
1F00
1F00
0000
0C00
0C00
0000
1E00
7F80
7380
E1C0
C0C0
C0C0
C0C0
E1C0
7380
7F80
1E00
ENDCHAR
STARTCHAR uni0231
ENCODING 561
SWIDTH 600 0
DWIDTH 11 0
BBX 10 15 0 0
BITMAP
1F00
1F00
0000
0C00
0C00
0000
1E00
7F80
E1C0
C0C0
C0C0
C0C0
E1C0
7F80
1E00
ENDCHAR
STARTCHAR uni0232
ENCODING 562
SWIDTH 600 0
DWIDTH 11 0
BBX 10 14 0 0
BITMAP
1F00
1F00
0000
F3C0
F3C0
6180
3300
3F00
1E00
0C00
0C00
0C00
3F00
3F00
ENDCHAR
STARTCHAR uni0233
ENCODING 563
SWIDTH 600 0
DWIDTH 11 0
BBX 10 16 0 -4
BITMAP
1F00
1F00
0000
F3C0
F3C0
6180
6180
3300
3300
1E00
1E00
0C00
1800
3800
FC00
FC00
ENDCHAR
STARTCHAR uni0250
ENCODING 592
SWIDTH 600 0
DWIDTH 11 0
BBX 10 9 0 0
BITMAP
EF80
FFC0
60C0
7FC0
7F80
6000
6180
7F80
3F00
ENDCHAR
STARTCHAR uni0254
ENCODING 596
SWIDTH 600 0
DWIDTH 11 0
BBX 10 9 0 0
BITMAP
6F00
7F80
71C0
60C0
00C0
00C0
E1C0
FF80
3F00
ENDCHAR
STARTCHAR uni0258
ENCODING 600
SWIDTH 600 0
DWIDTH 11 0
BBX 10 9 0 0
BITMAP
1E00
7F80
E1C0
C0C0
FFC0
FFC0
01C0
FF80
FE00
ENDCHAR
STARTCHAR uni0259
ENCODING 601
SWIDTH 600 0
DWIDTH 11 0
BBX 10 9 0 0
BITMAP
FE00
FF80
01C0
FFC0
FFC0
C0C0
E1C0
7F80
1E00
ENDCHAR
STARTCHAR uni025F
ENCODING 607
SWIDTH 600 0
DWIDTH 11 0
BBX 9 12 1 -3
BITMAP
7F80
7F80
0600
0600
0600
0600
0600
7F80
7F80
0600
FE00
FC00
ENDCHAR
STARTCHAR uni0265
ENCODING 613
SWIDTH 600 0
DWIDTH 11 0
BBX 10 12 0 -3
BITMAP
F3C0
F3C0
6180
6180
6180
6180
6380
7F80
3D80
0180
01C0
01C0
ENDCHAR
STARTCHAR uni0275
ENCODING 629
SWIDTH 600 0
DWIDTH 11 0
BBX 10 9 0 0
BITMAP
1E00
7F80
E1C0
FFC0
FFC0
C0C0
E1C0
7F80
1E00
ENDCHAR
STARTCHAR uni0279
ENCODING 633
SWIDTH 600 0
DWIDTH 11 0
BBX 10 9 0 0
BITMAP
3FC0
3FC0
0300
0300
0300
0700
CF00
FFC0
73C0
ENDCHAR
STARTCHAR uni0287
ENCODING 647
SWIDTH 600 0
DWIDTH 11 0
BBX 10 12 0 0
BITMAP
3E00
FF00
C300
0300
0300
0300
0300
3FC0
3FC0
0300
0300
0300
ENDCHAR
STARTCHAR uni0288
ENCODING 648
SWIDTH 600 0
DWIDTH 11 0
BBX 9 16 0 -4
BITMAP
3000
3000
3000
FF00
FF00
3000
3000
3000
3000
3000
3000
3000
3000
3800
1F80
0F80
ENDCHAR
STARTCHAR uni0289
ENCODING 649
SWIDTH 600 0
DWIDTH 11 0
BBX 10 9 0 0
BITMAP
E780
E780
6180
FFC0
FFC0
6180
6380
7FC0
3DC0
ENDCHAR
STARTCHAR uni028C
ENCODING 652
SWIDTH 600 0
DWIDTH 11 0
BBX 10 9 0 0
BITMAP
0C00
1E00
1E00
3300
3300
6180
6180
F3C0
F3C0
ENDCHAR
STARTCHAR uni028D
ENCODING 653
SWIDTH 600 0
DWIDTH 11 0
BBX 11 9 0 0
BITMAP
3180
3180
3B80
7BC0
6EC0
6EC0
64C0
F1E0
F1E0
ENDCHAR
STARTCHAR uni028E
ENCODING 654
SWIDTH 600 0
DWIDTH 11 0
BBX 10 13 0 0
BITMAP
0FC0
0FC0
0700
0600
0C00
1E00
1E00
3300
3300
6180
6180
F3C0
F3C0
ENDCHAR
STARTCHAR uni029E
ENCODING 670
SWIDTH 600 0
DWIDTH 11 0
BBX 10 12 0 -3
BITMAP
F1C0
F1C0
3980
1D80
0F80
0F80
1D80
7980
7980
0180
01C0
01C0
ENDCHAR
STARTCHAR uni02BB
ENCODING 699
SWIDTH 600 0
DWIDTH 11 0
BBX 4 5 4 7
BITMAP
C0
C0
60
20
10
ENDCHAR
STARTCHAR afii57929
ENCODING 700
SWIDTH 600 0
DWIDTH 11 0
BBX 4 5 3 7
BITMAP
30
30
60
40
80
ENDCHAR
STARTCHAR afii64937
ENCODING 701
SWIDTH 600 0
DWIDTH 11 0
BBX 4 5 3 7
BITMAP
C0
C0
60
20
10
ENDCHAR
STARTCHAR circumflex
ENCODING 710
SWIDTH 600 0
DWIDTH 11 0
BBX 6 3 2 9
BITMAP
30
78
CC
ENDCHAR
STARTCHAR caron
ENCODING 711
SWIDTH 600 0
DWIDTH 11 0
BBX 6 3 2 9
BITMAP
CC
78
30
ENDCHAR
STARTCHAR uni02C8
ENCODING 712
SWIDTH 600 0
DWIDTH 11 0
BBX 2 6 4 6
BITMAP
C0
C0
C0
C0
80
80
ENDCHAR
STARTCHAR macron
ENCODING 713
SWIDTH 600 0
DWIDTH 11 0
BBX 5 2 2 9
BITMAP
F8
F8
ENDCHAR
STARTCHAR uni02CA
ENCODING 714
SWIDTH 600 0
DWIDTH 11 0
BBX 4 3 4 9
BITMAP
30
60
C0
ENDCHAR
STARTCHAR uni02CB
ENCODING 715
SWIDTH 600 0
DWIDTH 11 0
BBX 4 3 3 9
BITMAP
C0
60
30
ENDCHAR
STARTCHAR uni02CD
ENCODING 717
SWIDTH 600 0
DWIDTH 11 0
BBX 5 2 2 -3
BITMAP
F8
F8
ENDCHAR
STARTCHAR uni02CE
ENCODING 718
SWIDTH 600 0
DWIDTH 11 0
BBX 4 3 3 -4
BITMAP
C0
60
30
ENDCHAR
STARTCHAR uni02CF
ENCODING 719
SWIDTH 600 0
DWIDTH 11 0
BBX 4 3 4 -4
BITMAP
30
60
C0
ENDCHAR
STARTCHAR breve
ENCODING 728
SWIDTH 600 0
DWIDTH 11 0
BBX 6 2 2 9
BITMAP
CC
78
ENDCHAR
STARTCHAR dotaccent
ENCODING 729
SWIDTH 600 0
DWIDTH 11 0
BBX 2 2 4 9
BITMAP
C0
C0
ENDCHAR
STARTCHAR ring
ENCODING 730
SWIDTH 600 0
DWIDTH 11 0
BBX 4 4 3 8
BITMAP
60
90
90
60
ENDCHAR
STARTCHAR ogonek
ENCODING 731
SWIDTH 600 0
DWIDTH 11 0
BBX 4 4 3 -4
BITMAP
60
C0
C0
70
ENDCHAR
STARTCHAR tilde
ENCODING 732
SWIDTH 600 0
DWIDTH 11 0
BBX 7 2 2 9
BITMAP
76
DC
ENDCHAR
STARTCHAR hungarumlaut
ENCODING 733
SWIDTH 600 0
DWIDTH 11 0
BBX 7 3 2 9
BITMAP
36
6C
D8
ENDCHAR
STARTCHAR uni02EE
ENCODING 750
SWIDTH 600 0
DWIDTH 11 0
BBX 7 5 2 7
BITMAP
36
36
6C
6C
D8
ENDCHAR
STARTCHAR uni037E
ENCODING 894
SWIDTH 600 0
DWIDTH 11 0
BBX 4 11 2 -3
BITMAP
30
30
00
00
00
00
30
30
60
40
80
ENDCHAR
STARTCHAR tonos
ENCODING 900
SWIDTH 600 0
DWIDTH 11 0
BBX 4 3 4 9
BITMAP
30
60
C0
ENDCHAR
STARTCHAR dieresistonos
ENCODING 901
SWIDTH 600 0
DWIDTH 11 0
BBX 6 6 2 9
BITMAP
0C
18
30
00
CC
CC
ENDCHAR
STARTCHAR anoteleia
ENCODING 903
SWIDTH 600 0
DWIDTH 11 0
BBX 2 3 4 3
BITMAP
C0
C0
C0
ENDCHAR
STARTCHAR mu
ENCODING 956
SWIDTH 600 0
DWIDTH 11 0
BBX 10 13 0 -4
BITMAP
E780
E780
6180
6180
6180
6180
6380
7FC0
7DC0
6000
6000
6000
6000
ENDCHAR
STARTCHAR uni1E00
ENCODING 7680
SWIDTH 600 0
DWIDTH 11 0
BBX 12 16 -1 -5
BITMAP
3E00
3F00
0F00
1980
1980
1980
3FC0
3FC0
30C0
F9F0
F9F0
0000
0600
0900
0900
0600
ENDCHAR
STARTCHAR uni1E01
ENCODING 7681
SWIDTH 600 0
DWIDTH 11 0
BBX 10 14 0 -5
BITMAP
3F00
7F80
6180
0180
7F80
FF80
C180
FFC0
7DC0
0000
0C00
1200
1200
0C00
ENDCHAR
STARTCHAR uni1E02
ENCODING 7682
SWIDTH 600 0
DWIDTH 11 0
BBX 10 14 0 0
BITMAP
1800
1800
0000
FE00
FF00
3180
3180
3F00
3F80
30C0
30C0
30C0
FF80
FF00
ENDCHAR
STARTCHAR uni1E03
ENCODING 7683
SWIDTH 600 0
DWIDTH 11 0
BBX 10 15 0 0
BITMAP
1800
1800
0000
E000
E000
6000
6F00
7F80
71C0
60C0
60C0
60C0
71C0
FF80
EF00
ENDCHAR
STARTCHAR uni1E04
ENCODING 7684
SWIDTH 600 0
DWIDTH 11 0
BBX 10 14 0 -3
BITMAP
FE00
FF00
3180
3180
3F00
3F80
30C0
30C0
30C0
FF80
FF00
0000
0C00
0C00
ENDCHAR
STARTCHAR uni1E05
ENCODING 7685
SWIDTH 600 0
DWIDTH 11 0
BBX 10 15 0 -3
BITMAP
E000
E000
6000
6F00
7F80
71C0
60C0
60C0
60C0
71C0
FF80
EF00
0000
0C00
0C00
ENDCHAR
STARTCHAR uni1E06
ENCODING 7686
SWIDTH 600 0
DWIDTH 11 0
BBX 10 14 0 -3
BITMAP
FE00
FF00
3180
3180
3F00
3F80
30C0
30C0
30C0
FF80
FF00
0000
3E00
3E00
ENDCHAR
STARTCHAR uni1E07
ENCODING 7687
SWIDTH 600 0
DWIDTH 11 0
BBX 10 15 0 -3
BITMAP
E000
E000
6000
6F00
7F80
71C0
60C0
60C0
60C0
71C0
FF80
EF00
0000
3E00
3E00
ENDCHAR
STARTCHAR uni1E08
ENCODING 7688
SWIDTH 600 0
DWIDTH 11 0
BBX 10 20 0 -5
BITMAP
0300
0600
0C00
0000
1EC0
7FC0
61C0
C0C0
C000
C000
C000
C000
60C0
7FC0
3F00
0800
0C00
0200
1E00
1C00
ENDCHAR
STARTCHAR uni1E09
ENCODING 7689
SWIDTH 600 0
DWIDTH 11 0
BBX 10 18 0 -5
BITMAP
0300
0600
0C00
0000
3D80
7F80
E380
C180
C000
C000
E1C0
7FC0
3F00
0800
0C00
0600
1E00
1C00
ENDCHAR
STARTCHAR uni1E0A
ENCODING 7690
SWIDTH 600 0
DWIDTH 11 0
BBX 10 14 0 0
BITMAP
0C00
0C00
0000
FE00
FF80
6380
61C0
60C0
60C0
60C0
61C0
6380
FF80
FE00
ENDCHAR
STARTCHAR uni1E0B
ENCODING 7691
SWIDTH 600 0
DWIDTH 11 0
BBX 10 15 0 0
BITMAP
0600
0600
0000
0380
0380
0180
3D80
7F80
E380
C180
C180
C180
E380
7FC0
3DC0
ENDCHAR
STARTCHAR uni1E0C
ENCODING 7692
SWIDTH 600 0
DWIDTH 11 0
BBX 10 14 0 -3
BITMAP
FE00
FF80
6380
61C0
60C0
60C0
60C0
61C0
6380
FF80
FE00
0000
0C00
0C00
ENDCHAR
STARTCHAR uni1E0D
ENCODING 7693
SWIDTH 600 0
DWIDTH 11 0
BBX 10 15 0 -3
BITMAP
0380
0380
0180
3D80
7F80
E380
C180
C180
C180
E380
7FC0
3DC0
0000
0C00
0C00
ENDCHAR
STARTCHAR uni1E0E
ENCODING 7694
SWIDTH 600 0
DWIDTH 11 0
BBX 10 14 0 -3
BITMAP
FE00
FF80
6380
61C0
60C0
60C0
60C0
61C0
6380
FF80
FE00
0000
3E00
3E00
ENDCHAR
STARTCHAR uni1E0F
ENCODING 7695
SWIDTH 600 0
DWIDTH 11 0
BBX 10 15 0 -3
BITMAP
0380
0380
0180
3D80
7F80
E380
C180
C180
C180
E380
7FC0
3DC0
0000
1F00
1F00
ENDCHAR
STARTCHAR uni1E10
ENCODING 7696
SWIDTH 600 0
DWIDTH 11 0
BBX 10 15 0 -4
BITMAP
FE00
FF80
6380
61C0
60C0
60C0
60C0
61C0
6380
FF80
FE00
0C00
0600
1E00
1C00
ENDCHAR
STARTCHAR uni1E11
ENCODING 7697
SWIDTH 600 0
DWIDTH 11 0
BBX 10 16 0 -4
BITMAP
0380
0380
0180
3D80
7F80
E380
C180
C180
C180
E380
7FC0
3DC0
0C00
0600
1E00
1C00
ENDCHAR
STARTCHAR uni1E12
ENCODING 7698
SWIDTH 600 0
DWIDTH 11 0
BBX 10 15 0 -4
BITMAP
FE00
FF80
6380
61C0
60C0
60C0
60C0
61C0
6380
FF80
FE00
0000
0C00
1E00
3300
ENDCHAR
STARTCHAR uni1E13
ENCODING 7699
SWIDTH 600 0
DWIDTH 11 0
BBX 10 16 0 -4
BITMAP
0380
0380
0180
3D80
7F80
E380
C180
C180
C180
E380
7FC0
3DC0
0000
0C00
1E00
3300
ENDCHAR
STARTCHAR uni1E14
ENCODING 7700
SWIDTH 600 0
DWIDTH 11 0
BBX 10 18 0 0
BITMAP
1800
0C00
0600
0000
1F00
1F00
0000
FFC0
FFC0
30C0
36C0
3E00
3E00
3600
30C0
30C0
FFC0
FFC0
ENDCHAR
STARTCHAR uni1E15
ENCODING 7701
SWIDTH 600 0
DWIDTH 11 0
BBX 10 16 0 0
BITMAP
1800
0C00
0600
0000
1F00
1F00
0000
1E00
7F80
E1C0
C0C0
FFC0
FFC0
E000
7FC0
1FC0
ENDCHAR
STARTCHAR uni1E16
ENCODING 7702
SWIDTH 600 0
DWIDTH 11 0
BBX 10 18 0 0
BITMAP
0300
0600
0C00
0000
1F00
1F00
0000
FFC0
FFC0
30C0
36C0
3E00
3E00
3600
30C0
30C0
FFC0
FFC0
ENDCHAR
STARTCHAR uni1E17
ENCODING 7703
SWIDTH 600 0
DWIDTH 11 0
BBX 10 16 0 0
BITMAP
0300
0600
0C00
0000
1F00
1F00
0000
1E00
7F80
E1C0
C0C0
FFC0
FFC0
E000
7FC0
1FC0
ENDCHAR
STARTCHAR uni1E18
ENCODING 7704
SWIDTH 600 0
DWIDTH 11 0
BBX 10 15 0 -4
BITMAP
FFC0
FFC0
30C0
36C0
3E00
3E00
3600
30C0
30C0
FFC0
FFC0
0000
0C00
1E00
3300
ENDCHAR
STARTCHAR uni1E19
ENCODING 7705
SWIDTH 600 0
DWIDTH 11 0
BBX 10 13 0 -4
BITMAP
1E00
7F80
E1C0
C0C0
FFC0
FFC0
E000
7FC0
1FC0
0000
0C00
1E00
3300
ENDCHAR
STARTCHAR uni1E1A
ENCODING 7706
SWIDTH 600 0
DWIDTH 11 0
BBX 10 14 0 -3
BITMAP
FFC0
FFC0
30C0
36C0
3E00
3E00
3600
30C0
30C0
FFC0
FFC0
0000
3B00
6E00
ENDCHAR
STARTCHAR uni1E1B
ENCODING 7707
SWIDTH 600 0
DWIDTH 11 0
BBX 10 12 0 -3
BITMAP
1E00
7F80
E1C0
C0C0
FFC0
FFC0
E000
7FC0
1FC0
0000
3B00
6E00
ENDCHAR
STARTCHAR uni1E1C
ENCODING 7708
SWIDTH 600 0
DWIDTH 11 0
BBX 10 18 0 -4
BITMAP
3300
1E00
0000
FFC0
FFC0
30C0
36C0
3E00
3E00
3600
30C0
30C0
FFC0
FFC0
0C00
0600
1E00
1C00
ENDCHAR
STARTCHAR uni1E1D
ENCODING 7709
SWIDTH 600 0
DWIDTH 11 0
BBX 10 16 0 -4
BITMAP
3300
1E00
0000
1E00
7F80
E1C0
C0C0
FFC0
FFC0
E000
7FC0
1FC0
0C00
0600
1E00
1C00
ENDCHAR
STARTCHAR uni1E1E
ENCODING 7710
SWIDTH 600 0
DWIDTH 11 0
BBX 10 14 0 0
BITMAP
0C00
0C00
0000
FFC0
FFC0
30C0
36C0
3E00
3E00
3600
3000
3000
FE00
FE00
ENDCHAR
STARTCHAR uni1E1F
ENCODING 7711
SWIDTH 600 0
DWIDTH 11 0
BBX 9 15 1 0
BITMAP
0C00
0C00
0000
1F80
3F80
3000
FF00
FF00
3000
3000
3000
3000
3000
FF00
FF00
ENDCHAR
STARTCHAR uni1E20
ENCODING 7712
SWIDTH 600 0
DWIDTH 11 0
BBX 11 14 0 0
BITMAP
1F00
1F00
0000
1EC0
7FC0
71C0
E0C0
C000
C000
C7E0
E7E0
70C0
7FC0
1F80
ENDCHAR
STARTCHAR uni1E21
ENCODING 7713
SWIDTH 600 0
DWIDTH 11 0
BBX 10 16 0 -4
BITMAP
1F00
1F00
0000
3DC0
7FC0
E380
C180
C180
C180
E380
7F80
3D80
0180
0380
3F00
3E00
ENDCHAR
STARTCHAR uni1E22
ENCODING 7714
SWIDTH 600 0
DWIDTH 11 0
BBX 10 14 0 0
BITMAP
0C00
0C00
0000
F3C0
F3C0
6180
6180
7F80
7F80
6180
6180
6180
F3C0
F3C0
ENDCHAR
STARTCHAR uni1E23
ENCODING 7715
SWIDTH 600 0
DWIDTH 11 0
BBX 10 15 0 0
BITMAP
1800
1800
0000
E000
E000
6000
6F00
7F80
7180
6180
6180
6180
6180
F3C0
F3C0
ENDCHAR
STARTCHAR uni1E24
ENCODING 7716
SWIDTH 600 0
DWIDTH 11 0
BBX 10 14 0 -3
BITMAP
F3C0
F3C0
6180
6180
7F80
7F80
6180
6180
6180
F3C0
F3C0
0000
0C00
0C00
ENDCHAR
STARTCHAR uni1E25
ENCODING 7717
SWIDTH 600 0
DWIDTH 11 0
BBX 10 15 0 -3
BITMAP
E000
E000
6000
6F00
7F80
7180
6180
6180
6180
6180
F3C0
F3C0
0000
0C00
0C00
ENDCHAR
STARTCHAR uni1E26
ENCODING 7718
SWIDTH 600 0
DWIDTH 11 0
BBX 10 14 0 0
BITMAP
3300
3300
0000
F3C0
F3C0
6180
6180
7F80
7F80
6180
6180
6180
F3C0
F3C0
ENDCHAR
STARTCHAR uni1E27
ENCODING 7719
SWIDTH 600 0
DWIDTH 11 0
BBX 10 15 0 0
BITMAP
6600
6600
0000
E000
E000
6000
6F00
7F80
7180
6180
6180
6180
6180
F3C0
F3C0
ENDCHAR
STARTCHAR uni1E28
ENCODING 7720
SWIDTH 600 0
DWIDTH 11 0
BBX 10 15 0 -4
BITMAP
F3C0
F3C0
6180
6180
7F80
7F80
6180
6180
6180
F3C0
FBC0
0C00
0600
1E00
1C00
ENDCHAR
STARTCHAR uni1E29
ENCODING 7721
SWIDTH 600 0
DWIDTH 11 0
BBX 10 16 0 -4
BITMAP
E000
E000
6000
6F00
7F80
7180
6180
6180
6180
6180
F3C0
FBC0
0C00
0600
1E00
1C00
ENDCHAR
STARTCHAR uni1E2A
ENCODING 7722
SWIDTH 600 0
DWIDTH 11 0
BBX 10 14 0 -3
BITMAP
F3C0
F3C0
6180
6180
7F80
7F80
6180
6180
6180
F3C0
F3C0
0000
3300
1E00
ENDCHAR
STARTCHAR uni1E2B
ENCODING 7723
SWIDTH 600 0
DWIDTH 11 0
BBX 10 15 0 -3
BITMAP
E000
E000
6000
6F00
7F80
7180
6180
6180
6180
6180
F3C0
F3C0
0000
3300
1E00
ENDCHAR
STARTCHAR uni1E2C
ENCODING 7724
SWIDTH 600 0
DWIDTH 11 0
BBX 8 14 1 -3
BITMAP
FF
FF
18
18
18
18
18
18
18
FF
FF
00
76
DC
ENDCHAR
STARTCHAR uni1E2D
ENCODING 7725
SWIDTH 600 0
DWIDTH 11 0
BBX 8 15 1 -3
BITMAP
18
18
00
F8
F8
18
18
18
18
18
FF
FF
00
76
DC
ENDCHAR
STARTCHAR uni1E2E
ENCODING 7726
SWIDTH 600 0
DWIDTH 11 0
BBX 8 18 1 0
BITMAP
06
0C
18
00
66
66
00
FF
FF
18
18
18
18
18
18
18
FF
FF
ENDCHAR
STARTCHAR uni1E2F
ENCODING 7727
SWIDTH 600 0
DWIDTH 11 0
BBX 8 16 1 0
BITMAP
0C
18
30
00
CC
CC
00
F8
F8
18
18
18
18
18
FF
FF
ENDCHAR
STARTCHAR uni1E30
ENCODING 7728
SWIDTH 600 0
DWIDTH 11 0
BBX 11 15 0 0
BITMAP
0300
0600
0C00
0000
F7C0
F7C0
6300
6600
6C00
7C00
7E00
6700
6380
F9E0
F9E0
ENDCHAR
STARTCHAR uni1E31
ENCODING 7729
SWIDTH 600 0
DWIDTH 11 0
BBX 10 16 0 0
BITMAP
0C00
1800
3000
0000
E000
E000
6000
6780
6780
6E00
7C00
7C00
6E00
6700
E3C0
E3C0
ENDCHAR
STARTCHAR uni1E32
ENCODING 7730
SWIDTH 600 0
DWIDTH 11 0
BBX 11 14 0 -3
BITMAP
F7C0
F7C0
6300
6600
6C00
7C00
7E00
6700
6380
F9E0
F9E0
0000
0C00
0C00
ENDCHAR
STARTCHAR uni1E33
ENCODING 7731
SWIDTH 600 0
DWIDTH 11 0
BBX 10 15 0 -3
BITMAP
E000
E000
6000
6780
6780
6E00
7C00
7C00
6E00
6700
E3C0
E3C0
0000
0C00
0C00
ENDCHAR
STARTCHAR uni1E34
ENCODING 7732
SWIDTH 600 0
DWIDTH 11 0
BBX 11 14 0 -3
BITMAP
F7C0
F7C0
6300
6600
6C00
7C00
7E00
6700
6380
F9E0
F9E0
0000
1F00
1F00
ENDCHAR
STARTCHAR uni1E35
ENCODING 7733
SWIDTH 600 0
DWIDTH 11 0
BBX 10 15 0 -3
BITMAP
E000
E000
6000
6780
6780
6E00
7C00
7C00
6E00
6700
E3C0
E3C0
0000
3E00
3E00
ENDCHAR
STARTCHAR uni1E36
ENCODING 7734
SWIDTH 600 0
DWIDTH 11 0
BBX 10 14 0 -3
BITMAP
FC00
FC00
3000
3000
3000
3000
30C0
30C0
30C0
FFC0
FFC0
0000
0C00
0C00
ENDCHAR
STARTCHAR uni1E37
ENCODING 7735
SWIDTH 600 0
DWIDTH 11 0
BBX 8 15 1 -3
BITMAP
F8
F8
18
18
18
18
18
18
18
18
FF
FF
00
18
18
ENDCHAR
STARTCHAR uni1E38
ENCODING 7736
SWIDTH 600 0
DWIDTH 11 0
BBX 10 17 0 -3
BITMAP
7C00
7C00
0000
FC00
FC00
3000
3000
3000
3000
30C0
30C0
30C0
FFC0
FFC0
0000
0C00
0C00
ENDCHAR
STARTCHAR uni1E39
ENCODING 7737
SWIDTH 600 0
DWIDTH 11 0
BBX 8 18 1 -3
BITMAP
7C
7C
00
F8
F8
18
18
18
18
18
18
18
18
FF
FF
00
18
18
ENDCHAR
STARTCHAR uni1E3A
ENCODING 7738
SWIDTH 600 0
DWIDTH 11 0
BBX 10 14 0 -3
BITMAP
FC00
FC00
3000
3000
3000
3000
30C0
30C0
30C0
FFC0
FFC0
0000
1F00
1F00
ENDCHAR
STARTCHAR uni1E3B
ENCODING 7739
SWIDTH 600 0
DWIDTH 11 0
BBX 8 15 1 -3
BITMAP
F8
F8
18
18
18
18
18
18
18
18
FF
FF
00
3E
3E
ENDCHAR
STARTCHAR uni1E3C
ENCODING 7740
SWIDTH 600 0
DWIDTH 11 0
BBX 10 15 0 -4
BITMAP
FC00
FC00
3000
3000
3000
3000
30C0
30C0
30C0
FFC0
FFC0
0000
0C00
1E00
3300
ENDCHAR
STARTCHAR uni1E3D
ENCODING 7741
SWIDTH 600 0
DWIDTH 11 0
BBX 8 16 1 -4
BITMAP
F8
F8
18
18
18
18
18
18
18
18
FF
FF
00
18
3C
66
ENDCHAR
STARTCHAR uni1E3E
ENCODING 7742
SWIDTH 600 0
DWIDTH 11 0
BBX 10 15 0 0
BITMAP
0300
0600
0C00
0000
E1C0
E1C0
7380
7380
7F80
6D80
6D80
6D80
6180
F3C0
F3C0
ENDCHAR
STARTCHAR uni1E3F
ENCODING 7743
SWIDTH 600 0
DWIDTH 11 0
BBX 12 13 -1 0
BITMAP
0300
0600
0C00
0000
EDC0
FFE0
7760
6660
6660
6660
6660
F770
F770
ENDCHAR
STARTCHAR uni1E40
ENCODING 7744
SWIDTH 600 0
DWIDTH 11 0
BBX 10 14 0 0
BITMAP
0C00
0C00
0000
E1C0
E1C0
7380
7380
7F80
6D80
6D80
6D80
6180
F3C0
F3C0
ENDCHAR
STARTCHAR uni1E41
ENCODING 7745
SWIDTH 600 0
DWIDTH 11 0
BBX 12 12 -1 0
BITMAP
0600
0600
0000
EDC0
FFE0
7760
6660
6660
6660
6660
F770
F770
ENDCHAR
STARTCHAR uni1E42
ENCODING 7746
SWIDTH 600 0
DWIDTH 11 0
BBX 10 14 0 -3
BITMAP
E1C0
E1C0
7380
7380
7F80
6D80
6D80
6D80
6180
F3C0
F3C0
0000
0C00
0C00
ENDCHAR
STARTCHAR uni1E43
ENCODING 7747
SWIDTH 600 0
DWIDTH 11 0
BBX 12 12 -1 -3
BITMAP
EDC0
FFE0
7760
6660
6660
6660
6660
F770
F770
0000
0600
0600
ENDCHAR
STARTCHAR uni1E44
ENCODING 7748
SWIDTH 600 0
DWIDTH 11 0
BBX 10 14 0 0
BITMAP
0C00
0C00
0000
E7C0
F7C0
7180
7980
6980
6D80
6580
6780
6380
FB80
F980
ENDCHAR
STARTCHAR uni1E45
ENCODING 7749
SWIDTH 600 0
DWIDTH 11 0
BBX 10 12 0 0
BITMAP
0C00
0C00
0000
EF00
FF80
7180
6180
6180
6180
6180
F3C0
F3C0
ENDCHAR
STARTCHAR uni1E46
ENCODING 7750
SWIDTH 600 0
DWIDTH 11 0
BBX 10 14 0 -3
BITMAP
E7C0
F7C0
7180
7980
6980
6D80
6580
6780
6380
FB80
F980
0000
0C00
0C00
ENDCHAR
STARTCHAR uni1E47
ENCODING 7751
SWIDTH 600 0
DWIDTH 11 0
BBX 10 12 0 -3
BITMAP
EF00
FF80
7180
6180
6180
6180
6180
F3C0
F3C0
0000
0C00
0C00
ENDCHAR
STARTCHAR uni1E48
ENCODING 7752
SWIDTH 600 0
DWIDTH 11 0
BBX 10 14 0 -3
BITMAP
E7C0
F7C0
7180
7980
6980
6D80
6580
6780
6380
FB80
F980
0000
3E00
3E00
ENDCHAR
STARTCHAR uni1E49
ENCODING 7753
SWIDTH 600 0
DWIDTH 11 0
BBX 10 12 0 -3
BITMAP
EF00
FF80
7180
6180
6180
6180
6180
F3C0
F3C0
0000
1F00
1F00
ENDCHAR
STARTCHAR uni1E4A
ENCODING 7754
SWIDTH 600 0
DWIDTH 11 0
BBX 10 15 0 -4
BITMAP
E7C0
F7C0
7180
7980
6980
6D80
6580
6780
6380
FB80
F980
0000
0C00
1E00
3300
ENDCHAR
STARTCHAR uni1E4B
ENCODING 7755
SWIDTH 600 0
DWIDTH 11 0
BBX 10 13 0 -4
BITMAP
EF00
FF80
7180
6180
6180
6180
6180
F3C0
F3C0
0000
0C00
1E00
3300
ENDCHAR
STARTCHAR uni1E4C
ENCODING 7756
SWIDTH 600 0
DWIDTH 11 0
BBX 10 18 0 0
BITMAP
0600
0C00
1800
0000
3B00
6E00
0000
1E00
7F80
6180
C0C0
C0C0
C0C0
C0C0
C0C0
6180
7F80
1E00
ENDCHAR
STARTCHAR uni1E4D
ENCODING 7757
SWIDTH 600 0
DWIDTH 11 0
BBX 10 16 0 0
BITMAP
0600
0C00
1800
0000
3B00
6E00
0000
1E00
7F80
E1C0
C0C0
C0C0
C0C0
E1C0
7F80
1E00
ENDCHAR
STARTCHAR uni1E4E
ENCODING 7758
SWIDTH 600 0
DWIDTH 11 0
BBX 10 17 0 0
BITMAP
3300
3300
0000
3B00
6E00
0000
1E00
7F80
6180
C0C0
C0C0
C0C0
C0C0
C0C0
6180
7F80
1E00
ENDCHAR
STARTCHAR uni1E4F
ENCODING 7759
SWIDTH 600 0
DWIDTH 11 0
BBX 10 15 0 0
BITMAP
3300
3300
0000
3B00
6E00
0000
1E00
7F80
E1C0
C0C0
C0C0
C0C0
E1C0
7F80
1E00
ENDCHAR
STARTCHAR uni1E50
ENCODING 7760
SWIDTH 600 0
DWIDTH 11 0
BBX 10 18 0 0
BITMAP
1800
0C00
0600
0000
1F00
1F00
0000
1E00
7F80
7380
E1C0
C0C0
C0C0
C0C0
E1C0
7380
7F80
1E00
ENDCHAR
STARTCHAR uni1E51
ENCODING 7761
SWIDTH 600 0
DWIDTH 11 0
BBX 10 16 0 0
BITMAP
1800
0C00
0600
0000
1F00
1F00
0000
1E00
7F80
E1C0
C0C0
C0C0
C0C0
E1C0
7F80
1E00
ENDCHAR
STARTCHAR uni1E52
ENCODING 7762
SWIDTH 600 0
DWIDTH 11 0
BBX 10 18 0 0
BITMAP
0300
0600
0C00
0000
1F00
1F00
0000
1E00
7F80
7380
E1C0
C0C0
C0C0
C0C0
E1C0
7380
7F80
1E00
ENDCHAR
STARTCHAR uni1E53
ENCODING 7763
SWIDTH 600 0
DWIDTH 11 0
BBX 10 16 0 0
BITMAP
0300
0600
0C00
0000
1F00
1F00
0000
1E00
7F80
E1C0
C0C0
C0C0
C0C0
E1C0
7F80
1E00
ENDCHAR
STARTCHAR uni1E54
ENCODING 7764
SWIDTH 600 0
DWIDTH 11 0
BBX 10 15 0 0
BITMAP
0600
0C00
1800
0000
FF00
FF80
61C0
60C0
61C0
7F80
7F00
6000
6000
FC00
FC00
ENDCHAR
STARTCHAR uni1E55
ENCODING 7765
SWIDTH 600 0
DWIDTH 11 0
BBX 10 17 0 -4
BITMAP
0300
0600
0C00
0000
EF00
FF80
71C0
60C0
60C0
60C0
71C0
7F80
6F00
6000
6000
F800
F800
ENDCHAR
STARTCHAR uni1E56
ENCODING 7766
SWIDTH 600 0
DWIDTH 11 0
BBX 10 14 0 0
BITMAP
0C00
0C00
0000
FF00
FF80
61C0
60C0
61C0
7F80
7F00
6000
6000
FC00
FC00
ENDCHAR
STARTCHAR uni1E57
ENCODING 7767
SWIDTH 600 0
DWIDTH 11 0
BBX 10 16 0 -4
BITMAP
0C00
0C00
0000
EF00
FF80
71C0
60C0
60C0
60C0
71C0
7F80
6F00
6000
6000
F800
F800
ENDCHAR
STARTCHAR uni1E58
ENCODING 7768
SWIDTH 600 0
DWIDTH 11 0
BBX 11 14 0 0
BITMAP
0C00
0C00
0000
FF00
FF80
61C0
60C0
61C0
7F80
7F00
6380
61C0
FCE0
FCE0
ENDCHAR
STARTCHAR uni1E59
ENCODING 7769
SWIDTH 600 0
DWIDTH 11 0
BBX 10 12 0 0
BITMAP
0C00
0C00
0000
F380
FFC0
3CC0
3800
3000
3000
3000
FF00
FF00
ENDCHAR
STARTCHAR uni1E5A
ENCODING 7770
SWIDTH 600 0
DWIDTH 11 0
BBX 11 14 0 -3
BITMAP
FF00
FF80
61C0
60C0
61C0
7F80
7F00
6380
61C0
FCE0
FCE0
0000
0C00
0C00
ENDCHAR
STARTCHAR uni1E5B
ENCODING 7771
SWIDTH 600 0
DWIDTH 11 0
BBX 10 12 0 -3
BITMAP
F380
FFC0
3CC0
3800
3000
3000
3000
FF00
FF00
0000
1800
1800
ENDCHAR
STARTCHAR uni1E5C
ENCODING 7772
SWIDTH 600 0
DWIDTH 11 0
BBX 11 17 0 -3
BITMAP
1F00
1F00
0000
FF00
FF80
61C0
60C0
61C0
7F80
7F00
6380
61C0
FCE0
FCE0
0000
0C00
0C00
ENDCHAR
STARTCHAR uni1E5D
ENCODING 7773
SWIDTH 600 0
DWIDTH 11 0
BBX 10 15 0 -3
BITMAP
3E00
3E00
0000
F380
FFC0
3CC0
3800
3000
3000
3000
FF00
FF00
0000
1800
1800
ENDCHAR
STARTCHAR uni1E5E
ENCODING 7774
SWIDTH 600 0
DWIDTH 11 0
BBX 11 14 0 -3
BITMAP
FF00
FF80
61C0
60C0
61C0
7F80
7F00
6380
61C0
FCE0
FCE0
0000
1F00
1F00
ENDCHAR
STARTCHAR uni1E5F
ENCODING 7775
SWIDTH 600 0
DWIDTH 11 0
BBX 10 12 0 -3
BITMAP
F380
FFC0
3CC0
3800
3000
3000
3000
FF00
FF00
0000
3E00
3E00
ENDCHAR
STARTCHAR uni1E60
ENCODING 7776
SWIDTH 600 0
DWIDTH 11 0
BBX 9 14 1 0
BITMAP
0C00
0C00
0000
3D80
FF80
C380
C180
F800
7F00
0F80
C180
E180
FF00
DE00
ENDCHAR
STARTCHAR uni1E61
ENCODING 7777
SWIDTH 600 0
DWIDTH 11 0
BBX 8 12 1 0
BITMAP
18
18
00
7F
FF
C3
F0
7E
1F
C3
FF
FE
ENDCHAR
STARTCHAR uni1E62
ENCODING 7778
SWIDTH 600 0
DWIDTH 11 0
BBX 9 14 1 -3
BITMAP
3D80
FF80
C380
C180
F800
7F00
0F80
C180
E180
FF00
DE00
0000
1800
1800
ENDCHAR
STARTCHAR uni1E63
ENCODING 7779
SWIDTH 600 0
DWIDTH 11 0
BBX 8 12 1 -3
BITMAP
7F
FF
C3
F0
7E
1F
C3
FF
FE
00
18
18
ENDCHAR
STARTCHAR uni1E64
ENCODING 7780
SWIDTH 600 0
DWIDTH 11 0
BBX 9 18 1 0
BITMAP
0C00
0C00
0000
0600
0C00
1800
0000
3D80
FF80
C380
C180
F800
7F00
0F80
C180
E180
FF00
DE00
ENDCHAR
STARTCHAR uni1E65
ENCODING 7781
SWIDTH 600 0
DWIDTH 11 0
BBX 8 16 1 0
BITMAP
0C
0C
00
06
0C
18
00
7F
FF
C3
F0
7E
1F
C3
FF
FE
ENDCHAR
STARTCHAR uni1E66
ENCODING 7782
SWIDTH 600 0
DWIDTH 11 0
BBX 9 17 1 0
BITMAP
0C00
0C00
0000
6600
3C00
1800
3D80
FF80
C380
C180
F800
7F00
0F80
C180
E180
FF00
DE00
ENDCHAR
STARTCHAR uni1E67
ENCODING 7783
SWIDTH 600 0
DWIDTH 11 0
BBX 8 15 1 0
BITMAP
18
18
00
66
3C
18
7F
FF
C3
F0
7E
1F
C3
FF
FE
ENDCHAR
STARTCHAR uni1E68
ENCODING 7784
SWIDTH 600 0
DWIDTH 11 0
BBX 9 17 1 -3
BITMAP
0C00
0C00
0000
3D80
FF80
C380
C180
F800
7F00
0F80
C180
E180
FF00
DE00
0000
1800
1800
ENDCHAR
STARTCHAR uni1E69
ENCODING 7785
SWIDTH 600 0
DWIDTH 11 0
BBX 8 15 1 -3
BITMAP
18
18
00
7F
FF
C3
F0
7E
1F
C3
FF
FE
00
18
18
ENDCHAR
STARTCHAR uni1E6A
ENCODING 7786
SWIDTH 600 0
DWIDTH 11 0
BBX 10 14 0 0
BITMAP
0C00
0C00
0000
FFC0
FFC0
CCC0
CCC0
CCC0
0C00
0C00
0C00
0C00
7F80
7F80
ENDCHAR
STARTCHAR uni1E6B
ENCODING 7787
SWIDTH 600 0
DWIDTH 11 0
BBX 10 15 0 0
BITMAP
1800
1800
0000
3000
3000
3000
FF00
FF00
3000
3000
3000
3000
30C0
3FC0
1F00
ENDCHAR
STARTCHAR uni1E6C
ENCODING 7788
SWIDTH 600 0
DWIDTH 11 0
BBX 10 14 0 -3
BITMAP
FFC0
FFC0
CCC0
CCC0
CCC0
0C00
0C00
0C00
0C00
7F80
7F80
0000
0C00
0C00
ENDCHAR
STARTCHAR uni1E6D
ENCODING 7789
SWIDTH 600 0
DWIDTH 11 0
BBX 10 15 0 -3
BITMAP
3000
3000
3000
FF00
FF00
3000
3000
3000
3000
30C0
3FC0
1F00
0000
0C00
0C00
ENDCHAR
STARTCHAR uni1E6E
ENCODING 7790
SWIDTH 600 0
DWIDTH 11 0
BBX 10 14 0 -3
BITMAP
FFC0
FFC0
CCC0
CCC0
CCC0
0C00
0C00
0C00
0C00
7F80
7F80
0000
1F00
1F00
ENDCHAR
STARTCHAR uni1E6F
ENCODING 7791
SWIDTH 600 0
DWIDTH 11 0
BBX 10 15 0 -3
BITMAP
3000
3000
3000
FF00
FF00
3000
3000
3000
3000
30C0
3FC0
1F00
0000
1F00
1F00
ENDCHAR
STARTCHAR uni1E70
ENCODING 7792
SWIDTH 600 0
DWIDTH 11 0
BBX 10 15 0 -4
BITMAP
FFC0
FFC0
CCC0
CCC0
CCC0
0C00
0C00
0C00
0C00
7F80
7F80
0000
0C00
1E00
3300
ENDCHAR
STARTCHAR uni1E71
ENCODING 7793
SWIDTH 600 0
DWIDTH 11 0
BBX 10 16 0 -4
BITMAP
3000
3000
3000
FF00
FF00
3000
3000
3000
3000
30C0
3FC0
1F00
0000
0C00
1E00
3300
ENDCHAR
STARTCHAR uni1E72
ENCODING 7794
SWIDTH 600 0
DWIDTH 11 0
BBX 10 14 0 -3
BITMAP
F7C0
F7C0
6180
6180
6180
6180
6180
6180
7380
3F00
1E00
0000
3300
3300
ENDCHAR
STARTCHAR uni1E73
ENCODING 7795
SWIDTH 600 0
DWIDTH 11 0
BBX 10 12 0 -3
BITMAP
E780
E780
6180
6180
6180
6180
6380
7FC0
3DC0
0000
3300
3300
ENDCHAR
STARTCHAR uni1E74
ENCODING 7796
SWIDTH 600 0
DWIDTH 11 0
BBX 10 14 0 -3
BITMAP
F7C0
F7C0
6180
6180
6180
6180
6180
6180
7380
3F00
1E00
0000
3B00
6E00
ENDCHAR
STARTCHAR uni1E75
ENCODING 7797
SWIDTH 600 0
DWIDTH 11 0
BBX 10 12 0 -3
BITMAP
E780
E780
6180
6180
6180
6180
6380
7FC0
3DC0
0000
1D80
3700
ENDCHAR
STARTCHAR uni1E76
ENCODING 7798
SWIDTH 600 0
DWIDTH 11 0
BBX 10 15 0 -4
BITMAP
F7C0
F7C0
6180
6180
6180
6180
6180
6180
7380
3F00
1E00
0000
0C00
1E00
3300
ENDCHAR
STARTCHAR uni1E77
ENCODING 7799
SWIDTH 600 0
DWIDTH 11 0
BBX 10 13 0 -4
BITMAP
E780
E780
6180
6180
6180
6180
6380
7FC0
3DC0
0000
0C00
1E00
3300
ENDCHAR
STARTCHAR uni1E78
ENCODING 7800
SWIDTH 600 0
DWIDTH 11 0
BBX 10 18 0 0
BITMAP
0300
0600
0C00
0000
1D80
3700
0000
F7C0
F7C0
6180
6180
6180
6180
6180
6180
7380
3F00
1E00
ENDCHAR
STARTCHAR uni1E79
ENCODING 7801
SWIDTH 600 0
DWIDTH 11 0
BBX 10 16 0 0
BITMAP
0300
0600
0C00
0000
1D80
3700
0000
E780
E780
6180
6180
6180
6180
6380
7FC0
3DC0
ENDCHAR
STARTCHAR uni1E7A
ENCODING 7802
SWIDTH 600 0
DWIDTH 11 0
BBX 10 17 0 0
BITMAP
3300
3300
0000
1F00
1F00
0000
F7C0
F7C0
6180
6180
6180
6180
6180
6180
7380
3F00
1E00
ENDCHAR
STARTCHAR uni1E7B
ENCODING 7803
SWIDTH 600 0
DWIDTH 11 0
BBX 10 15 0 0
BITMAP
3300
3300
0000
3E00
3E00
0000
E780
E780
6180
6180
6180
6180
6380
7FC0
3DC0
ENDCHAR
STARTCHAR uni1E7C
ENCODING 7804
SWIDTH 600 0
DWIDTH 11 0
BBX 12 14 -1 0
BITMAP
0EC0
1B80
0000
F9F0
F9F0
6060
6060
30C0
30C0
1980
1980
0F00
0F00
0600
ENDCHAR
STARTCHAR uni1E7D
ENCODING 7805
SWIDTH 600 0
DWIDTH 11 0
BBX 10 12 0 0
BITMAP
1D80
3700
0000
F3C0
F3C0
6180
6180
3300
3300
1E00
1E00
0C00
ENDCHAR
STARTCHAR uni1E7E
ENCODING 7806
SWIDTH 600 0
DWIDTH 11 0
BBX 12 14 -1 -3
BITMAP
F9F0
F9F0
6060
6060
30C0
30C0
1980
1980
0F00
0F00
0600
0000
0600
0600
ENDCHAR
STARTCHAR uni1E7F
ENCODING 7807
SWIDTH 600 0
DWIDTH 11 0
BBX 10 12 0 -3
BITMAP
F3C0
F3C0
6180
6180
3300
3300
1E00
1E00
0C00
0000
0C00
0C00
ENDCHAR
STARTCHAR Wgrave
ENCODING 7808
SWIDTH 600 0
DWIDTH 11 0
BBX 12 15 -1 0
BITMAP
1800
0C00
0600
0000
F9F0
F9F0
6060
6660
6660
6F60
6F60
39C0
39C0
30C0
30C0
ENDCHAR
STARTCHAR wgrave
ENCODING 7809
SWIDTH 600 0
DWIDTH 11 0
BBX 11 13 0 0
BITMAP
1800
0C00
0600
0000
F1E0
F1E0
64C0
6EC0
6EC0
7BC0
3B80
3180
3180
ENDCHAR
STARTCHAR Wacute
ENCODING 7810
SWIDTH 600 0
DWIDTH 11 0
BBX 12 15 -1 0
BITMAP
0180
0300
0600
0000
F9F0
F9F0
6060
6660
6660
6F60
6F60
39C0
39C0
30C0
30C0
ENDCHAR
STARTCHAR wacute
ENCODING 7811
SWIDTH 600 0
DWIDTH 11 0
BBX 11 13 0 0
BITMAP
0300
0600
0C00
0000
F1E0
F1E0
64C0
6EC0
6EC0
7BC0
3B80
3180
3180
ENDCHAR
STARTCHAR Wdieresis
ENCODING 7812
SWIDTH 600 0
DWIDTH 11 0
BBX 12 14 -1 0
BITMAP
1980
1980
0000
F9F0
F9F0
6060
6660
6660
6F60
6F60
39C0
39C0
30C0
30C0
ENDCHAR
STARTCHAR wdieresis
ENCODING 7813
SWIDTH 600 0
DWIDTH 11 0
BBX 11 12 0 0
BITMAP
1980
1980
0000
F1E0
F1E0
64C0
6EC0
6EC0
7BC0
3B80
3180
3180
ENDCHAR
STARTCHAR uni1E86
ENCODING 7814
SWIDTH 600 0
DWIDTH 11 0
BBX 12 14 -1 0
BITMAP
0600
0600
0000
F9F0
F9F0
6060
6660
6660
6F60
6F60
39C0
39C0
30C0
30C0
ENDCHAR
STARTCHAR uni1E87
ENCODING 7815
SWIDTH 600 0
DWIDTH 11 0
BBX 11 12 0 0
BITMAP
0600
0600
0000
F1E0
F1E0
64C0
6EC0
6EC0
7BC0
3B80
3180
3180
ENDCHAR
STARTCHAR uni1E88
ENCODING 7816
SWIDTH 600 0
DWIDTH 11 0
BBX 12 14 -1 -3
BITMAP
F9F0
F9F0
6060
6660
6660
6F60
6F60
39C0
39C0
30C0
30C0
0000
0600
0600
ENDCHAR
STARTCHAR uni1E89
ENCODING 7817
SWIDTH 600 0
DWIDTH 11 0
BBX 11 12 0 -3
BITMAP
F1E0
F1E0
64C0
6EC0
6EC0
7BC0
3B80
3180
3180
0000
0600
0600
ENDCHAR
STARTCHAR uni1E8A
ENCODING 7818
SWIDTH 600 0
DWIDTH 11 0
BBX 10 14 0 0
BITMAP
0C00
0C00
0000
F3C0
F3C0
6180
3300
1E00
0C00
1E00
3300
6180
F3C0
F3C0
ENDCHAR
STARTCHAR uni1E8B
ENCODING 7819
SWIDTH 600 0
DWIDTH 11 0
BBX 11 12 0 0
BITMAP
0600
0600
0000
FBE0
FBE0
3180
1B00
0E00
1B00
3180
FBE0
FBE0
ENDCHAR
STARTCHAR uni1E8C
ENCODING 7820
SWIDTH 600 0
DWIDTH 11 0
BBX 10 14 0 0
BITMAP
3300
3300
0000
F3C0
F3C0
6180
3300
1E00
0C00
1E00
3300
6180
F3C0
F3C0
ENDCHAR
STARTCHAR uni1E8D
ENCODING 7821
SWIDTH 600 0
DWIDTH 11 0
BBX 11 12 0 0
BITMAP
1980
1980
0000
FBE0
FBE0
3180
1B00
0E00
1B00
3180
FBE0
FBE0
ENDCHAR
STARTCHAR uni1E8E
ENCODING 7822
SWIDTH 600 0
DWIDTH 11 0
BBX 10 14 0 0
BITMAP
0C00
0C00
0000
F3C0
F3C0
6180
3300
3F00
1E00
0C00
0C00
0C00
3F00
3F00
ENDCHAR
STARTCHAR uni1E8F
ENCODING 7823
SWIDTH 600 0
DWIDTH 11 0
BBX 10 16 0 -4
BITMAP
0C00
0C00
0000
F3C0
F3C0
6180
6180
3300
3300
1E00
1E00
0C00
1800
3800
FC00
FC00
ENDCHAR
STARTCHAR uni1E90
ENCODING 7824
SWIDTH 600 0
DWIDTH 11 0
BBX 8 15 1 0
BITMAP
18
3C
66
00
FF
FF
C7
CE
0C
18
30
73
E3
FF
FF
ENDCHAR
STARTCHAR uni1E91
ENCODING 7825
SWIDTH 600 0
DWIDTH 11 0
BBX 8 13 1 0
BITMAP
18
3C
66
00
FF
FF
C6
0C
18
30
63
FF
FF
ENDCHAR
STARTCHAR uni1E92
ENCODING 7826
SWIDTH 600 0
DWIDTH 11 0
BBX 8 14 1 -3
BITMAP
FF
FF
C7
CE
0C
18
30
73
E3
FF
FF
00
18
18
ENDCHAR
STARTCHAR uni1E93
ENCODING 7827
SWIDTH 600 0
DWIDTH 11 0
BBX 8 12 1 -3
BITMAP
FF
FF
C6
0C
18
30
63
FF
FF
00
18
18
ENDCHAR
STARTCHAR uni1E94
ENCODING 7828
SWIDTH 600 0
DWIDTH 11 0
BBX 8 14 1 -3
BITMAP
FF
FF
C7
CE
0C
18
30
73
E3
FF
FF
00
7C
7C
ENDCHAR
STARTCHAR uni1E95
ENCODING 7829
SWIDTH 600 0
DWIDTH 11 0
BBX 8 12 1 -3
BITMAP
FF
FF
C6
0C
18
30
63
FF
FF
00
3E
3E
ENDCHAR
STARTCHAR uni1E96
ENCODING 7830
SWIDTH 600 0
DWIDTH 11 0
BBX 10 15 0 -3
BITMAP
E000
E000
6000
6F00
7F80
7180
6180
6180
6180
6180
F3C0
F3C0
0000
1F00
1F00
ENDCHAR
STARTCHAR uni1E97
ENCODING 7831
SWIDTH 600 0
DWIDTH 11 0
BBX 10 15 0 0
BITMAP
6600
6600
0000
3000
3000
3000
FF00
FF00
3000
3000
3000
3000
30C0
3FC0
1F00
ENDCHAR
STARTCHAR uni1E98
ENCODING 7832
SWIDTH 600 0
DWIDTH 11 0
BBX 11 14 0 0
BITMAP
0600
0900
0900
0600
0000
F1E0
F1E0
64C0
6EC0
6EC0
7BC0
3B80
3180
3180
ENDCHAR
STARTCHAR uni1E99
ENCODING 7833
SWIDTH 600 0
DWIDTH 11 0
BBX 10 18 0 -4
BITMAP
0C00
1200
1200
0C00
0000
F3C0
F3C0
6180
6180
3300
3300
1E00
1E00
0C00
1800
3800
FC00
FC00
ENDCHAR
STARTCHAR uni1EA0
ENCODING 7840
SWIDTH 600 0
DWIDTH 11 0
BBX 12 14 -1 -3
BITMAP
3E00
3F00
0F00
1980
1980
1980
3FC0
3FC0
30C0
F9F0
F9F0
0000
0600
0600
ENDCHAR
STARTCHAR uni1EA1
ENCODING 7841
SWIDTH 600 0
DWIDTH 11 0
BBX 10 12 0 -3
BITMAP
3F00
7F80
6180
0180
7F80
FF80
C180
FFC0
7DC0
0000
0C00
0C00
ENDCHAR
STARTCHAR uni1EA4
ENCODING 7844
SWIDTH 600 0
DWIDTH 11 0
BBX 12 19 -1 0
BITMAP
0180
0300
0600
0000
0600
0F00
1980
0000
3E00
3F00
0F00
0F00
1980
1980
3FC0
3FC0
30C0
F9F0
F9F0
ENDCHAR
STARTCHAR uni1EA5
ENCODING 7845
SWIDTH 600 0
DWIDTH 11 0
BBX 10 17 0 0
BITMAP
0300
0600
0C00
0000
0C00
1E00
3300
0000
3F00
7F80
6180
0180
7F80
FF80
C180
FFC0
7DC0
ENDCHAR
STARTCHAR uni1EA6
ENCODING 7846
SWIDTH 600 0
DWIDTH 11 0
BBX 12 19 -1 0
BITMAP
1800
0C00
0600
0000
0600
0F00
1980
0000
3E00
3F00
0F00
0F00
1980
1980
3FC0
3FC0
30C0
F9F0
F9F0
ENDCHAR
STARTCHAR uni1EA7
ENCODING 7847
SWIDTH 600 0
DWIDTH 11 0
BBX 10 17 0 0
BITMAP
3000
1800
0C00
0000
0C00
1E00
3300
0000
3F00
7F80
6180
0180
7F80
FF80
C180
FFC0
7DC0
ENDCHAR
STARTCHAR uni1EAA
ENCODING 7850
SWIDTH 600 0
DWIDTH 11 0
BBX 12 18 -1 0
BITMAP
0EC0
1B80
0000
0600
0F00
1980
0000
3E00
3F00
0F00
0F00
1980
1980
3FC0
3FC0
30C0
F9F0
F9F0
ENDCHAR
STARTCHAR uni1EAB
ENCODING 7851
SWIDTH 600 0
DWIDTH 11 0
BBX 10 16 0 0
BITMAP
1D80
3700
0000
0C00
1E00
3300
0000
3F00
7F80
6180
0180
7F80
FF80
C180
FFC0
7DC0
ENDCHAR
STARTCHAR uni1EAC
ENCODING 7852
SWIDTH 600 0
DWIDTH 11 0
BBX 12 18 -1 -3
BITMAP
0600
0F00
1980
0000
3E00
3F00
0F00
1980
1980
1980
3FC0
3FC0
30C0
F9F0
F9F0
0000
0600
0600
ENDCHAR
STARTCHAR uni1EAD
ENCODING 7853
SWIDTH 600 0
DWIDTH 11 0
BBX 10 16 0 -3
BITMAP
0C00
1E00
3300
0000
3F00
7F80
6180
0180
7F80
FF80
C180
FFC0
7DC0
0000
0C00
0C00
ENDCHAR
STARTCHAR uni1EAE
ENCODING 7854
SWIDTH 600 0
DWIDTH 11 0
BBX 12 18 -1 0
BITMAP
0300
0600
0C00
0000
3300
1E00
0000
3E00
3F00
0F00
1980
1980
1980
3FC0
3FC0
30C0
F9F0
F9F0
ENDCHAR
STARTCHAR uni1EAF
ENCODING 7855
SWIDTH 600 0
DWIDTH 11 0
BBX 10 16 0 0
BITMAP
0300
0600
0C00
0000
3300
1E00
0000
3F00
7F80
6180
0180
7F80
FF80
C180
FFC0
7DC0
ENDCHAR
STARTCHAR uni1EB0
ENCODING 7856
SWIDTH 600 0
DWIDTH 11 0
BBX 12 18 -1 0
BITMAP
1800
0C00
0600
0000
3300
1E00
0000
3E00
3F00
0F00
1980
1980
1980
3FC0
3FC0
30C0
F9F0
F9F0
ENDCHAR
STARTCHAR uni1EB1
ENCODING 7857
SWIDTH 600 0
DWIDTH 11 0
BBX 10 16 0 0
BITMAP
3000
1800
0C00
0000
3300
1E00
0000
3F00
7F80
6180
0180
7F80
FF80
C180
FFC0
7DC0
ENDCHAR
STARTCHAR uni1EB4
ENCODING 7860
SWIDTH 600 0
DWIDTH 11 0
BBX 12 17 -1 0
BITMAP
1D80
3700
0000
3300
1E00
0000
3E00
3F00
0F00
1980
1980
1980
3FC0
3FC0
30C0
F9F0
F9F0
ENDCHAR
STARTCHAR uni1EB5
ENCODING 7861
SWIDTH 600 0
DWIDTH 11 0
BBX 10 15 0 0
BITMAP
1D80
3700
0000
3300
1E00
0000
3F00
7F80
6180
0180
7F80
FF80
C180
FFC0
7DC0
ENDCHAR
STARTCHAR uni1EB6
ENCODING 7862
SWIDTH 600 0
DWIDTH 11 0
BBX 12 17 -1 -3
BITMAP
1980
0F00
0000
3E00
3F00
0F00
1980
1980
1980
3FC0
3FC0
30C0
F9F0
F9F0
0000
0600
0600
ENDCHAR
STARTCHAR uni1EB7
ENCODING 7863
SWIDTH 600 0
DWIDTH 11 0
BBX 10 15 0 -3
BITMAP
3300
1E00
0000
3F00
7F80
6180
0180
7F80
FF80
C180
FFC0
7DC0
0000
0C00
0C00
ENDCHAR
STARTCHAR uni1EB8
ENCODING 7864
SWIDTH 600 0
DWIDTH 11 0
BBX 10 14 0 -3
BITMAP
FFC0
FFC0
30C0
36C0
3E00
3E00
3600
30C0
30C0
FFC0
FFC0
0000
0C00
0C00
ENDCHAR
STARTCHAR uni1EB9
ENCODING 7865
SWIDTH 600 0
DWIDTH 11 0
BBX 10 12 0 -3
BITMAP
1E00
7F80
E1C0
C0C0
FFC0
FFC0
E000
7FC0
1FC0
0000
0C00
0C00
ENDCHAR
STARTCHAR uni1EBC
ENCODING 7868
SWIDTH 600 0
DWIDTH 11 0
BBX 10 14 0 0
BITMAP
1D80
3700
0000
FFC0
FFC0
30C0
36C0
3E00
3E00
3600
30C0
30C0
FFC0
FFC0
ENDCHAR
STARTCHAR uni1EBD
ENCODING 7869
SWIDTH 600 0
DWIDTH 11 0
BBX 10 12 0 0
BITMAP
1D80
3700
0000
1E00
7F80
E1C0
C0C0
FFC0
FFC0
E000
7FC0
1FC0
ENDCHAR
STARTCHAR uni1EBE
ENCODING 7870
SWIDTH 600 0
DWIDTH 11 0
BBX 10 19 0 0
BITMAP
0300
0600
0C00
0000
0C00
1E00
3300
0000
FFC0
FFC0
30C0
36C0
3E00
3E00
3600
30C0
30C0
FFC0
FFC0
ENDCHAR
STARTCHAR uni1EBF
ENCODING 7871
SWIDTH 600 0
DWIDTH 11 0
BBX 10 17 0 0
BITMAP
0300
0600
0C00
0000
0C00
1E00
3300
0000
1E00
7F80
E1C0
C0C0
FFC0
FFC0
E000
7FC0
1FC0
ENDCHAR
STARTCHAR uni1EC0
ENCODING 7872
SWIDTH 600 0
DWIDTH 11 0
BBX 10 19 0 0
BITMAP
3000
1800
0C00
0000
0C00
1E00
3300
0000
FFC0
FFC0
30C0
36C0
3E00
3E00
3600
30C0
30C0
FFC0
FFC0
ENDCHAR
STARTCHAR uni1EC1
ENCODING 7873
SWIDTH 600 0
DWIDTH 11 0
BBX 10 17 0 0
BITMAP
3000
1800
0C00
0000
0C00
1E00
3300
0000
1E00
7F80
E1C0
C0C0
FFC0
FFC0
E000
7FC0
1FC0
ENDCHAR
STARTCHAR uni1EC4
ENCODING 7876
SWIDTH 600 0
DWIDTH 11 0
BBX 10 18 0 0
BITMAP
1D80
3700
0000
0C00
1E00
3300
0000
FFC0
FFC0
30C0
36C0
3E00
3E00
3600
30C0
30C0
FFC0
FFC0
ENDCHAR
STARTCHAR uni1EC5
ENCODING 7877
SWIDTH 600 0
DWIDTH 11 0
BBX 10 16 0 0
BITMAP
1D80
3700
0000
0C00
1E00
3300
0000
1E00
7F80
E1C0
C0C0
FFC0
FFC0
E000
7FC0
1FC0
ENDCHAR
STARTCHAR uni1EC6
ENCODING 7878
SWIDTH 600 0
DWIDTH 11 0
BBX 10 18 0 -3
BITMAP
0C00
1E00
3300
0000
FFC0
FFC0
30C0
36C0
3E00
3E00
3600
30C0
30C0
FFC0
FFC0
0000
0C00
0C00
ENDCHAR
STARTCHAR uni1EC7
ENCODING 7879
SWIDTH 600 0
DWIDTH 11 0
BBX 10 16 0 -3
BITMAP
0C00
1E00
3300
0000
1E00
7F80
E1C0
C0C0
FFC0
FFC0
E000
7FC0
1FC0
0000
0C00
0C00
ENDCHAR
STARTCHAR uni1ECA
ENCODING 7882
SWIDTH 600 0
DWIDTH 11 0
BBX 8 14 1 -3
BITMAP
FF
FF
18
18
18
18
18
18
18
FF
FF
00
18
18
ENDCHAR
STARTCHAR uni1ECB
ENCODING 7883
SWIDTH 600 0
DWIDTH 11 0
BBX 8 15 1 -3
BITMAP
18
18
00
F8
F8
18
18
18
18
18
FF
FF
00
18
18
ENDCHAR
STARTCHAR uni1ECC
ENCODING 7884
SWIDTH 600 0
DWIDTH 11 0
BBX 10 14 0 -3
BITMAP
1E00
7F80
7380
E1C0
C0C0
C0C0
C0C0
E1C0
7380
7F80
1E00
0000
0C00
0C00
ENDCHAR
STARTCHAR uni1ECD
ENCODING 7885
SWIDTH 600 0
DWIDTH 11 0
BBX 10 12 0 -3
BITMAP
1E00
7F80
E1C0
C0C0
C0C0
C0C0
E1C0
7F80
1E00
0000
0C00
0C00
ENDCHAR
STARTCHAR uni1ED0
ENCODING 7888
SWIDTH 600 0
DWIDTH 11 0
BBX 10 19 0 0
BITMAP
0300
0600
0C00
0000
0C00
1E00
3300
0000
1E00
7F80
6180
C0C0
C0C0
C0C0
C0C0
C0C0
6180
7F80
1E00
ENDCHAR
STARTCHAR uni1ED1
ENCODING 7889
SWIDTH 600 0
DWIDTH 11 0
BBX 10 17 0 0
BITMAP
0300
0600
0C00
0000
0C00
1E00
3300
0000
1E00
7F80
E1C0
C0C0
C0C0
C0C0
E1C0
7F80
1E00
ENDCHAR
STARTCHAR uni1ED2
ENCODING 7890
SWIDTH 600 0
DWIDTH 11 0
BBX 10 19 0 0
BITMAP
3000
1800
0C00
0000
0C00
1E00
3300
0000
1E00
7F80
6180
C0C0
C0C0
C0C0
C0C0
C0C0
6180
7F80
1E00
ENDCHAR
STARTCHAR uni1ED3
ENCODING 7891
SWIDTH 600 0
DWIDTH 11 0
BBX 10 17 0 0
BITMAP
3000
1800
0C00
0000
0C00
1E00
3300
0000
1E00
7F80
E1C0
C0C0
C0C0
C0C0
E1C0
7F80
1E00
ENDCHAR
STARTCHAR uni1ED6
ENCODING 7894
SWIDTH 600 0
DWIDTH 11 0
BBX 10 18 0 0
BITMAP
1D80
3700
0000
0C00
1E00
3300
0000
1E00
7F80
6180
C0C0
C0C0
C0C0
C0C0
C0C0
6180
7F80
1E00
ENDCHAR
STARTCHAR uni1ED7
ENCODING 7895
SWIDTH 600 0
DWIDTH 11 0
BBX 10 16 0 0
BITMAP
1D80
3700
0000
0C00
1E00
3300
0000
1E00
7F80
E1C0
C0C0
C0C0
C0C0
E1C0
7F80
1E00
ENDCHAR
STARTCHAR uni1ED8
ENCODING 7896
SWIDTH 600 0
DWIDTH 11 0
BBX 10 18 0 -3
BITMAP
0C00
1E00
3300
0000
1E00
7F80
7380
E1C0
C0C0
C0C0
C0C0
E1C0
7380
7F80
1E00
0000
0C00
0C00
ENDCHAR
STARTCHAR uni1ED9
ENCODING 7897
SWIDTH 600 0
DWIDTH 11 0
BBX 10 16 0 -3
BITMAP
0C00
1E00
3300
0000
1E00
7F80
E1C0
C0C0
C0C0
C0C0
E1C0
7F80
1E00
0000
0C00
0C00
ENDCHAR
STARTCHAR uni1EDA
ENCODING 7898
SWIDTH 600 0
DWIDTH 11 0
BBX 13 15 0 0
BITMAP
0180
0300
0600
0000
1E18
7F98
73B0
E1E0
C0C0
C0C0
C0C0
E1C0
7380
7F80
1E00
ENDCHAR
STARTCHAR uni1EDB
ENCODING 7899
SWIDTH 600 0
DWIDTH 11 0
BBX 13 13 0 0
BITMAP
0180
0300
0600
0000
1E18
7F98
E1F0
C0E0
C0C0
C0C0
E1C0
7F80
1E00
ENDCHAR
STARTCHAR uni1EDC
ENCODING 7900
SWIDTH 600 0
DWIDTH 11 0
BBX 13 15 0 0
BITMAP
0C00
0600
0300
0000
1E18
7F98
73B0
E1E0
C0C0
C0C0
C0C0
E1C0
7380
7F80
1E00
ENDCHAR
STARTCHAR uni1EDD
ENCODING 7901
SWIDTH 600 0
DWIDTH 11 0
BBX 13 13 0 0
BITMAP
0C00
0600
0300
0000
1E18
7F98
E1F0
C0E0
C0C0
C0C0
E1C0
7F80
1E00
ENDCHAR
STARTCHAR uni1EE0
ENCODING 7904
SWIDTH 600 0
DWIDTH 11 0
BBX 13 14 0 0
BITMAP
0EC0
1B80
0000
1E18
7F98
73B0
E1E0
C0C0
C0C0
C0C0
E1C0
7380
7F80
1E00
ENDCHAR
STARTCHAR uni1EE1
ENCODING 7905
SWIDTH 600 0
DWIDTH 11 0
BBX 13 12 0 0
BITMAP
0EC0
1B80
0000
1E18
7F98
E1F0
C0E0
C0C0
C0C0
E1C0
7F80
1E00
ENDCHAR
STARTCHAR uni1EE2
ENCODING 7906
SWIDTH 600 0
DWIDTH 11 0
BBX 13 14 0 -3
BITMAP
1E18
7F98
73B0
E1E0
C0C0
C0C0
C0C0
E1C0
7380
7F80
1E00
0000
0600
0600
ENDCHAR
STARTCHAR uni1EE3
ENCODING 7907
SWIDTH 600 0
DWIDTH 11 0
BBX 13 12 0 -3
BITMAP
1E18
7F98
E1F0
C0E0
C0C0
C0C0
E1C0
7F80
1E00
0000
0600
0600
ENDCHAR
STARTCHAR uni1EE4
ENCODING 7908
SWIDTH 600 0
DWIDTH 11 0
BBX 10 14 0 -3
BITMAP
F7C0
F7C0
6180
6180
6180
6180
6180
6180
7380
3F00
1E00
0000
0C00
0C00
ENDCHAR
STARTCHAR uni1EE5
ENCODING 7909
SWIDTH 600 0
DWIDTH 11 0
BBX 10 12 0 -3
BITMAP
E780
E780
6180
6180
6180
6180
6380
7FC0
3DC0
0000
0C00
0C00
ENDCHAR
STARTCHAR uni1EE8
ENCODING 7912
SWIDTH 600 0
DWIDTH 11 0
BBX 13 15 0 0
BITMAP
0180
0300
0600
0000
F7D8
F7D8
61B0
61A0
61C0
6180
6180
6180
7380
3F00
1E00
ENDCHAR
STARTCHAR uni1EE9
ENCODING 7913
SWIDTH 600 0
DWIDTH 11 0
BBX 13 13 0 0
BITMAP
0180
0300
0600
0000
E798
E798
61B0
61A0
61C0
6180
6380
7FC0
3DC0
ENDCHAR
STARTCHAR uni1EEA
ENCODING 7914
SWIDTH 600 0
DWIDTH 11 0
BBX 13 15 0 0
BITMAP
0C00
0600
0300
0000
F7D8
F7D8
61B0
61A0
61C0
6180
6180
6180
7380
3F00
1E00
ENDCHAR
STARTCHAR uni1EEB
ENCODING 7915
SWIDTH 600 0
DWIDTH 11 0
BBX 13 13 0 0
BITMAP
0C00
0600
0300
0000
E798
E798
61B0
61A0
61C0
6180
6380
7FC0
3DC0
ENDCHAR
STARTCHAR uni1EEE
ENCODING 7918
SWIDTH 600 0
DWIDTH 11 0
BBX 13 14 0 0
BITMAP
0EC0
1B80
0000
F7D8
F7D8
61B0
61A0
61C0
6180
6180
6180
7380
3F00
1E00
ENDCHAR
STARTCHAR uni1EEF
ENCODING 7919
SWIDTH 600 0
DWIDTH 11 0
BBX 13 12 0 0
BITMAP
0EC0
1B80
0000
E798
E798
61B0
61A0
61C0
6180
6380
7FC0
3DC0
ENDCHAR
STARTCHAR uni1EF0
ENCODING 7920
SWIDTH 600 0
DWIDTH 11 0
BBX 13 14 0 -3
BITMAP
F7D8
F7D8
61B0
61A0
61C0
6180
6180
6180
7380
3F00
1E00
0000
0600
0600
ENDCHAR
STARTCHAR uni1EF1
ENCODING 7921
SWIDTH 600 0
DWIDTH 11 0
BBX 13 12 0 -3
BITMAP
E798
E798
61B0
61A0
61C0
6180
6380
7FC0
3DC0
0000
0600
0600
ENDCHAR
STARTCHAR Ygrave
ENCODING 7922
SWIDTH 600 0
DWIDTH 11 0
BBX 10 15 0 0
BITMAP
3000
1800
0C00
0000
F3C0
F3C0
6180
3300
3F00
1E00
0C00
0C00
0C00
3F00
3F00
ENDCHAR
STARTCHAR ygrave
ENCODING 7923
SWIDTH 600 0
DWIDTH 11 0
BBX 10 17 0 -4
BITMAP
3000
1800
0C00
0000
F3C0
F3C0
6180
6180
3300
3300
1E00
1E00
0C00
1800
3800
FC00
FC00
ENDCHAR
STARTCHAR uni1EF4
ENCODING 7924
SWIDTH 600 0
DWIDTH 11 0
BBX 10 14 0 -3
BITMAP
F3C0
F3C0
6180
3300
3F00
1E00
0C00
0C00
0C00
3F00
3F00
0000
0C00
0C00
ENDCHAR
STARTCHAR uni1EF5
ENCODING 7925
SWIDTH 600 0
DWIDTH 11 0
BBX 10 16 0 -7
BITMAP
F3C0
F3C0
6180
6180
3300
3300
1E00
1E00
0C00
1800
3800
FC00
FC00
0000
1800
1800
ENDCHAR
STARTCHAR uni1EF8
ENCODING 7928
SWIDTH 600 0
DWIDTH 11 0
BBX 10 14 0 0
BITMAP
1D80
3700
0000
F3C0
F3C0
6180
3300
3F00
1E00
0C00
0C00
0C00
3F00
3F00
ENDCHAR
STARTCHAR uni1EF9
ENCODING 7929
SWIDTH 600 0
DWIDTH 11 0
BBX 10 16 0 -4
BITMAP
1D80
3700
0000
F3C0
F3C0
6180
6180
3300
3300
1E00
1E00
0C00
1800
3800
FC00
FC00
ENDCHAR
STARTCHAR uni2000
ENCODING 8192
SWIDTH 600 0
DWIDTH 11 0
BBX 1 1 0 0
BITMAP
00
ENDCHAR
STARTCHAR uni2001
ENCODING 8193
SWIDTH 600 0
DWIDTH 11 0
BBX 1 1 0 0
BITMAP
00
ENDCHAR
STARTCHAR uni2002
ENCODING 8194
SWIDTH 600 0
DWIDTH 11 0
BBX 1 1 0 0
BITMAP
00
ENDCHAR
STARTCHAR uni2003
ENCODING 8195
SWIDTH 600 0
DWIDTH 11 0
BBX 1 1 0 0
BITMAP
00
ENDCHAR
STARTCHAR uni2004
ENCODING 8196
SWIDTH 600 0
DWIDTH 11 0
BBX 1 1 0 0
BITMAP
00
ENDCHAR
STARTCHAR uni2005
ENCODING 8197
SWIDTH 600 0
DWIDTH 11 0
BBX 1 1 0 0
BITMAP
00
ENDCHAR
STARTCHAR uni2006
ENCODING 8198
SWIDTH 600 0
DWIDTH 11 0
BBX 1 1 0 0
BITMAP
00
ENDCHAR
STARTCHAR uni2007
ENCODING 8199
SWIDTH 600 0
DWIDTH 11 0
BBX 1 1 0 0
BITMAP
00
ENDCHAR
STARTCHAR uni2008
ENCODING 8200
SWIDTH 600 0
DWIDTH 11 0
BBX 1 1 0 0
BITMAP
00
ENDCHAR
STARTCHAR uni2009
ENCODING 8201
SWIDTH 600 0
DWIDTH 11 0
BBX 1 1 0 0
BITMAP
00
ENDCHAR
STARTCHAR uni200A
ENCODING 8202
SWIDTH 600 0
DWIDTH 11 0
BBX 1 1 0 0
BITMAP
00
ENDCHAR
STARTCHAR uni2010
ENCODING 8208
SWIDTH 600 0
DWIDTH 11 0
BBX 8 2 1 4
BITMAP
FF
FF
ENDCHAR
STARTCHAR uni2011
ENCODING 8209
SWIDTH 600 0
DWIDTH 11 0
BBX 8 2 1 4
BITMAP
FF
FF
ENDCHAR
STARTCHAR figuredash
ENCODING 8210
SWIDTH 600 0
DWIDTH 11 0
BBX 10 2 0 4
BITMAP
FFC0
FFC0
ENDCHAR
STARTCHAR endash
ENCODING 8211
SWIDTH 600 0
DWIDTH 11 0
BBX 10 2 0 4
BITMAP
FFC0
FFC0
ENDCHAR
STARTCHAR emdash
ENCODING 8212
SWIDTH 600 0
DWIDTH 11 0
BBX 11 2 0 4
BITMAP
FFE0
FFE0
ENDCHAR
STARTCHAR afii00208
ENCODING 8213
SWIDTH 600 0
DWIDTH 11 0
BBX 11 2 0 4
BITMAP
FFE0
FFE0
ENDCHAR
STARTCHAR quoteleft
ENCODING 8216
SWIDTH 600 0
DWIDTH 11 0
BBX 4 5 4 7
BITMAP
C0
C0
60
20
10
ENDCHAR
STARTCHAR quoteright
ENCODING 8217
SWIDTH 600 0
DWIDTH 11 0
BBX 4 5 3 7
BITMAP
30
30
60
40
80
ENDCHAR
STARTCHAR quotesinglbase
ENCODING 8218
SWIDTH 600 0
DWIDTH 11 0
BBX 4 5 3 -3
BITMAP
30
30
60
60
C0
ENDCHAR
STARTCHAR quotereversed
ENCODING 8219
SWIDTH 600 0
DWIDTH 11 0
BBX 4 5 3 7
BITMAP
C0
C0
60
20
10
ENDCHAR
STARTCHAR quotedblleft
ENCODING 8220
SWIDTH 600 0
DWIDTH 11 0
BBX 7 5 2 7
BITMAP
D8
D8
6C
6C
36
ENDCHAR
STARTCHAR quotedblright
ENCODING 8221
SWIDTH 600 0
DWIDTH 11 0
BBX 7 5 2 7
BITMAP
36
36
6C
6C
D8
ENDCHAR
STARTCHAR quotedblbase
ENCODING 8222
SWIDTH 600 0
DWIDTH 11 0
BBX 7 5 1 -3
BITMAP
36
36
6C
6C
D8
ENDCHAR
STARTCHAR uni201F
ENCODING 8223
SWIDTH 600 0
DWIDTH 11 0
BBX 7 5 2 7
BITMAP
D8
D8
6C
6C
36
ENDCHAR
STARTCHAR dagger
ENCODING 8224
SWIDTH 600 0
DWIDTH 11 0
BBX 8 14 1 -2
BITMAP
18
18
18
FF
FF
18
18
18
18
18
18
18
18
18
ENDCHAR
STARTCHAR daggerdbl
ENCODING 8225
SWIDTH 600 0
DWIDTH 11 0
BBX 8 14 1 -2
BITMAP
18
18
18
FF
FF
18
18
18
FF
FF
18
18
18
18
ENDCHAR
STARTCHAR bullet
ENCODING 8226
SWIDTH 600 0
DWIDTH 11 0
BBX 5 5 3 4
BITMAP
70
F8
F8
F8
70
ENDCHAR
STARTCHAR ellipsis
ENCODING 8230
SWIDTH 600 0
DWIDTH 11 0
BBX 10 2 1 0
BITMAP
CCC0
CCC0
ENDCHAR
STARTCHAR perthousand
ENCODING 8240
SWIDTH 600 0
DWIDTH 11 0
BBX 10 11 0 0
BITMAP
7000
9000
9000
E180
0F00
7800
C000
39C0
4A40
4A40
7380
ENDCHAR
STARTCHAR guilsinglleft
ENCODING 8249
SWIDTH 600 0
DWIDTH 11 0
BBX 5 7 2 1
BITMAP
18
30
60
C0
60
30
18
ENDCHAR
STARTCHAR guilsinglright
ENCODING 8250
SWIDTH 600 0
DWIDTH 11 0
BBX 5 7 3 1
BITMAP
C0
60
30
18
30
60
C0
ENDCHAR
STARTCHAR uni203D
ENCODING 8253
SWIDTH 600 0
DWIDTH 11 0
BBX 7 12 2 0
BITMAP
38
7C
FE
FE
3E
3E
3C
30
30
00
30
30
ENDCHAR
STARTCHAR fraction
ENCODING 8260
SWIDTH 600 0
DWIDTH 11 0
BBX 10 6 0 2
BITMAP
00C0
03C0
0F00
3C00
F000
C000
ENDCHAR
STARTCHAR oneinferior
ENCODING 8321
SWIDTH 600 0
DWIDTH 11 0
BBX 6 7 2 -5
BITMAP
30
F0
30
30
30
30
FC
ENDCHAR
STARTCHAR twoinferior
ENCODING 8322
SWIDTH 600 0
DWIDTH 11 0
BBX 6 7 2 -5
BITMAP
78
CC
0C
18
30
64
FC
ENDCHAR
STARTCHAR threeinferior
ENCODING 8323
SWIDTH 600 0
DWIDTH 11 0
BBX 6 7 2 -5
BITMAP
78
CC
0C
38
0C
CC
78
ENDCHAR
STARTCHAR uni20A5
ENCODING 8357
SWIDTH 600 0
DWIDTH 11 0
BBX 12 16 -1 -3
BITMAP
0060
0060
00C0
00C0
EDC0
FFE0
7760
6760
6660
6660
6E60
FF70
FF70
1800
3000
3000
ENDCHAR
STARTCHAR uni20A6
ENCODING 8358
SWIDTH 600 0
DWIDTH 11 0
BBX 10 11 0 0
BITMAP
E7C0
F7C0
FFC0
FFC0
6980
6D80
FFC0
FFC0
6380
FB80
F980
ENDCHAR
STARTCHAR uni20A9
ENCODING 8361
SWIDTH 600 0
DWIDTH 11 0
BBX 12 11 -1 0
BITMAP
F9F0
F9F0
7FE0
7FE0
6660
6F60
7FE0
7FE0
39C0
30C0
30C0
ENDCHAR
STARTCHAR Euro
ENCODING 8364
SWIDTH 600 0
DWIDTH 11 0
BBX 13 11 -3 0
BITMAP
03D8
0FF8
FFF8
FFD8
1800
1800
FFC0
FFC0
0E18
0FF8
03E0
ENDCHAR
STARTCHAR uni20AD
ENCODING 8365
SWIDTH 600 0
DWIDTH 11 0
BBX 11 11 0 0
BITMAP
F7C0
F7C0
6300
6600
FFE0
FFE0
7E00
6700
6380
F9E0
F9E0
ENDCHAR
STARTCHAR trademark
ENCODING 8482
SWIDTH 600 0
DWIDTH 11 0
BBX 12 5 -1 6
BITMAP
FC30
B660
37E0
35A0
7DB0
ENDCHAR
STARTCHAR uni212A
ENCODING 8490
SWIDTH 600 0
DWIDTH 11 0
BBX 11 11 0 0
BITMAP
F7C0
F7C0
6300
6600
6C00
7C00
7E00
6700
6380
F9E0
F9E0
ENDCHAR
STARTCHAR uni212B
ENCODING 8491
SWIDTH 600 0
DWIDTH 11 0
BBX 12 15 -1 0
BITMAP
0600
0900
0900
0600
3E00
3F00
0F00
0F00
1980
1980
3FC0
3FC0
30C0
F9F0
F9F0
ENDCHAR
STARTCHAR uni2132
ENCODING 8498
SWIDTH 600 0
DWIDTH 11 0
BBX 10 11 0 0
BITMAP
1FC0
1FC0
0300
0300
1B00
1F00
1F00
DB00
C300
FFC0
FFC0
ENDCHAR
STARTCHAR universal
ENCODING 8704
SWIDTH 600 0
DWIDTH 11 0
BBX 12 11 -1 0
BITMAP
F9F0
F9F0
30C0
3FC0
3FC0
1980
1980
1980
0F00
3F00
3E00
ENDCHAR
STARTCHAR existential
ENCODING 8707
SWIDTH 600 0
DWIDTH 11 0
BBX 10 11 0 0
BITMAP
FFC0
FFC0
C300
DB00
1F00
1F00
1B00
C300
C300
FFC0
FFC0
ENDCHAR
STARTCHAR uni2204
ENCODING 8708
SWIDTH 600 0
DWIDTH 11 0
BBX 10 16 0 -2
BITMAP
00C0
00C0
0180
FFC0
FFC0
C300
DF00
1F00
1F00
1F00
DB00
DB00
FFC0
FFC0
6000
6000
ENDCHAR
STARTCHAR minus
ENCODING 8722
SWIDTH 600 0
DWIDTH 11 0
BBX 10 2 0 4
BITMAP
FFC0
FFC0
ENDCHAR
STARTCHAR fraction
ENCODING 8725
SWIDTH 600 0
DWIDTH 11 0
BBX 10 6 0 2
BITMAP
00C0
03C0
0F00
3C00
F000
C000
ENDCHAR
STARTCHAR periodcentered
ENCODING 8729
SWIDTH 600 0
DWIDTH 11 0
BBX 2 3 4 3
BITMAP
C0
C0
C0
ENDCHAR
STARTCHAR uni2236
ENCODING 8758
SWIDTH 600 0
DWIDTH 11 0
BBX 2 8 4 0
BITMAP
C0
C0
00
00
00
00
C0
C0
ENDCHAR
STARTCHAR uni2259
ENCODING 8793
SWIDTH 600 0
DWIDTH 11 0
BBX 10 10 0 2
BITMAP
0C00
1E00
3300
0000
FFC0
FFC0
0000
0000
FFC0
FFC0
ENDCHAR
STARTCHAR uni225A
ENCODING 8794
SWIDTH 600 0
DWIDTH 11 0
BBX 10 10 0 2
BITMAP
3300
1E00
0C00
0000
FFC0
FFC0
0000
0000
FFC0
FFC0
ENDCHAR
STARTCHAR notequal
ENCODING 8800
SWIDTH 600 0
DWIDTH 11 0
BBX 10 16 0 -3
BITMAP
00C0
00C0
0180
0180
0300
FFC0
FFC0
0600
0C00
FFC0
FFC0
1800
3000
3000
6000
6000
ENDCHAR
STARTCHAR equivalence
ENCODING 8801
SWIDTH 600 0
DWIDTH 11 0
BBX 10 8 0 1
BITMAP
FFC0
FFC0
0000
FFC0
FFC0
0000
FFC0
FFC0
ENDCHAR
STARTCHAR uni2262
ENCODING 8802
SWIDTH 600 0
DWIDTH 11 0
BBX 10 16 0 -3
BITMAP
00C0
00C0
0180
0180
FFC0
FFC0
0600
FFC0
FFC0
0C00
FFC0
FFC0
3000
3000
6000
6000
ENDCHAR
STARTCHAR lessequal
ENCODING 8804
SWIDTH 600 0
DWIDTH 11 0
BBX 9 12 1 -2
BITMAP
0180
0780
1E00
7800
E000
7800
1E00
0780
0180
0000
FF80
FF80
ENDCHAR
STARTCHAR greaterequal
ENCODING 8805
SWIDTH 600 0
DWIDTH 11 0
BBX 9 12 1 -2
BITMAP
C000
F000
3C00
0F00
0380
0F00
3C00
F000
C000
0000
FF80
FF80
ENDCHAR
STARTCHAR uni226E
ENCODING 8814
SWIDTH 600 0
DWIDTH 11 0
BBX 9 16 1 -2
BITMAP
0180
0180
0300
0300
0780
0780
1E00
7C00
F800
7800
3E00
3780
6180
6000
C000
C000
ENDCHAR
STARTCHAR uni226F
ENCODING 8815
SWIDTH 600 0
DWIDTH 11 0
BBX 9 16 1 -2
BITMAP
0180
0180
0300
0300
C600
F600
3C00
0F00
1B80
1F00
3C00
F000
E000
6000
C000
C000
ENDCHAR
STARTCHAR uni2270
ENCODING 8816
SWIDTH 600 0
DWIDTH 11 0
BBX 9 16 1 -4
BITMAP
0180
0180
0380
0780
1E00
7E00
EC00
7C00
1E00
1F80
3180
3000
FF80
FF80
C000
C000
ENDCHAR
STARTCHAR uni2271
ENCODING 8817
SWIDTH 600 0
DWIDTH 11 0
BBX 9 16 1 -4
BITMAP
0180
0180
C300
F300
3E00
0F00
0F80
0F00
3C00
F800
F000
3000
FF80
FF80
C000
C000
ENDCHAR
STARTCHAR SF100000
ENCODING 9472
SWIDTH 600 0
DWIDTH 11 0
BBX 11 2 0 3
BITMAP
FFE0
FFE0
ENDCHAR
STARTCHAR uni2501
ENCODING 9473
SWIDTH 600 0
DWIDTH 11 0
BBX 11 6 0 1
BITMAP
FFE0
FFE0
FFE0
FFE0
FFE0
FFE0
ENDCHAR
STARTCHAR SF110000
ENCODING 9474
SWIDTH 600 0
DWIDTH 11 0
BBX 2 18 4 -5
BITMAP
C0
C0
C0
C0
C0
C0
C0
C0
C0
C0
C0
C0
C0
C0
C0
C0
C0
C0
ENDCHAR
STARTCHAR uni2503
ENCODING 9475
SWIDTH 600 0
DWIDTH 11 0
BBX 6 18 2 -5
BITMAP
FC
FC
FC
FC
FC
FC
FC
FC
FC
FC
FC
FC
FC
FC
FC
FC
FC
FC
ENDCHAR
STARTCHAR SF010000
ENCODING 9484
SWIDTH 600 0
DWIDTH 11 0
BBX 7 10 4 -5
BITMAP
FE
FE
C0
C0
C0
C0
C0
C0
C0
C0
ENDCHAR
STARTCHAR uni250D
ENCODING 9485
SWIDTH 600 0
DWIDTH 11 0
BBX 9 12 2 -5
BITMAP
FF80
FF80
FF80
FF80
FF80
FF80
3000
3000
3000
3000
3000
3000
ENDCHAR
STARTCHAR uni250E
ENCODING 9486
SWIDTH 600 0
DWIDTH 11 0
BBX 9 12 2 -5
BITMAP
FC00
FC00
FF80
FF80
FC00
FC00
FC00
FC00
FC00
FC00
FC00
FC00
ENDCHAR
STARTCHAR uni250F
ENCODING 9487
SWIDTH 600 0
DWIDTH 11 0
BBX 9 12 2 -5
BITMAP
FF80
FF80
FF80
FF80
FF80
FF80
FC00
FC00
FC00
FC00
FC00
FC00
ENDCHAR
STARTCHAR SF030000
ENCODING 9488
SWIDTH 600 0
DWIDTH 11 0
BBX 6 10 0 -5
BITMAP
FC
FC
0C
0C
0C
0C
0C
0C
0C
0C
ENDCHAR
STARTCHAR uni2511
ENCODING 9489
SWIDTH 600 0
DWIDTH 11 0
BBX 8 12 0 -5
BITMAP
FF
FF
FF
FF
FF
FF
0C
0C
0C
0C
0C
0C
ENDCHAR
STARTCHAR uni2512
ENCODING 9490
SWIDTH 600 0
DWIDTH 11 0
BBX 8 12 0 -5
BITMAP
3F
3F
FF
FF
3F
3F
3F
3F
3F
3F
3F
3F
ENDCHAR
STARTCHAR uni2513
ENCODING 9491
SWIDTH 600 0
DWIDTH 11 0
BBX 8 12 0 -5
BITMAP
FF
FF
FF
FF
FF
FF
3F
3F
3F
3F
3F
3F
ENDCHAR
STARTCHAR SF020000
ENCODING 9492
SWIDTH 600 0
DWIDTH 11 0
BBX 7 10 4 3
BITMAP
C0
C0
C0
C0
C0
C0
C0
C0
FE
FE
ENDCHAR
STARTCHAR uni2515
ENCODING 9493
SWIDTH 600 0
DWIDTH 11 0
BBX 9 12 2 1
BITMAP
3000
3000
3000
3000
3000
3000
FF80
FF80
FF80
FF80
FF80
FF80
ENDCHAR
STARTCHAR uni2516
ENCODING 9494
SWIDTH 600 0
DWIDTH 11 0
BBX 9 12 2 1
BITMAP
FC00
FC00
FC00
FC00
FC00
FC00
FC00
FC00
FF80
FF80
FC00
FC00
ENDCHAR
STARTCHAR uni2517
ENCODING 9495
SWIDTH 600 0
DWIDTH 11 0
BBX 9 12 2 1
BITMAP
FC00
FC00
FC00
FC00
FC00
FC00
FF80
FF80
FF80
FF80
FF80
FF80
ENDCHAR
STARTCHAR SF040000
ENCODING 9496
SWIDTH 600 0
DWIDTH 11 0
BBX 6 10 0 3
BITMAP
0C
0C
0C
0C
0C
0C
0C
0C
FC
FC
ENDCHAR
STARTCHAR uni2519
ENCODING 9497
SWIDTH 600 0
DWIDTH 11 0
BBX 8 12 0 1
BITMAP
0C
0C
0C
0C
0C
0C
FF
FF
FF
FF
FF
FF
ENDCHAR
STARTCHAR uni251A
ENCODING 9498
SWIDTH 600 0
DWIDTH 11 0
BBX 8 12 0 1
BITMAP
3F
3F
3F
3F
3F
3F
3F
3F
FF
FF
3F
3F
ENDCHAR
STARTCHAR uni251B
ENCODING 9499
SWIDTH 600 0
DWIDTH 11 0
BBX 8 12 0 1
BITMAP
3F
3F
3F
3F
3F
3F
FF
FF
FF
FF
FF
FF
ENDCHAR
STARTCHAR SF080000
ENCODING 9500
SWIDTH 600 0
DWIDTH 11 0
BBX 7 18 4 -5
BITMAP
C0
C0
C0
C0
C0
C0
C0
C0
FE
FE
C0
C0
C0
C0
C0
C0
C0
C0
ENDCHAR
STARTCHAR uni251D
ENCODING 9501
SWIDTH 600 0
DWIDTH 11 0
BBX 9 18 2 -5
BITMAP
3000
3000
3000
3000
3000
3000
FF80
FF80
FF80
FF80
FF80
FF80
3000
3000
3000
3000
3000
3000
ENDCHAR
STARTCHAR uni251E
ENCODING 9502
SWIDTH 600 0
DWIDTH 11 0
BBX 9 18 2 -5
BITMAP
FC00
FC00
FC00
FC00
FC00
FC00
FC00
FC00
FF80
FF80
FC00
FC00
3000
3000
3000
3000
3000
3000
ENDCHAR
STARTCHAR uni251F
ENCODING 9503
SWIDTH 600 0
DWIDTH 11 0
BBX 9 18 2 -5
BITMAP
3000
3000
3000
3000
3000
3000
FC00
FC00
FF80
FF80
FC00
FC00
FC00
FC00
FC00
FC00
FC00
FC00
ENDCHAR
STARTCHAR uni2520
ENCODING 9504
SWIDTH 600 0
DWIDTH 11 0
BBX 9 18 2 -5
BITMAP
FC00
FC00
FC00
FC00
FC00
FC00
FC00
FC00
FF80
FF80
FC00
FC00
FC00
FC00
FC00
FC00
FC00
FC00
ENDCHAR
STARTCHAR uni2521
ENCODING 9505
SWIDTH 600 0
DWIDTH 11 0
BBX 9 18 2 -5
BITMAP
FC00
FC00
FC00
FC00
FC00
FC00
FF80
FF80
FF80
FF80
FF80
FF80
3000
3000
3000
3000
3000
3000
ENDCHAR
STARTCHAR uni2522
ENCODING 9506
SWIDTH 600 0
DWIDTH 11 0
BBX 9 18 2 -5
BITMAP
3000
3000
3000
3000
3000
3000
FF80
FF80
FF80
FF80
FF80
FF80
FC00
FC00
FC00
FC00
FC00
FC00
ENDCHAR
STARTCHAR uni2523
ENCODING 9507
SWIDTH 600 0
DWIDTH 11 0
BBX 9 18 2 -5
BITMAP
FC00
FC00
FC00
FC00
FC00
FC00
FF80
FF80
FF80
FF80
FF80
FF80
FC00
FC00
FC00
FC00
FC00
FC00
ENDCHAR
STARTCHAR SF090000
ENCODING 9508
SWIDTH 600 0
DWIDTH 11 0
BBX 6 18 0 -5
BITMAP
0C
0C
0C
0C
0C
0C
0C
0C
FC
FC
0C
0C
0C
0C
0C
0C
0C
0C
ENDCHAR
STARTCHAR uni2525
ENCODING 9509
SWIDTH 600 0
DWIDTH 11 0
BBX 8 18 0 -5
BITMAP
0C
0C
0C
0C
0C
0C
FF
FF
FF
FF
FF
FF
0C
0C
0C
0C
0C
0C
ENDCHAR
STARTCHAR uni2526
ENCODING 9510
SWIDTH 600 0
DWIDTH 11 0
BBX 8 18 0 -5
BITMAP
3F
3F
3F
3F
3F
3F
3F
3F
FF
FF
3F
3F
0C
0C
0C
0C
0C
0C
ENDCHAR
STARTCHAR uni2527
ENCODING 9511
SWIDTH 600 0
DWIDTH 11 0
BBX 8 18 0 -5
BITMAP
0C
0C
0C
0C
0C
0C
3F
3F
FF
FF
3F
3F
3F
3F
3F
3F
3F
3F
ENDCHAR
STARTCHAR uni2528
ENCODING 9512
SWIDTH 600 0
DWIDTH 11 0
BBX 8 18 0 -5
BITMAP
3F
3F
3F
3F
3F
3F
3F
3F
FF
FF
3F
3F
3F
3F
3F
3F
3F
3F
ENDCHAR
STARTCHAR uni2529
ENCODING 9513
SWIDTH 600 0
DWIDTH 11 0
BBX 8 18 0 -5
BITMAP
3F
3F
3F
3F
3F
3F
FF
FF
FF
FF
FF
FF
0C
0C
0C
0C
0C
0C
ENDCHAR
STARTCHAR uni252A
ENCODING 9514
SWIDTH 600 0
DWIDTH 11 0
BBX 8 18 0 -5
BITMAP
0C
0C
0C
0C
0C
0C
FF
FF
FF
FF
FF
FF
3F
3F
3F
3F
3F
3F
ENDCHAR
STARTCHAR uni252B
ENCODING 9515
SWIDTH 600 0
DWIDTH 11 0
BBX 8 18 0 -5
BITMAP
3F
3F
3F
3F
3F
3F
FF
FF
FF
FF
FF
FF
3F
3F
3F
3F
3F
3F
ENDCHAR
STARTCHAR SF060000
ENCODING 9516
SWIDTH 600 0
DWIDTH 11 0
BBX 11 10 0 -5
BITMAP
FFE0
FFE0
0C00
0C00
0C00
0C00
0C00
0C00
0C00
0C00
ENDCHAR
STARTCHAR uni252D
ENCODING 9517
SWIDTH 600 0
DWIDTH 11 0
BBX 11 12 0 -5
BITMAP
FF00
FF00
FFE0
FFE0
FF00
FF00
0C00
0C00
0C00
0C00
0C00
0C00
ENDCHAR
STARTCHAR uni252E
ENCODING 9518
SWIDTH 600 0
DWIDTH 11 0
BBX 11 12 0 -5
BITMAP
3FE0
3FE0
FFE0
FFE0
3FE0
3FE0
0C00
0C00
0C00
0C00
0C00
0C00
ENDCHAR
STARTCHAR uni252F
ENCODING 9519
SWIDTH 600 0
DWIDTH 11 0
BBX 11 12 0 -5
BITMAP
FFE0
FFE0
FFE0
FFE0
FFE0
FFE0
0C00
0C00
0C00
0C00
0C00
0C00
ENDCHAR
STARTCHAR uni2530
ENCODING 9520
SWIDTH 600 0
DWIDTH 11 0
BBX 11 12 0 -5
BITMAP
3F00
3F00
FFE0
FFE0
3F00
3F00
3F00
3F00
3F00
3F00
3F00
3F00
ENDCHAR
STARTCHAR uni2531
ENCODING 9521
SWIDTH 600 0
DWIDTH 11 0
BBX 11 12 0 -5
BITMAP
FF00
FF00
FFE0
FFE0
FF00
FF00
3F00
3F00
3F00
3F00
3F00
3F00
ENDCHAR
STARTCHAR uni2532
ENCODING 9522
SWIDTH 600 0
DWIDTH 11 0
BBX 11 12 0 -5
BITMAP
3FE0
3FE0
FFE0
FFE0
3FE0
3FE0
3F00
3F00
3F00
3F00
3F00
3F00
ENDCHAR
STARTCHAR uni2533
ENCODING 9523
SWIDTH 600 0
DWIDTH 11 0
BBX 11 12 0 -5
BITMAP
FFE0
FFE0
FFE0
FFE0
FFE0
FFE0
3F00
3F00
3F00
3F00
3F00
3F00
ENDCHAR
STARTCHAR SF070000
ENCODING 9524
SWIDTH 600 0
DWIDTH 11 0
BBX 11 10 0 3
BITMAP
0C00
0C00
0C00
0C00
0C00
0C00
0C00
0C00
FFE0
FFE0
ENDCHAR
STARTCHAR uni2535
ENCODING 9525
SWIDTH 600 0
DWIDTH 11 0
BBX 11 12 0 1
BITMAP
0C00
0C00
0C00
0C00
0C00
0C00
FF00
FF00
FFE0
FFE0
FF00
FF00
ENDCHAR
STARTCHAR uni2536
ENCODING 9526
SWIDTH 600 0
DWIDTH 11 0
BBX 11 12 0 1
BITMAP
0C00
0C00
0C00
0C00
0C00
0C00
3FE0
3FE0
FFE0
FFE0
3FE0
3FE0
ENDCHAR
STARTCHAR uni2537
ENCODING 9527
SWIDTH 600 0
DWIDTH 11 0
BBX 11 12 0 1
BITMAP
0C00
0C00
0C00
0C00
0C00
0C00
FFE0
FFE0
FFE0
FFE0
FFE0
FFE0
ENDCHAR
STARTCHAR uni2538
ENCODING 9528
SWIDTH 600 0
DWIDTH 11 0
BBX 11 12 0 1
BITMAP
3F00
3F00
3F00
3F00
3F00
3F00
3F00
3F00
FFE0
FFE0
3F00
3F00
ENDCHAR
STARTCHAR uni2539
ENCODING 9529
SWIDTH 600 0
DWIDTH 11 0
BBX 11 12 0 1
BITMAP
3F00
3F00
3F00
3F00
3F00
3F00
FF00
FF00
FFE0
FFE0
FF00
FF00
ENDCHAR
STARTCHAR uni253A
ENCODING 9530
SWIDTH 600 0
DWIDTH 11 0
BBX 11 12 0 1
BITMAP
3F00
3F00
3F00
3F00
3F00
3F00
3FE0
3FE0
FFE0
FFE0
3FE0
3FE0
ENDCHAR
STARTCHAR uni253B
ENCODING 9531
SWIDTH 600 0
DWIDTH 11 0
BBX 11 12 0 1
BITMAP
3F00
3F00
3F00
3F00
3F00
3F00
FFE0
FFE0
FFE0
FFE0
FFE0
FFE0
ENDCHAR
STARTCHAR SF050000
ENCODING 9532
SWIDTH 600 0
DWIDTH 11 0
BBX 11 18 0 -5
BITMAP
0C00
0C00
0C00
0C00
0C00
0C00
0C00
0C00
FFE0
FFE0
0C00
0C00
0C00
0C00
0C00
0C00
0C00
0C00
ENDCHAR
STARTCHAR uni253D
ENCODING 9533
SWIDTH 600 0
DWIDTH 11 0
BBX 11 18 0 -5
BITMAP
0C00
0C00
0C00
0C00
0C00
0C00
FF00
FF00
FFE0
FFE0
FF00
FF00
0C00
0C00
0C00
0C00
0C00
0C00
ENDCHAR
STARTCHAR uni253E
ENCODING 9534
SWIDTH 600 0
DWIDTH 11 0
BBX 11 18 0 -5
BITMAP
0C00
0C00
0C00
0C00
0C00
0C00
3FE0
3FE0
FFE0
FFE0
3FE0
3FE0
0C00
0C00
0C00
0C00
0C00
0C00
ENDCHAR
STARTCHAR uni253F
ENCODING 9535
SWIDTH 600 0
DWIDTH 11 0
BBX 11 18 0 -5
BITMAP
0C00
0C00
0C00
0C00
0C00
0C00
FFE0
FFE0
FFE0
FFE0
FFE0
FFE0
0C00
0C00
0C00
0C00
0C00
0C00
ENDCHAR
STARTCHAR uni2540
ENCODING 9536
SWIDTH 600 0
DWIDTH 11 0
BBX 11 18 0 -5
BITMAP
3F00
3F00
3F00
3F00
3F00
3F00
3F00
3F00
FFE0
FFE0
3F00
3F00
0C00
0C00
0C00
0C00
0C00
0C00
ENDCHAR
STARTCHAR uni2541
ENCODING 9537
SWIDTH 600 0
DWIDTH 11 0
BBX 11 18 0 -5
BITMAP
0C00
0C00
0C00
0C00
0C00
0C00
3F00
3F00
FFE0
FFE0
3F00
3F00
3F00
3F00
3F00
3F00
3F00
3F00
ENDCHAR
STARTCHAR uni2542
ENCODING 9538
SWIDTH 600 0
DWIDTH 11 0
BBX 11 18 0 -5
BITMAP
3F00
3F00
3F00
3F00
3F00
3F00
3F00
3F00
FFE0
FFE0
3F00
3F00
3F00
3F00
3F00
3F00
3F00
3F00
ENDCHAR
STARTCHAR uni2543
ENCODING 9539
SWIDTH 600 0
DWIDTH 11 0
BBX 11 18 0 -5
BITMAP
3F00
3F00
3F00
3F00
3F00
3F00
FF00
FF00
FFE0
FFE0
FF00
FF00
0C00
0C00
0C00
0C00
0C00
0C00
ENDCHAR
STARTCHAR uni2544
ENCODING 9540
SWIDTH 600 0
DWIDTH 11 0
BBX 11 18 0 -5
BITMAP
3F00
3F00
3F00
3F00
3F00
3F00
3FE0
3FE0
FFE0
FFE0
3FE0
3FE0
0C00
0C00
0C00
0C00
0C00
0C00
ENDCHAR
STARTCHAR uni2545
ENCODING 9541
SWIDTH 600 0
DWIDTH 11 0
BBX 11 18 0 -5
BITMAP
0C00
0C00
0C00
0C00
0C00
0C00
FF00
FF00
FFE0
FFE0
FF00
FF00
3F00
3F00
3F00
3F00
3F00
3F00
ENDCHAR
STARTCHAR uni2546
ENCODING 9542
SWIDTH 600 0
DWIDTH 11 0
BBX 11 18 0 -5
BITMAP
0C00
0C00
0C00
0C00
0C00
0C00
3FE0
3FE0
FFE0
FFE0
3FE0
3FE0
3F00
3F00
3F00
3F00
3F00
3F00
ENDCHAR
STARTCHAR uni2547
ENCODING 9543
SWIDTH 600 0
DWIDTH 11 0
BBX 11 18 0 -5
BITMAP
3F00
3F00
3F00
3F00
3F00
3F00
FFE0
FFE0
FFE0
FFE0
FFE0
FFE0
0C00
0C00
0C00
0C00
0C00
0C00
ENDCHAR
STARTCHAR uni2548
ENCODING 9544
SWIDTH 600 0
DWIDTH 11 0
BBX 11 18 0 -5
BITMAP
0C00
0C00
0C00
0C00
0C00
0C00
FFE0
FFE0
FFE0
FFE0
FFE0
FFE0
3F00
3F00
3F00
3F00
3F00
3F00
ENDCHAR
STARTCHAR uni2549
ENCODING 9545
SWIDTH 600 0
DWIDTH 11 0
BBX 11 18 0 -5
BITMAP
3F00
3F00
3F00
3F00
3F00
3F00
FF00
FF00
FFE0
FFE0
FF00
FF00
3F00
3F00
3F00
3F00
3F00
3F00
ENDCHAR
STARTCHAR uni254A
ENCODING 9546
SWIDTH 600 0
DWIDTH 11 0
BBX 11 18 0 -5
BITMAP
3F00
3F00
3F00
3F00
3F00
3F00
3FE0
3FE0
FFE0
FFE0
3FE0
3FE0
3F00
3F00
3F00
3F00
3F00
3F00
ENDCHAR
STARTCHAR uni254B
ENCODING 9547
SWIDTH 600 0
DWIDTH 11 0
BBX 11 18 0 -5
BITMAP
3F00
3F00
3F00
3F00
3F00
3F00
FFE0
FFE0
FFE0
FFE0
FFE0
FFE0
3F00
3F00
3F00
3F00
3F00
3F00
ENDCHAR
STARTCHAR uni254C
ENCODING 9548
SWIDTH 600 0
DWIDTH 11 0
BBX 11 18 0 -5
BITMAP
0000
0000
0000
0000
0000
0000
0000
0000
F3E0
F3E0
0000
0000
0000
0000
0000
0000
0000
0000
ENDCHAR
STARTCHAR uni254D
ENCODING 9549
SWIDTH 600 0
DWIDTH 11 0
BBX 11 18 0 -5
BITMAP
0000
0000
0000
0000
0000
0000
F3E0
F3E0
F3E0
F3E0
F3E0
F3E0
0000
0000
0000
0000
0000
0000
ENDCHAR
STARTCHAR uni254E
ENCODING 9550
SWIDTH 600 0
DWIDTH 11 0
BBX 11 18 0 -5
BITMAP
0C00
0C00
0C00
0C00
0C00
0C00
0C00
0C00
0000
0000
0C00
0C00
0C00
0C00
0C00
0C00
0C00
0C00
ENDCHAR
STARTCHAR uni254F
ENCODING 9551
SWIDTH 600 0
DWIDTH 11 0
BBX 11 18 0 -5
BITMAP
3F00
3F00
3F00
3F00
3F00
3F00
3F00
3F00
0000
0000
3F00
3F00
3F00
3F00
3F00
3F00
3F00
3F00
ENDCHAR
STARTCHAR SF430000
ENCODING 9552
SWIDTH 600 0
DWIDTH 11 0
BBX 11 6 0 1
BITMAP
FFE0
FFE0
0000
0000
FFE0
FFE0
ENDCHAR
STARTCHAR SF240000
ENCODING 9553
SWIDTH 600 0
DWIDTH 11 0
BBX 6 18 2 -5
BITMAP
CC
CC
CC
CC
CC
CC
CC
CC
CC
CC
CC
CC
CC
CC
CC
CC
CC
CC
ENDCHAR
STARTCHAR SF390000
ENCODING 9556
SWIDTH 600 0
DWIDTH 11 0
BBX 9 12 2 -5
BITMAP
FF80
FF80
C000
C000
CF80
CF80
CC00
CC00
CC00
CC00
CC00
CC00
ENDCHAR
STARTCHAR SF250000
ENCODING 9559
SWIDTH 600 0
DWIDTH 11 0
BBX 8 12 0 -5
BITMAP
FF
FF
03
03
F3
F3
33
33
33
33
33
33
ENDCHAR
STARTCHAR SF380000
ENCODING 9562
SWIDTH 600 0
DWIDTH 11 0
BBX 9 12 2 1
BITMAP
CC00
CC00
CC00
CC00
CC00
CC00
CF80
CF80
C000
C000
FF80
FF80
ENDCHAR
STARTCHAR SF260000
ENCODING 9565
SWIDTH 600 0
DWIDTH 11 0
BBX 8 12 0 1
BITMAP
33
33
33
33
33
33
F3
F3
03
03
FF
FF
ENDCHAR
STARTCHAR SF420000
ENCODING 9568
SWIDTH 600 0
DWIDTH 11 0
BBX 9 18 2 -5
BITMAP
CC00
CC00
CC00
CC00
CC00
CC00
CF80
CF80
C000
C000
CF80
CF80
CC00
CC00
CC00
CC00
CC00
CC00
ENDCHAR
STARTCHAR SF230000
ENCODING 9571
SWIDTH 600 0
DWIDTH 11 0
BBX 8 18 0 -5
BITMAP
33
33
33
33
33
33
F3
F3
03
03
F3
F3
33
33
33
33
33
33
ENDCHAR
STARTCHAR SF410000
ENCODING 9574
SWIDTH 600 0
DWIDTH 11 0
BBX 11 12 0 -5
BITMAP
FFE0
FFE0
0000
0000
F3E0
F3E0
3300
3300
3300
3300
3300
3300
ENDCHAR
STARTCHAR SF400000
ENCODING 9577
SWIDTH 600 0
DWIDTH 11 0
BBX 11 12 0 1
BITMAP
3300
3300
3300
3300
3300
3300
F3E0
F3E0
0000
0000
FFE0
FFE0
ENDCHAR
STARTCHAR SF540000
ENCODING 9578
SWIDTH 600 0
DWIDTH 11 0
BBX 11 18 0 -5
BITMAP
0C00
0C00
0C00
0C00
0C00
0C00
FFE0
FFE0
0C00
0C00
FFE0
FFE0
0C00
0C00
0C00
0C00
0C00
0C00
ENDCHAR
STARTCHAR SF530000
ENCODING 9579
SWIDTH 600 0
DWIDTH 11 0
BBX 11 18 0 -5
BITMAP
3300
3300
3300
3300
3300
3300
3300
3300
FFE0
FFE0
3300
3300
3300
3300
3300
3300
3300
3300
ENDCHAR
STARTCHAR SF440000
ENCODING 9580
SWIDTH 600 0
DWIDTH 11 0
BBX 11 18 0 -5
BITMAP
3300
3300
3300
3300
3300
3300
F3E0
F3E0
0000
0000
F3E0
F3E0
3300
3300
3300
3300
3300
3300
ENDCHAR
STARTCHAR uni2574
ENCODING 9588
SWIDTH 600 0
DWIDTH 11 0
BBX 6 2 0 3
BITMAP
FC
FC
ENDCHAR
STARTCHAR uni2575
ENCODING 9589
SWIDTH 600 0
DWIDTH 11 0
BBX 2 10 4 3
BITMAP
C0
C0
C0
C0
C0
C0
C0
C0
C0
C0
ENDCHAR
STARTCHAR uni2576
ENCODING 9590
SWIDTH 600 0
DWIDTH 11 0
BBX 7 2 4 3
BITMAP
FE
FE
ENDCHAR
STARTCHAR uni2577
ENCODING 9591
SWIDTH 600 0
DWIDTH 11 0
BBX 2 10 4 -5
BITMAP
C0
C0
C0
C0
C0
C0
C0
C0
C0
C0
ENDCHAR
STARTCHAR uni2578
ENCODING 9592
SWIDTH 600 0
DWIDTH 11 0
BBX 8 6 0 1
BITMAP
FF
FF
FF
FF
FF
FF
ENDCHAR
STARTCHAR uni2579
ENCODING 9593
SWIDTH 600 0
DWIDTH 11 0
BBX 6 12 2 1
BITMAP
FC
FC
FC
FC
FC
FC
FC
FC
FC
FC
FC
FC
ENDCHAR
STARTCHAR uni257A
ENCODING 9594
SWIDTH 600 0
DWIDTH 11 0
BBX 9 6 2 1
BITMAP
FF80
FF80
FF80
FF80
FF80
FF80
ENDCHAR
STARTCHAR uni257B
ENCODING 9595
SWIDTH 600 0
DWIDTH 11 0
BBX 6 12 2 -5
BITMAP
FC
FC
FC
FC
FC
FC
FC
FC
FC
FC
FC
FC
ENDCHAR
STARTCHAR uni257C
ENCODING 9596
SWIDTH 600 0
DWIDTH 11 0
BBX 11 6 0 1
BITMAP
3FE0
3FE0
FFE0
FFE0
3FE0
3FE0
ENDCHAR
STARTCHAR uni257D
ENCODING 9597
SWIDTH 600 0
DWIDTH 11 0
BBX 6 18 2 -5
BITMAP
30
30
30
30
30
30
FC
FC
FC
FC
FC
FC
FC
FC
FC
FC
FC
FC
ENDCHAR
STARTCHAR uni257E
ENCODING 9598
SWIDTH 600 0
DWIDTH 11 0
BBX 11 6 0 1
BITMAP
FF00
FF00
FFE0
FFE0
FF00
FF00
ENDCHAR
STARTCHAR uni257F
ENCODING 9599
SWIDTH 600 0
DWIDTH 11 0
BBX 6 18 2 -5
BITMAP
FC
FC
FC
FC
FC
FC
FC
FC
FC
FC
FC
FC
30
30
30
30
30
30
ENDCHAR
STARTCHAR upblock
ENCODING 9600
SWIDTH 600 0
DWIDTH 11 0
BBX 11 19 0 -5
BITMAP
FFE0
FFE0
FFE0
FFE0
FFE0
FFE0
FFE0
FFE0
FFE0
0000
0000
0000
0000
0000
0000
0000
0000
0000
0000
ENDCHAR
STARTCHAR uni2581
ENCODING 9601
SWIDTH 600 0
DWIDTH 11 0
BBX 11 2 0 -5
BITMAP
FFE0
FFE0
ENDCHAR
STARTCHAR uni2582
ENCODING 9602
SWIDTH 600 0
DWIDTH 11 0
BBX 11 5 0 -5
BITMAP
FFE0
FFE0
FFE0
FFE0
FFE0
ENDCHAR
STARTCHAR uni2583
ENCODING 9603
SWIDTH 600 0
DWIDTH 11 0
BBX 11 7 0 -5
BITMAP
FFE0
FFE0
FFE0
FFE0
FFE0
FFE0
FFE0
ENDCHAR
STARTCHAR dnblock
ENCODING 9604
SWIDTH 600 0
DWIDTH 11 0
BBX 11 10 0 -5
BITMAP
FFE0
FFE0
FFE0
FFE0
FFE0
FFE0
FFE0
FFE0
FFE0
FFE0
ENDCHAR
STARTCHAR uni2585
ENCODING 9605
SWIDTH 600 0
DWIDTH 11 0
BBX 11 12 0 -5
BITMAP
FFE0
FFE0
FFE0
FFE0
FFE0
FFE0
FFE0
FFE0
FFE0
FFE0
FFE0
FFE0
ENDCHAR
STARTCHAR uni2586
ENCODING 9606
SWIDTH 600 0
DWIDTH 11 0
BBX 11 14 0 -5
BITMAP
FFE0
FFE0
FFE0
FFE0
FFE0
FFE0
FFE0
FFE0
FFE0
FFE0
FFE0
FFE0
FFE0
FFE0
ENDCHAR
STARTCHAR uni2587
ENCODING 9607
SWIDTH 600 0
DWIDTH 11 0
BBX 11 17 0 -5
BITMAP
FFE0
FFE0
FFE0
FFE0
FFE0
FFE0
FFE0
FFE0
FFE0
FFE0
FFE0
FFE0
FFE0
FFE0
FFE0
FFE0
FFE0
ENDCHAR
STARTCHAR block
ENCODING 9608
SWIDTH 600 0
DWIDTH 11 0
BBX 11 19 0 -5
BITMAP
FFE0
FFE0
FFE0
FFE0
FFE0
FFE0
FFE0
FFE0
FFE0
FFE0
FFE0
FFE0
FFE0
FFE0
FFE0
FFE0
FFE0
FFE0
FFE0
ENDCHAR
STARTCHAR uni2589
ENCODING 9609
SWIDTH 600 0
DWIDTH 11 0
BBX 10 19 0 -5
BITMAP
FFC0
FFC0
FFC0
FFC0
FFC0
FFC0
FFC0
FFC0
FFC0
FFC0
FFC0
FFC0
FFC0
FFC0
FFC0
FFC0
FFC0
FFC0
FFC0
ENDCHAR
STARTCHAR uni258A
ENCODING 9610
SWIDTH 600 0
DWIDTH 11 0
BBX 8 19 0 -5
BITMAP
FF
FF
FF
FF
FF
FF
FF
FF
FF
FF
FF
FF
FF
FF
FF
FF
FF
FF
FF
ENDCHAR
STARTCHAR uni258B
ENCODING 9611
SWIDTH 600 0
DWIDTH 11 0
BBX 7 19 0 -5
BITMAP
FE
FE
FE
FE
FE
FE
FE
FE
FE
FE
FE
FE
FE
FE
FE
FE
FE
FE
FE
ENDCHAR
STARTCHAR lfblock
ENCODING 9612
SWIDTH 600 0
DWIDTH 11 0
BBX 6 19 0 -5
BITMAP
FC
FC
FC
FC
FC
FC
FC
FC
FC
FC
FC
FC
FC
FC
FC
FC
FC
FC
FC
ENDCHAR
STARTCHAR uni258D
ENCODING 9613
SWIDTH 600 0
DWIDTH 11 0
BBX 4 19 0 -5
BITMAP
F0
F0
F0
F0
F0
F0
F0
F0
F0
F0
F0
F0
F0
F0
F0
F0
F0
F0
F0
ENDCHAR
STARTCHAR uni258E
ENCODING 9614
SWIDTH 600 0
DWIDTH 11 0
BBX 3 19 0 -5
BITMAP
E0
E0
E0
E0
E0
E0
E0
E0
E0
E0
E0
E0
E0
E0
E0
E0
E0
E0
E0
ENDCHAR
STARTCHAR uni258F
ENCODING 9615
SWIDTH 600 0
DWIDTH 11 0
BBX 1 19 0 -5
BITMAP
80
80
80
80
80
80
80
80
80
80
80
80
80
80
80
80
80
80
80
ENDCHAR
STARTCHAR rtblock
ENCODING 9616
SWIDTH 600 0
DWIDTH 11 0
BBX 11 19 0 -5
BITMAP
03E0
03E0
03E0
03E0
03E0
03E0
03E0
03E0
03E0
03E0
03E0
03E0
03E0
03E0
03E0
03E0
03E0
03E0
03E0
ENDCHAR
STARTCHAR ltshade
ENCODING 9617
SWIDTH 600 0
DWIDTH 11 0
BBX 11 19 0 -5
BITMAP
0000
5540
0000
AAA0
0000
5540
0000
AAA0
0000
5540
0000
AAA0
0000
5540
0000
AAA0
0000
5540
0000
ENDCHAR
STARTCHAR shade
ENCODING 9618
SWIDTH 600 0
DWIDTH 11 0
BBX 11 19 0 -5
BITMAP
5540
AAA0
5540
AAA0
5540
AAA0
5540
AAA0
5540
AAA0
5540
AAA0
5540
AAA0
5540
AAA0
5540
AAA0
5540
ENDCHAR
STARTCHAR dkshade
ENCODING 9619
SWIDTH 600 0
DWIDTH 11 0
BBX 11 19 0 -5
BITMAP
FFE0
AAA0
FFE0
5540
FFE0
AAA0
FFE0
5540
FFE0
AAA0
FFE0
5540
FFE0
AAA0
FFE0
5540
FFE0
AAA0
FFE0
ENDCHAR
STARTCHAR uni2594
ENCODING 9620
SWIDTH 600 0
DWIDTH 11 0
BBX 11 19 0 -5
BITMAP
FFE0
FFE0
0000
0000
0000
0000
0000
0000
0000
0000
0000
0000
0000
0000
0000
0000
0000
0000
0000
ENDCHAR
STARTCHAR uni2595
ENCODING 9621
SWIDTH 600 0
DWIDTH 11 0
BBX 11 19 0 -5
BITMAP
00E0
00E0
00E0
00E0
00E0
00E0
00E0
00E0
00E0
00E0
00E0
00E0
00E0
00E0
00E0
00E0
00E0
00E0
00E0
ENDCHAR
STARTCHAR fi
ENCODING -1
SWIDTH 600 0
DWIDTH 11 0
BBX 11 12 0 0
BITMAP
1D80
3D80
3000
FB80
FB80
3180
3180
3180
3180
3180
FBE0
FBE0
ENDCHAR
STARTCHAR fl
ENCODING -1
SWIDTH 600 0
DWIDTH 11 0
BBX 11 12 0 0
BITMAP
1D80
3F80
3180
FD80
FD80
3180
3180
3180
3180
3180
FBE0
FBE0
ENDCHAR
ENDFONT
